<?xml version="1.0" encoding="UTF-8"?>
<svg data-carbon-style="IBM Carbon Design System v11" data-carbon-charts-source="carbon-design-system/carbon-charts packages/core/scss" data-font="IBM Plex Sans" data-chart-palette="@carbon/charts white 14" xmlns="http://www.w3.org/2000/svg" xmlns:xlink="http://www.w3.org/1999/xlink" width="518pt" height="302pt" viewBox="0 0 518 302">
<defs>
<style type="text/css"><![CDATA[
.carbon-note{font-family:'IBM Plex Sans', sans-serif;}
.tdl-node,.tdl-connector,.tdl-label-pill,.tdl-flow-number{vector-effect:non-scaling-stroke;}
.tdl-connector{fill:none;}
]]></style>
<g>
<g id="glyph-0-0">
<path d="M 2.40625 0.09375 C 1.738281 0.09375 1.25 -0.15625 0.9375 -0.65625 C 0.632812 -1.164062 0.484375 -1.878906 0.484375 -2.796875 C 0.484375 -3.703125 0.632812 -4.410156 0.9375 -4.921875 C 1.25 -5.429688 1.738281 -5.6875 2.40625 -5.6875 C 3.070312 -5.6875 3.554688 -5.429688 3.859375 -4.921875 C 4.160156 -4.410156 4.3125 -3.703125 4.3125 -2.796875 C 4.3125 -1.878906 4.160156 -1.164062 3.859375 -0.65625 C 3.554688 -0.15625 3.070312 0.09375 2.40625 0.09375 Z M 2.40625 -0.484375 C 2.625 -0.484375 2.804688 -0.53125 2.953125 -0.625 C 3.109375 -0.71875 3.234375 -0.84375 3.328125 -1 C 3.429688 -1.164062 3.503906 -1.359375 3.546875 -1.578125 C 3.585938 -1.804688 3.609375 -2.0625 3.609375 -2.34375 L 3.609375 -3.25 C 3.609375 -3.519531 3.585938 -3.765625 3.546875 -3.984375 C 3.503906 -4.210938 3.429688 -4.410156 3.328125 -4.578125 C 3.234375 -4.742188 3.109375 -4.867188 2.953125 -4.953125 C 2.804688 -5.046875 2.625 -5.09375 2.40625 -5.09375 C 2.1875 -5.09375 2 -5.046875 1.84375 -4.953125 C 1.6875 -4.867188 1.554688 -4.742188 1.453125 -4.578125 C 1.359375 -4.410156 1.289062 -4.210938 1.25 -3.984375 C 1.207031 -3.765625 1.1875 -3.519531 1.1875 -3.25 L 1.1875 -2.34375 C 1.1875 -2.0625 1.207031 -1.804688 1.25 -1.578125 C 1.289062 -1.359375 1.359375 -1.164062 1.453125 -1 C 1.554688 -0.84375 1.6875 -0.71875 1.84375 -0.625 C 2 -0.53125 2.1875 -0.484375 2.40625 -0.484375 Z M 2.40625 -0.484375 "/>
</g>
<g id="glyph-0-1">
<path d="M 1.09375 0.09375 C 0.914062 0.09375 0.785156 0.0507812 0.703125 -0.03125 C 0.628906 -0.113281 0.59375 -0.226562 0.59375 -0.375 L 0.59375 -0.46875 C 0.59375 -0.613281 0.628906 -0.726562 0.703125 -0.8125 C 0.785156 -0.894531 0.914062 -0.9375 1.09375 -0.9375 C 1.257812 -0.9375 1.378906 -0.894531 1.453125 -0.8125 C 1.535156 -0.726562 1.578125 -0.613281 1.578125 -0.46875 L 1.578125 -0.375 C 1.578125 -0.226562 1.535156 -0.113281 1.453125 -0.03125 C 1.378906 0.0507812 1.257812 0.09375 1.09375 0.09375 Z M 1.09375 0.09375 "/>
</g>
<g id="glyph-0-2">
<path d="M 4.265625 0 L 0.59375 0 L 0.59375 -0.6875 L 2.421875 -2.375 C 2.679688 -2.613281 2.898438 -2.863281 3.078125 -3.125 C 3.253906 -3.394531 3.34375 -3.664062 3.34375 -3.9375 L 3.34375 -4.046875 C 3.34375 -4.347656 3.253906 -4.59375 3.078125 -4.78125 C 2.910156 -4.976562 2.65625 -5.078125 2.3125 -5.078125 C 2.144531 -5.078125 1.992188 -5.050781 1.859375 -5 C 1.734375 -4.957031 1.625 -4.894531 1.53125 -4.8125 C 1.4375 -4.726562 1.359375 -4.628906 1.296875 -4.515625 C 1.234375 -4.398438 1.1875 -4.273438 1.15625 -4.140625 L 0.546875 -4.375 C 0.597656 -4.53125 0.671875 -4.6875 0.765625 -4.84375 C 0.859375 -5.007812 0.976562 -5.148438 1.125 -5.265625 C 1.269531 -5.390625 1.441406 -5.488281 1.640625 -5.5625 C 1.835938 -5.644531 2.070312 -5.6875 2.34375 -5.6875 C 2.613281 -5.6875 2.851562 -5.644531 3.0625 -5.5625 C 3.28125 -5.476562 3.460938 -5.363281 3.609375 -5.21875 C 3.753906 -5.082031 3.863281 -4.914062 3.9375 -4.71875 C 4.019531 -4.519531 4.0625 -4.300781 4.0625 -4.0625 C 4.0625 -3.84375 4.03125 -3.640625 3.96875 -3.453125 C 3.90625 -3.265625 3.816406 -3.082031 3.703125 -2.90625 C 3.597656 -2.738281 3.46875 -2.578125 3.3125 -2.421875 C 3.164062 -2.265625 3.003906 -2.101562 2.828125 -1.9375 L 1.328125 -0.59375 L 4.265625 -0.59375 Z M 4.265625 0 "/>
</g>
<g id="glyph-0-3">
<path d="M 3 0 L 3 -1.09375 L 0.296875 -1.09375 L 0.296875 -1.6875 L 2.640625 -5.578125 L 3.640625 -5.578125 L 3.640625 -1.65625 L 4.453125 -1.65625 L 4.453125 -1.09375 L 3.640625 -1.09375 L 3.640625 0 Z M 0.9375 -1.65625 L 3 -1.65625 L 3 -5.0625 L 2.953125 -5.0625 Z M 0.9375 -1.65625 "/>
</g>
<g id="glyph-0-4">
<path d="M 2.40625 0.09375 C 2.113281 0.09375 1.851562 0.046875 1.625 -0.046875 C 1.394531 -0.148438 1.195312 -0.289062 1.03125 -0.46875 C 0.875 -0.65625 0.75 -0.878906 0.65625 -1.140625 C 0.570312 -1.410156 0.53125 -1.710938 0.53125 -2.046875 C 0.53125 -2.460938 0.59375 -2.851562 0.71875 -3.21875 C 0.84375 -3.582031 1 -3.914062 1.1875 -4.21875 C 1.382812 -4.519531 1.597656 -4.785156 1.828125 -5.015625 C 2.066406 -5.253906 2.300781 -5.441406 2.53125 -5.578125 L 3.390625 -5.578125 C 3.085938 -5.359375 2.816406 -5.144531 2.578125 -4.9375 C 2.347656 -4.726562 2.144531 -4.507812 1.96875 -4.28125 C 1.800781 -4.0625 1.65625 -3.820312 1.53125 -3.5625 C 1.40625 -3.300781 1.304688 -3.007812 1.234375 -2.6875 L 1.265625 -2.671875 C 1.398438 -2.898438 1.570312 -3.085938 1.78125 -3.234375 C 2 -3.390625 2.273438 -3.46875 2.609375 -3.46875 C 2.847656 -3.46875 3.066406 -3.425781 3.265625 -3.34375 C 3.472656 -3.269531 3.648438 -3.15625 3.796875 -3 C 3.941406 -2.851562 4.054688 -2.671875 4.140625 -2.453125 C 4.222656 -2.242188 4.265625 -2.007812 4.265625 -1.75 C 4.265625 -1.476562 4.21875 -1.226562 4.125 -1 C 4.039062 -0.769531 3.914062 -0.570312 3.75 -0.40625 C 3.59375 -0.25 3.398438 -0.125 3.171875 -0.03125 C 2.941406 0.0507812 2.6875 0.09375 2.40625 0.09375 Z M 2.40625 -0.484375 C 2.769531 -0.484375 3.050781 -0.582031 3.25 -0.78125 C 3.457031 -0.988281 3.5625 -1.28125 3.5625 -1.65625 L 3.5625 -1.734375 C 3.5625 -2.109375 3.457031 -2.394531 3.25 -2.59375 C 3.050781 -2.800781 2.769531 -2.90625 2.40625 -2.90625 C 2.03125 -2.90625 1.738281 -2.800781 1.53125 -2.59375 C 1.332031 -2.394531 1.234375 -2.109375 1.234375 -1.734375 L 1.234375 -1.65625 C 1.234375 -1.28125 1.332031 -0.988281 1.53125 -0.78125 C 1.738281 -0.582031 2.03125 -0.484375 2.40625 -0.484375 Z M 2.40625 -0.484375 "/>
</g>
<g id="glyph-0-5">
<path d="M 4.234375 0 L 3.6875 -1.640625 L 1.421875 -1.640625 L 0.859375 0 L 0.1875 0 L 2.140625 -5.578125 L 2.984375 -5.578125 L 4.9375 0 Z M 2.5625 -4.953125 L 2.53125 -4.953125 L 1.578125 -2.234375 L 3.515625 -2.234375 Z M 2.5625 -4.953125 "/>
</g>
<g id="glyph-0-6">
<path d="M 2.015625 1.65625 C 1.796875 1.65625 1.625 1.617188 1.5 1.546875 C 1.375 1.472656 1.28125 1.398438 1.21875 1.328125 L 1.53125 1 C 1.570312 1.0625 1.632812 1.113281 1.71875 1.15625 C 1.800781 1.195312 1.898438 1.21875 2.015625 1.21875 C 2.117188 1.21875 2.203125 1.195312 2.265625 1.15625 C 2.335938 1.125 2.375 1.0625 2.375 0.96875 C 2.375 0.894531 2.335938 0.832031 2.265625 0.78125 C 2.191406 0.726562 2.046875 0.679688 1.828125 0.640625 L 1.59375 0.609375 L 1.703125 0.09375 C 1.378906 0.0625 1.101562 -0.0195312 0.875 -0.15625 C 0.644531 -0.300781 0.445312 -0.488281 0.28125 -0.71875 L 0.75 -1.078125 C 0.90625 -0.878906 1.082031 -0.722656 1.28125 -0.609375 C 1.476562 -0.503906 1.707031 -0.453125 1.96875 -0.453125 C 2.238281 -0.453125 2.445312 -0.507812 2.59375 -0.625 C 2.75 -0.738281 2.828125 -0.90625 2.828125 -1.125 C 2.828125 -1.28125 2.773438 -1.414062 2.671875 -1.53125 C 2.566406 -1.644531 2.378906 -1.722656 2.109375 -1.765625 L 1.78125 -1.8125 C 1.59375 -1.84375 1.414062 -1.882812 1.25 -1.9375 C 1.09375 -2 0.953125 -2.070312 0.828125 -2.15625 C 0.710938 -2.25 0.617188 -2.363281 0.546875 -2.5 C 0.484375 -2.644531 0.453125 -2.816406 0.453125 -3.015625 C 0.453125 -3.210938 0.488281 -3.382812 0.5625 -3.53125 C 0.644531 -3.6875 0.75 -3.816406 0.875 -3.921875 C 1.007812 -4.023438 1.164062 -4.097656 1.34375 -4.140625 C 1.519531 -4.191406 1.710938 -4.21875 1.921875 -4.21875 C 2.265625 -4.21875 2.546875 -4.160156 2.765625 -4.046875 C 2.992188 -3.929688 3.195312 -3.769531 3.375 -3.5625 L 2.9375 -3.171875 C 2.851562 -3.304688 2.722656 -3.425781 2.546875 -3.53125 C 2.367188 -3.632812 2.144531 -3.6875 1.875 -3.6875 C 1.613281 -3.6875 1.414062 -3.628906 1.28125 -3.515625 C 1.144531 -3.398438 1.078125 -3.242188 1.078125 -3.046875 C 1.078125 -2.835938 1.144531 -2.6875 1.28125 -2.59375 C 1.414062 -2.507812 1.609375 -2.445312 1.859375 -2.40625 L 2.1875 -2.359375 C 2.644531 -2.285156 2.96875 -2.148438 3.15625 -1.953125 C 3.351562 -1.753906 3.453125 -1.5 3.453125 -1.1875 C 3.453125 -0.8125 3.332031 -0.507812 3.09375 -0.28125 C 2.851562 -0.0625 2.523438 0.0625 2.109375 0.09375 L 2.03125 0.484375 L 2.046875 0.515625 C 2.148438 0.484375 2.253906 0.46875 2.359375 0.46875 C 2.515625 0.46875 2.644531 0.507812 2.75 0.59375 C 2.851562 0.6875 2.90625 0.816406 2.90625 0.984375 C 2.90625 1.097656 2.878906 1.195312 2.828125 1.28125 C 2.785156 1.375 2.722656 1.445312 2.640625 1.5 C 2.554688 1.550781 2.457031 1.585938 2.34375 1.609375 C 2.238281 1.640625 2.128906 1.65625 2.015625 1.65625 Z M 2.015625 1.65625 "/>
</g>
<g id="glyph-0-7">
<path d="M 0.6875 0 L 0.6875 -4.125 L 1.3125 -4.125 L 1.3125 0 Z M 0.6875 0 "/>
</g>
<g id="glyph-0-8">
<path d="M 0.6875 0 L 0.6875 -4.125 L 1.3125 -4.125 L 1.3125 -3.375 L 1.359375 -3.375 C 1.429688 -3.5625 1.5625 -3.734375 1.75 -3.890625 C 1.945312 -4.046875 2.210938 -4.125 2.546875 -4.125 L 2.796875 -4.125 L 2.796875 -3.484375 L 2.421875 -3.484375 C 2.078125 -3.484375 1.804688 -3.414062 1.609375 -3.28125 C 1.410156 -3.15625 1.3125 -2.992188 1.3125 -2.796875 L 1.3125 0 Z M 0.6875 0 "/>
</g>
<g id="glyph-0-9">
</g>
<g id="glyph-0-10">
<path d="M 0.6875 -5.921875 L 1.3125 -5.921875 L 1.3125 -2.171875 L 1.359375 -2.171875 L 1.984375 -2.875 L 3.15625 -4.125 L 3.921875 -4.125 L 2.40625 -2.5 L 4.078125 0 L 3.296875 0 L 1.9375 -2.109375 L 1.3125 -1.46875 L 1.3125 0 L 0.6875 0 Z M 0.6875 -5.921875 "/>
</g>
<g id="glyph-0-11">
<path d="M 2.234375 0.09375 C 1.960938 0.09375 1.710938 0.046875 1.484375 -0.046875 C 1.253906 -0.148438 1.054688 -0.296875 0.890625 -0.484375 C 0.722656 -0.679688 0.59375 -0.910156 0.5 -1.171875 C 0.414062 -1.429688 0.375 -1.726562 0.375 -2.0625 C 0.375 -2.382812 0.414062 -2.679688 0.5 -2.953125 C 0.59375 -3.222656 0.722656 -3.453125 0.890625 -3.640625 C 1.054688 -3.828125 1.253906 -3.96875 1.484375 -4.0625 C 1.710938 -4.164062 1.960938 -4.21875 2.234375 -4.21875 C 2.515625 -4.21875 2.769531 -4.164062 3 -4.0625 C 3.226562 -3.96875 3.421875 -3.828125 3.578125 -3.640625 C 3.742188 -3.453125 3.875 -3.222656 3.96875 -2.953125 C 4.0625 -2.679688 4.109375 -2.382812 4.109375 -2.0625 C 4.109375 -1.726562 4.0625 -1.429688 3.96875 -1.171875 C 3.875 -0.910156 3.742188 -0.679688 3.578125 -0.484375 C 3.421875 -0.296875 3.226562 -0.148438 3 -0.046875 C 2.769531 0.046875 2.515625 0.09375 2.234375 0.09375 Z M 2.234375 -0.46875 C 2.585938 -0.46875 2.875 -0.570312 3.09375 -0.78125 C 3.3125 -1 3.421875 -1.328125 3.421875 -1.765625 L 3.421875 -2.359375 C 3.421875 -2.796875 3.3125 -3.117188 3.09375 -3.328125 C 2.875 -3.546875 2.585938 -3.65625 2.234375 -3.65625 C 1.890625 -3.65625 1.609375 -3.546875 1.390625 -3.328125 C 1.171875 -3.117188 1.0625 -2.796875 1.0625 -2.359375 L 1.0625 -1.765625 C 1.0625 -1.328125 1.171875 -1 1.390625 -0.78125 C 1.609375 -0.570312 1.890625 -0.46875 2.234375 -0.46875 Z M 2.234375 -0.46875 "/>
</g>
<g id="glyph-0-12">
<path d="M 3.21875 -0.671875 L 3.1875 -0.671875 C 3.144531 -0.578125 3.09375 -0.484375 3.03125 -0.390625 C 2.96875 -0.296875 2.890625 -0.210938 2.796875 -0.140625 C 2.710938 -0.0664062 2.601562 -0.0078125 2.46875 0.03125 C 2.34375 0.0703125 2.195312 0.09375 2.03125 0.09375 C 1.601562 0.09375 1.265625 -0.0390625 1.015625 -0.3125 C 0.765625 -0.59375 0.640625 -0.984375 0.640625 -1.484375 L 0.640625 -4.125 L 1.28125 -4.125 L 1.28125 -1.59375 C 1.28125 -0.851562 1.59375 -0.484375 2.21875 -0.484375 C 2.351562 -0.484375 2.476562 -0.5 2.59375 -0.53125 C 2.71875 -0.5625 2.828125 -0.609375 2.921875 -0.671875 C 3.015625 -0.734375 3.085938 -0.8125 3.140625 -0.90625 C 3.191406 -1.007812 3.21875 -1.128906 3.21875 -1.265625 L 3.21875 -4.125 L 3.859375 -4.125 L 3.859375 0 L 3.21875 0 Z M 3.21875 -0.671875 "/>
</g>
<g id="glyph-0-13">
<path d="M 0.6875 0 L 0.6875 -4.125 L 1.3125 -4.125 L 1.3125 -3.453125 L 1.359375 -3.453125 C 1.398438 -3.554688 1.453125 -3.65625 1.515625 -3.75 C 1.578125 -3.84375 1.648438 -3.925781 1.734375 -4 C 1.828125 -4.070312 1.929688 -4.125 2.046875 -4.15625 C 2.160156 -4.195312 2.300781 -4.21875 2.46875 -4.21875 C 2.738281 -4.21875 2.988281 -4.148438 3.21875 -4.015625 C 3.445312 -3.890625 3.617188 -3.679688 3.734375 -3.390625 L 3.75 -3.390625 C 3.820312 -3.609375 3.957031 -3.800781 4.15625 -3.96875 C 4.363281 -4.132812 4.644531 -4.21875 5 -4.21875 C 5.414062 -4.21875 5.742188 -4.082031 5.984375 -3.8125 C 6.222656 -3.539062 6.34375 -3.148438 6.34375 -2.640625 L 6.34375 0 L 5.703125 0 L 5.703125 -2.53125 C 5.703125 -2.90625 5.628906 -3.179688 5.484375 -3.359375 C 5.335938 -3.546875 5.109375 -3.640625 4.796875 -3.640625 C 4.671875 -3.640625 4.550781 -3.625 4.4375 -3.59375 C 4.320312 -3.5625 4.21875 -3.515625 4.125 -3.453125 C 4.03125 -3.390625 3.957031 -3.304688 3.90625 -3.203125 C 3.851562 -3.109375 3.828125 -2.992188 3.828125 -2.859375 L 3.828125 0 L 3.1875 0 L 3.1875 -2.53125 C 3.1875 -2.90625 3.113281 -3.179688 2.96875 -3.359375 C 2.832031 -3.546875 2.609375 -3.640625 2.296875 -3.640625 C 2.171875 -3.640625 2.050781 -3.625 1.9375 -3.59375 C 1.820312 -3.5625 1.71875 -3.515625 1.625 -3.453125 C 1.53125 -3.390625 1.453125 -3.304688 1.390625 -3.203125 C 1.335938 -3.109375 1.3125 -2.992188 1.3125 -2.859375 L 1.3125 0 Z M 0.6875 0 "/>
</g>
<g id="glyph-0-14">
<path d="M 3.6875 0 C 3.4375 0 3.257812 -0.0625 3.15625 -0.1875 C 3.0625 -0.320312 3 -0.484375 2.96875 -0.671875 L 2.921875 -0.671875 C 2.835938 -0.410156 2.691406 -0.21875 2.484375 -0.09375 C 2.273438 0.03125 2.023438 0.09375 1.734375 0.09375 C 1.296875 0.09375 0.957031 -0.015625 0.71875 -0.234375 C 0.476562 -0.460938 0.359375 -0.769531 0.359375 -1.15625 C 0.359375 -1.539062 0.5 -1.835938 0.78125 -2.046875 C 1.0625 -2.253906 1.503906 -2.359375 2.109375 -2.359375 L 2.921875 -2.359375 L 2.921875 -2.765625 C 2.921875 -3.054688 2.84375 -3.28125 2.6875 -3.4375 C 2.53125 -3.59375 2.285156 -3.671875 1.953125 -3.671875 C 1.703125 -3.671875 1.492188 -3.613281 1.328125 -3.5 C 1.160156 -3.394531 1.019531 -3.25 0.90625 -3.0625 L 0.515625 -3.421875 C 0.628906 -3.640625 0.804688 -3.828125 1.046875 -3.984375 C 1.296875 -4.140625 1.609375 -4.21875 1.984375 -4.21875 C 2.484375 -4.21875 2.867188 -4.09375 3.140625 -3.84375 C 3.421875 -3.601562 3.5625 -3.265625 3.5625 -2.828125 L 3.5625 -0.5625 L 4.046875 -0.5625 L 4.046875 0 Z M 1.84375 -0.453125 C 2 -0.453125 2.144531 -0.46875 2.28125 -0.5 C 2.414062 -0.539062 2.53125 -0.59375 2.625 -0.65625 C 2.71875 -0.726562 2.789062 -0.8125 2.84375 -0.90625 C 2.894531 -1 2.921875 -1.097656 2.921875 -1.203125 L 2.921875 -1.875 L 2.078125 -1.875 C 1.710938 -1.875 1.445312 -1.820312 1.28125 -1.71875 C 1.113281 -1.613281 1.03125 -1.457031 1.03125 -1.25 L 1.03125 -1.09375 C 1.03125 -0.882812 1.101562 -0.722656 1.25 -0.609375 C 1.394531 -0.503906 1.59375 -0.453125 1.84375 -0.453125 Z M 1.84375 -0.453125 "/>
</g>
<g id="glyph-0-15">
<path d="M 2.203125 -2.75 L 1.421875 -1.859375 L 1.421875 0 L 0.75 0 L 0.75 -5.578125 L 1.421875 -5.578125 L 1.421875 -2.609375 L 1.4375 -2.609375 L 2.234375 -3.578125 L 3.921875 -5.578125 L 4.75 -5.578125 L 2.671875 -3.1875 L 4.890625 0 L 4.0625 0 Z M 2.203125 -2.75 "/>
</g>
<g id="glyph-0-16">
<path d="M 1.359375 0 C 1.140625 0 0.972656 -0.0625 0.859375 -0.1875 C 0.742188 -0.3125 0.6875 -0.46875 0.6875 -0.65625 L 0.6875 -5.921875 L 1.3125 -5.921875 L 1.3125 -0.5625 L 1.921875 -0.5625 L 1.921875 0 Z M 1.359375 0 "/>
</g>
<g id="glyph-0-17">
<path d="M 1.59375 0 C 1.363281 0 1.191406 -0.0625 1.078125 -0.1875 C 0.960938 -0.3125 0.90625 -0.476562 0.90625 -0.6875 L 0.90625 -3.5625 L 0.234375 -3.5625 L 0.234375 -4.125 L 0.609375 -4.125 C 0.753906 -4.125 0.847656 -4.148438 0.890625 -4.203125 C 0.941406 -4.265625 0.96875 -4.363281 0.96875 -4.5 L 0.96875 -5.265625 L 1.546875 -5.265625 L 1.546875 -4.125 L 2.453125 -4.125 L 2.453125 -3.5625 L 1.546875 -3.5625 L 1.546875 -0.5625 L 2.390625 -0.5625 L 2.390625 0 Z M 1.59375 0 "/>
</g>
<g id="glyph-0-18">
<path d="M 1.421875 0 L 0.75 0 L 0.75 -5.578125 L 2.96875 -5.578125 C 3.457031 -5.578125 3.835938 -5.441406 4.109375 -5.171875 C 4.390625 -4.898438 4.53125 -4.507812 4.53125 -4 C 4.53125 -3.59375 4.429688 -3.253906 4.234375 -2.984375 C 4.046875 -2.722656 3.769531 -2.550781 3.40625 -2.46875 L 4.6875 0 L 3.921875 0 L 2.71875 -2.40625 L 1.421875 -2.40625 Z M 2.96875 -2.96875 C 3.238281 -2.96875 3.445312 -3.035156 3.59375 -3.171875 C 3.738281 -3.316406 3.8125 -3.519531 3.8125 -3.78125 L 3.8125 -4.1875 C 3.8125 -4.445312 3.738281 -4.644531 3.59375 -4.78125 C 3.445312 -4.914062 3.238281 -4.984375 2.96875 -4.984375 L 1.421875 -4.984375 L 1.421875 -2.96875 Z M 2.96875 -2.96875 "/>
</g>
<g id="glyph-0-19">
<path d="M 2.234375 0.09375 C 1.953125 0.09375 1.695312 0.046875 1.46875 -0.046875 C 1.238281 -0.148438 1.039062 -0.296875 0.875 -0.484375 C 0.71875 -0.679688 0.59375 -0.910156 0.5 -1.171875 C 0.414062 -1.429688 0.375 -1.726562 0.375 -2.0625 C 0.375 -2.382812 0.414062 -2.679688 0.5 -2.953125 C 0.59375 -3.222656 0.71875 -3.453125 0.875 -3.640625 C 1.039062 -3.828125 1.238281 -3.96875 1.46875 -4.0625 C 1.695312 -4.164062 1.953125 -4.21875 2.234375 -4.21875 C 2.503906 -4.21875 2.75 -4.164062 2.96875 -4.0625 C 3.1875 -3.96875 3.375 -3.832031 3.53125 -3.65625 C 3.6875 -3.476562 3.804688 -3.265625 3.890625 -3.015625 C 3.972656 -2.765625 4.015625 -2.492188 4.015625 -2.203125 L 4.015625 -1.90625 L 1.046875 -1.90625 L 1.046875 -1.71875 C 1.046875 -1.539062 1.070312 -1.375 1.125 -1.21875 C 1.1875 -1.0625 1.269531 -0.925781 1.375 -0.8125 C 1.476562 -0.707031 1.601562 -0.625 1.75 -0.5625 C 1.90625 -0.5 2.078125 -0.46875 2.265625 -0.46875 C 2.523438 -0.46875 2.753906 -0.523438 2.953125 -0.640625 C 3.148438 -0.765625 3.300781 -0.941406 3.40625 -1.171875 L 3.859375 -0.84375 C 3.722656 -0.5625 3.515625 -0.332031 3.234375 -0.15625 C 2.953125 0.0078125 2.617188 0.09375 2.234375 0.09375 Z M 2.234375 -3.6875 C 2.054688 -3.6875 1.894531 -3.65625 1.75 -3.59375 C 1.601562 -3.53125 1.476562 -3.441406 1.375 -3.328125 C 1.269531 -3.222656 1.1875 -3.09375 1.125 -2.9375 C 1.070312 -2.789062 1.046875 -2.625 1.046875 -2.4375 L 1.046875 -2.390625 L 3.328125 -2.390625 L 3.328125 -2.46875 C 3.328125 -2.84375 3.226562 -3.140625 3.03125 -3.359375 C 2.832031 -3.578125 2.566406 -3.6875 2.234375 -3.6875 Z M 2.234375 -3.6875 "/>
</g>
<g id="glyph-0-20">
<path d="M 3.3125 -0.671875 L 3.28125 -0.671875 C 3.03125 -0.160156 2.628906 0.09375 2.078125 0.09375 C 1.828125 0.09375 1.597656 0.046875 1.390625 -0.046875 C 1.179688 -0.148438 1 -0.296875 0.84375 -0.484375 C 0.695312 -0.671875 0.585938 -0.894531 0.515625 -1.15625 C 0.441406 -1.425781 0.40625 -1.726562 0.40625 -2.0625 C 0.40625 -2.394531 0.441406 -2.691406 0.515625 -2.953125 C 0.585938 -3.222656 0.695312 -3.453125 0.84375 -3.640625 C 1 -3.828125 1.179688 -3.96875 1.390625 -4.0625 C 1.597656 -4.164062 1.828125 -4.21875 2.078125 -4.21875 C 2.367188 -4.21875 2.613281 -4.15625 2.8125 -4.03125 C 3.019531 -3.90625 3.175781 -3.710938 3.28125 -3.453125 L 3.3125 -3.453125 L 3.3125 -5.921875 L 3.953125 -5.921875 L 3.953125 0 L 3.3125 0 Z M 2.25 -0.484375 C 2.394531 -0.484375 2.53125 -0.5 2.65625 -0.53125 C 2.789062 -0.570312 2.90625 -0.628906 3 -0.703125 C 3.101562 -0.773438 3.179688 -0.863281 3.234375 -0.96875 C 3.285156 -1.070312 3.3125 -1.1875 3.3125 -1.3125 L 3.3125 -2.859375 C 3.3125 -2.972656 3.285156 -3.078125 3.234375 -3.171875 C 3.179688 -3.265625 3.101562 -3.347656 3 -3.421875 C 2.90625 -3.492188 2.789062 -3.546875 2.65625 -3.578125 C 2.53125 -3.617188 2.394531 -3.640625 2.25 -3.640625 C 1.894531 -3.640625 1.613281 -3.523438 1.40625 -3.296875 C 1.195312 -3.078125 1.09375 -2.785156 1.09375 -2.421875 L 1.09375 -1.71875 C 1.09375 -1.34375 1.195312 -1.039062 1.40625 -0.8125 C 1.613281 -0.59375 1.894531 -0.484375 2.25 -0.484375 Z M 2.25 -0.484375 "/>
</g>
<g id="glyph-0-21">
<path d="M 2.3125 0.09375 C 1.851562 0.09375 1.460938 0.0078125 1.140625 -0.15625 C 0.828125 -0.332031 0.5625 -0.570312 0.34375 -0.875 L 0.828125 -1.296875 C 1.023438 -1.035156 1.242188 -0.835938 1.484375 -0.703125 C 1.722656 -0.566406 2.007812 -0.5 2.34375 -0.5 C 2.738281 -0.5 3.039062 -0.59375 3.25 -0.78125 C 3.457031 -0.976562 3.5625 -1.234375 3.5625 -1.546875 C 3.5625 -1.816406 3.484375 -2.023438 3.328125 -2.171875 C 3.171875 -2.316406 2.90625 -2.429688 2.53125 -2.515625 L 2.078125 -2.609375 C 1.566406 -2.734375 1.175781 -2.910156 0.90625 -3.140625 C 0.632812 -3.378906 0.5 -3.71875 0.5 -4.15625 C 0.5 -4.394531 0.546875 -4.609375 0.640625 -4.796875 C 0.734375 -4.992188 0.859375 -5.15625 1.015625 -5.28125 C 1.179688 -5.414062 1.375 -5.515625 1.59375 -5.578125 C 1.820312 -5.648438 2.078125 -5.6875 2.359375 -5.6875 C 2.773438 -5.6875 3.132812 -5.609375 3.4375 -5.453125 C 3.738281 -5.296875 3.992188 -5.066406 4.203125 -4.765625 L 3.703125 -4.40625 C 3.546875 -4.613281 3.359375 -4.78125 3.140625 -4.90625 C 2.921875 -5.03125 2.644531 -5.09375 2.3125 -5.09375 C 1.957031 -5.09375 1.675781 -5.015625 1.46875 -4.859375 C 1.269531 -4.703125 1.171875 -4.472656 1.171875 -4.171875 C 1.171875 -3.910156 1.253906 -3.710938 1.421875 -3.578125 C 1.597656 -3.441406 1.863281 -3.332031 2.21875 -3.25 L 2.671875 -3.140625 C 3.222656 -3.015625 3.617188 -2.828125 3.859375 -2.578125 C 4.109375 -2.328125 4.234375 -1.992188 4.234375 -1.578125 C 4.234375 -1.328125 4.1875 -1.097656 4.09375 -0.890625 C 4.007812 -0.679688 3.882812 -0.503906 3.71875 -0.359375 C 3.550781 -0.210938 3.347656 -0.0976562 3.109375 -0.015625 C 2.878906 0.0546875 2.613281 0.09375 2.3125 0.09375 Z M 2.3125 0.09375 "/>
</g>
<g id="glyph-0-22">
<path d="M 2.21875 0.09375 C 1.925781 0.09375 1.664062 0.046875 1.4375 -0.046875 C 1.207031 -0.148438 1.015625 -0.296875 0.859375 -0.484375 C 0.703125 -0.671875 0.582031 -0.894531 0.5 -1.15625 C 0.414062 -1.425781 0.375 -1.726562 0.375 -2.0625 C 0.375 -2.394531 0.414062 -2.691406 0.5 -2.953125 C 0.582031 -3.222656 0.703125 -3.453125 0.859375 -3.640625 C 1.015625 -3.828125 1.207031 -3.96875 1.4375 -4.0625 C 1.664062 -4.164062 1.925781 -4.21875 2.21875 -4.21875 C 2.625 -4.21875 2.953125 -4.128906 3.203125 -3.953125 C 3.453125 -3.773438 3.640625 -3.539062 3.765625 -3.25 L 3.21875 -2.984375 C 3.144531 -3.191406 3.019531 -3.351562 2.84375 -3.46875 C 2.675781 -3.59375 2.46875 -3.65625 2.21875 -3.65625 C 2.019531 -3.65625 1.847656 -3.625 1.703125 -3.5625 C 1.566406 -3.5 1.445312 -3.410156 1.34375 -3.296875 C 1.25 -3.191406 1.175781 -3.0625 1.125 -2.90625 C 1.082031 -2.757812 1.0625 -2.597656 1.0625 -2.421875 L 1.0625 -1.71875 C 1.0625 -1.351562 1.15625 -1.050781 1.34375 -0.8125 C 1.539062 -0.582031 1.832031 -0.46875 2.21875 -0.46875 C 2.726562 -0.46875 3.101562 -0.707031 3.34375 -1.1875 L 3.796875 -0.875 C 3.660156 -0.582031 3.460938 -0.347656 3.203125 -0.171875 C 2.941406 0.00390625 2.613281 0.09375 2.21875 0.09375 Z M 2.21875 0.09375 "/>
</g>
<g id="glyph-0-23">
<path d="M 1 -5.09375 C 0.863281 -5.09375 0.765625 -5.125 0.703125 -5.1875 C 0.640625 -5.257812 0.609375 -5.347656 0.609375 -5.453125 L 0.609375 -5.5625 C 0.609375 -5.664062 0.640625 -5.75 0.703125 -5.8125 C 0.765625 -5.882812 0.863281 -5.921875 1 -5.921875 C 1.132812 -5.921875 1.234375 -5.882812 1.296875 -5.8125 C 1.359375 -5.75 1.390625 -5.664062 1.390625 -5.5625 L 1.390625 -5.453125 C 1.390625 -5.347656 1.359375 -5.257812 1.296875 -5.1875 C 1.234375 -5.125 1.132812 -5.09375 1 -5.09375 Z M 0.6875 -4.125 L 1.3125 -4.125 L 1.3125 0 L 0.6875 0 Z M 0.6875 -4.125 "/>
</g>
<g id="glyph-0-24">
<path d="M 2.21875 -4.21875 C 2.625 -4.21875 2.953125 -4.128906 3.203125 -3.953125 C 3.453125 -3.773438 3.640625 -3.546875 3.765625 -3.265625 L 3.21875 -2.984375 C 3.144531 -3.191406 3.019531 -3.351562 2.84375 -3.46875 C 2.675781 -3.59375 2.46875 -3.65625 2.21875 -3.65625 C 2.019531 -3.65625 1.847656 -3.625 1.703125 -3.5625 C 1.566406 -3.5 1.445312 -3.410156 1.34375 -3.296875 C 1.25 -3.191406 1.175781 -3.0625 1.125 -2.90625 C 1.082031 -2.757812 1.0625 -2.597656 1.0625 -2.421875 L 1.0625 -1.71875 C 1.0625 -1.351562 1.15625 -1.050781 1.34375 -0.8125 C 1.539062 -0.582031 1.832031 -0.46875 2.21875 -0.46875 C 2.726562 -0.46875 3.101562 -0.707031 3.34375 -1.1875 L 3.796875 -0.875 C 3.671875 -0.601562 3.488281 -0.378906 3.25 -0.203125 C 3.019531 -0.0351562 2.734375 0.0625 2.390625 0.09375 L 2.3125 0.484375 L 2.34375 0.515625 C 2.4375 0.484375 2.535156 0.46875 2.640625 0.46875 C 2.796875 0.46875 2.925781 0.507812 3.03125 0.59375 C 3.132812 0.6875 3.1875 0.816406 3.1875 0.984375 C 3.1875 1.097656 3.160156 1.195312 3.109375 1.28125 C 3.066406 1.375 3.003906 1.445312 2.921875 1.5 C 2.835938 1.550781 2.742188 1.585938 2.640625 1.609375 C 2.535156 1.640625 2.421875 1.65625 2.296875 1.65625 C 2.078125 1.65625 1.90625 1.617188 1.78125 1.546875 C 1.65625 1.472656 1.566406 1.398438 1.515625 1.328125 L 1.8125 1 C 1.863281 1.0625 1.925781 1.113281 2 1.15625 C 2.082031 1.195312 2.179688 1.21875 2.296875 1.21875 C 2.398438 1.21875 2.484375 1.195312 2.546875 1.15625 C 2.617188 1.125 2.65625 1.0625 2.65625 0.96875 C 2.65625 0.894531 2.617188 0.832031 2.546875 0.78125 C 2.484375 0.726562 2.335938 0.679688 2.109375 0.640625 L 1.890625 0.609375 L 1.984375 0.09375 C 1.472656 0.0390625 1.078125 -0.175781 0.796875 -0.5625 C 0.515625 -0.945312 0.375 -1.445312 0.375 -2.0625 C 0.375 -2.394531 0.414062 -2.691406 0.5 -2.953125 C 0.582031 -3.222656 0.703125 -3.453125 0.859375 -3.640625 C 1.015625 -3.828125 1.207031 -3.96875 1.4375 -4.0625 C 1.664062 -4.164062 1.925781 -4.21875 2.21875 -4.21875 Z M 2.21875 -4.21875 "/>
</g>
<g id="glyph-0-25">
<path d="M 0.484375 0 L 0.484375 -0.5625 L 1.265625 -0.5625 L 1.265625 -5.03125 L 0.484375 -5.03125 L 0.484375 -5.578125 L 2.71875 -5.578125 L 2.71875 -5.03125 L 1.9375 -5.03125 L 1.9375 -0.5625 L 2.71875 -0.5625 L 2.71875 0 Z M 0.484375 0 "/>
</g>
<g id="glyph-0-26">
<path d="M 2.71875 0.09375 C 2 0.09375 1.441406 -0.144531 1.046875 -0.625 C 0.660156 -1.113281 0.46875 -1.828125 0.46875 -2.765625 C 0.46875 -3.703125 0.660156 -4.421875 1.046875 -4.921875 C 1.441406 -5.429688 2 -5.6875 2.71875 -5.6875 C 3.1875 -5.6875 3.578125 -5.578125 3.890625 -5.359375 C 4.210938 -5.148438 4.457031 -4.847656 4.625 -4.453125 L 4.09375 -4.125 C 3.976562 -4.414062 3.804688 -4.644531 3.578125 -4.8125 C 3.347656 -4.988281 3.0625 -5.078125 2.71875 -5.078125 C 2.476562 -5.078125 2.257812 -5.03125 2.0625 -4.9375 C 1.875 -4.851562 1.710938 -4.722656 1.578125 -4.546875 C 1.453125 -4.378906 1.351562 -4.179688 1.28125 -3.953125 C 1.21875 -3.722656 1.1875 -3.460938 1.1875 -3.171875 L 1.1875 -2.34375 C 1.1875 -1.769531 1.316406 -1.316406 1.578125 -0.984375 C 1.847656 -0.660156 2.226562 -0.5 2.71875 -0.5 C 3.070312 -0.5 3.367188 -0.59375 3.609375 -0.78125 C 3.847656 -0.96875 4.023438 -1.210938 4.140625 -1.515625 L 4.671875 -1.171875 C 4.492188 -0.773438 4.238281 -0.460938 3.90625 -0.234375 C 3.582031 -0.015625 3.1875 0.09375 2.71875 0.09375 Z M 2.71875 0.09375 "/>
</g>
<g id="glyph-0-27">
<path d="M 0.484375 0 L 0.484375 -0.5625 L 1.265625 -0.5625 L 1.265625 -5.03125 L 0.484375 -5.03125 L 0.484375 -5.578125 L 2.71875 -5.578125 L 2.71875 -5.03125 L 1.9375 -5.03125 L 1.9375 -0.5625 L 2.71875 -0.5625 L 2.71875 0 Z M 1.609375 -6.234375 C 1.453125 -6.234375 1.335938 -6.269531 1.265625 -6.34375 C 1.191406 -6.425781 1.15625 -6.53125 1.15625 -6.65625 L 1.15625 -6.78125 C 1.15625 -6.90625 1.191406 -7.003906 1.265625 -7.078125 C 1.335938 -7.160156 1.453125 -7.203125 1.609375 -7.203125 C 1.753906 -7.203125 1.863281 -7.160156 1.9375 -7.078125 C 2.007812 -7.003906 2.046875 -6.90625 2.046875 -6.78125 L 2.046875 -6.65625 C 2.046875 -6.53125 2.007812 -6.425781 1.9375 -6.34375 C 1.863281 -6.269531 1.753906 -6.234375 1.609375 -6.234375 Z M 1.609375 -6.234375 "/>
</g>
<g id="glyph-0-28">
<path d="M 0.6875 0 L 0.6875 -4.125 L 1.3125 -4.125 L 1.3125 -3.453125 L 1.359375 -3.453125 C 1.453125 -3.691406 1.59375 -3.878906 1.78125 -4.015625 C 1.96875 -4.148438 2.210938 -4.21875 2.515625 -4.21875 C 2.941406 -4.21875 3.28125 -4.082031 3.53125 -3.8125 C 3.78125 -3.539062 3.90625 -3.148438 3.90625 -2.640625 L 3.90625 0 L 3.265625 0 L 3.265625 -2.53125 C 3.265625 -3.269531 2.953125 -3.640625 2.328125 -3.640625 C 2.203125 -3.640625 2.078125 -3.625 1.953125 -3.59375 C 1.835938 -3.5625 1.726562 -3.515625 1.625 -3.453125 C 1.53125 -3.390625 1.453125 -3.304688 1.390625 -3.203125 C 1.335938 -3.109375 1.3125 -2.992188 1.3125 -2.859375 L 1.3125 0 Z M 0.6875 0 "/>
</g>
<g id="glyph-0-29">
<path d="M 1.921875 0.09375 C 1.535156 0.09375 1.210938 0.0195312 0.953125 -0.125 C 0.691406 -0.269531 0.46875 -0.46875 0.28125 -0.71875 L 0.75 -1.078125 C 0.90625 -0.878906 1.082031 -0.722656 1.28125 -0.609375 C 1.476562 -0.503906 1.707031 -0.453125 1.96875 -0.453125 C 2.238281 -0.453125 2.445312 -0.507812 2.59375 -0.625 C 2.75 -0.738281 2.828125 -0.90625 2.828125 -1.125 C 2.828125 -1.28125 2.773438 -1.414062 2.671875 -1.53125 C 2.566406 -1.644531 2.378906 -1.722656 2.109375 -1.765625 L 1.78125 -1.8125 C 1.59375 -1.84375 1.414062 -1.882812 1.25 -1.9375 C 1.09375 -2 0.953125 -2.070312 0.828125 -2.15625 C 0.710938 -2.25 0.617188 -2.363281 0.546875 -2.5 C 0.484375 -2.644531 0.453125 -2.816406 0.453125 -3.015625 C 0.453125 -3.210938 0.488281 -3.382812 0.5625 -3.53125 C 0.644531 -3.6875 0.75 -3.816406 0.875 -3.921875 C 1.007812 -4.023438 1.164062 -4.097656 1.34375 -4.140625 C 1.519531 -4.191406 1.710938 -4.21875 1.921875 -4.21875 C 2.265625 -4.21875 2.546875 -4.160156 2.765625 -4.046875 C 2.992188 -3.929688 3.195312 -3.769531 3.375 -3.5625 L 2.9375 -3.171875 C 2.851562 -3.304688 2.722656 -3.425781 2.546875 -3.53125 C 2.367188 -3.632812 2.144531 -3.6875 1.875 -3.6875 C 1.613281 -3.6875 1.414062 -3.628906 1.28125 -3.515625 C 1.144531 -3.398438 1.078125 -3.242188 1.078125 -3.046875 C 1.078125 -2.835938 1.144531 -2.6875 1.28125 -2.59375 C 1.414062 -2.507812 1.609375 -2.445312 1.859375 -2.40625 L 2.1875 -2.359375 C 2.644531 -2.285156 2.96875 -2.148438 3.15625 -1.953125 C 3.351562 -1.753906 3.453125 -1.5 3.453125 -1.1875 C 3.453125 -0.789062 3.3125 -0.476562 3.03125 -0.25 C 2.757812 -0.0195312 2.390625 0.09375 1.921875 0.09375 Z M 1.921875 0.09375 "/>
</g>
<g id="glyph-0-30">
<path d="M 0.546875 -2.09375 L 0.546875 -2.78125 L 2.640625 -2.78125 L 2.640625 -2.09375 Z M 0.546875 -2.09375 "/>
</g>
<g id="glyph-0-31">
<path d="M 0.65625 -2.5 C 0.65625 -2.882812 0.691406 -3.253906 0.765625 -3.609375 C 0.847656 -3.960938 0.953125 -4.289062 1.078125 -4.59375 C 1.210938 -4.90625 1.367188 -5.1875 1.546875 -5.4375 C 1.722656 -5.6875 1.910156 -5.898438 2.109375 -6.078125 L 2.71875 -6.078125 C 2.5 -5.878906 2.296875 -5.648438 2.109375 -5.390625 C 1.929688 -5.140625 1.78125 -4.867188 1.65625 -4.578125 C 1.53125 -4.285156 1.429688 -3.988281 1.359375 -3.6875 C 1.296875 -3.394531 1.265625 -3.109375 1.265625 -2.828125 L 1.265625 -2.140625 C 1.265625 -1.859375 1.296875 -1.566406 1.359375 -1.265625 C 1.429688 -0.972656 1.53125 -0.679688 1.65625 -0.390625 C 1.789062 -0.0976562 1.945312 0.171875 2.125 0.421875 C 2.300781 0.679688 2.5 0.90625 2.71875 1.09375 L 2.109375 1.09375 C 1.910156 0.925781 1.722656 0.71875 1.546875 0.46875 C 1.367188 0.21875 1.210938 -0.0546875 1.078125 -0.359375 C 0.953125 -0.671875 0.847656 -1.003906 0.765625 -1.359375 C 0.691406 -1.722656 0.65625 -2.101562 0.65625 -2.5 Z M 0.65625 -2.5 "/>
</g>
<g id="glyph-0-32">
<path d="M 1.09375 -0.9375 C 1.257812 -0.9375 1.378906 -0.890625 1.453125 -0.796875 C 1.535156 -0.710938 1.578125 -0.601562 1.578125 -0.46875 L 1.578125 -0.359375 C 1.578125 -0.140625 1.507812 0.0976562 1.375 0.359375 C 1.25 0.628906 1.070312 0.863281 0.84375 1.0625 L 0.3125 1.0625 C 0.46875 0.894531 0.59375 0.734375 0.6875 0.578125 C 0.789062 0.429688 0.863281 0.265625 0.90625 0.078125 C 0.800781 0.046875 0.722656 -0.00390625 0.671875 -0.078125 C 0.617188 -0.148438 0.59375 -0.242188 0.59375 -0.359375 L 0.59375 -0.46875 C 0.59375 -0.601562 0.628906 -0.710938 0.703125 -0.796875 C 0.785156 -0.890625 0.914062 -0.9375 1.09375 -0.9375 Z M 1.09375 -0.9375 "/>
</g>
<g id="glyph-0-33">
<path d="M 0.703125 0 L 0.703125 -0.59375 L 2.265625 -0.59375 L 2.265625 -5.09375 L 2.203125 -5.09375 L 0.796875 -3.78125 L 0.40625 -4.203125 L 1.890625 -5.578125 L 2.9375 -5.578125 L 2.9375 -0.59375 L 4.375 -0.59375 L 4.375 0 Z M 0.703125 0 "/>
</g>
<g id="glyph-0-34">
<path d="M 2.015625 -2.5 C 2.015625 -2.101562 1.972656 -1.722656 1.890625 -1.359375 C 1.816406 -1.003906 1.710938 -0.671875 1.578125 -0.359375 C 1.453125 -0.0546875 1.300781 0.21875 1.125 0.46875 C 0.945312 0.71875 0.757812 0.925781 0.5625 1.09375 L -0.046875 1.09375 C 0.171875 0.90625 0.367188 0.679688 0.546875 0.421875 C 0.734375 0.171875 0.890625 -0.0976562 1.015625 -0.390625 C 1.140625 -0.679688 1.238281 -0.972656 1.3125 -1.265625 C 1.382812 -1.566406 1.421875 -1.859375 1.421875 -2.140625 L 1.421875 -2.828125 C 1.421875 -3.109375 1.382812 -3.394531 1.3125 -3.6875 C 1.238281 -3.988281 1.140625 -4.285156 1.015625 -4.578125 C 0.890625 -4.867188 0.738281 -5.140625 0.5625 -5.390625 C 0.382812 -5.648438 0.179688 -5.878906 -0.046875 -6.078125 L 0.5625 -6.078125 C 0.769531 -5.898438 0.960938 -5.6875 1.140625 -5.4375 C 1.316406 -5.1875 1.46875 -4.90625 1.59375 -4.59375 C 1.726562 -4.289062 1.832031 -3.960938 1.90625 -3.609375 C 1.976562 -3.253906 2.015625 -2.882812 2.015625 -2.5 Z M 2.015625 -2.5 "/>
</g>
<g id="glyph-1-0">
<path d="M 0 -0.59375 L -0.703125 -0.59375 L -0.703125 -1.578125 L -6.28125 -1.578125 L -6.28125 -0.59375 L -6.984375 -0.59375 L -6.984375 -3.40625 L -6.28125 -3.40625 L -6.28125 -2.421875 L -0.703125 -2.421875 L -0.703125 -3.40625 L 0 -3.40625 Z M 0 -0.59375 "/>
</g>
<g id="glyph-1-1">
<path d="M 0.125 -3.390625 C 0.125 -2.503906 -0.175781 -1.8125 -0.78125 -1.3125 C -1.382812 -0.820312 -2.273438 -0.578125 -3.453125 -0.578125 C -4.617188 -0.578125 -5.515625 -0.820312 -6.140625 -1.3125 C -6.773438 -1.8125 -7.09375 -2.503906 -7.09375 -3.390625 C -7.09375 -3.972656 -6.957031 -4.460938 -6.6875 -4.859375 C -6.425781 -5.253906 -6.050781 -5.566406 -5.5625 -5.796875 L -5.15625 -5.109375 C -5.519531 -4.972656 -5.804688 -4.757812 -6.015625 -4.46875 C -6.234375 -4.1875 -6.34375 -3.828125 -6.34375 -3.390625 C -6.34375 -3.085938 -6.285156 -2.816406 -6.171875 -2.578125 C -6.066406 -2.347656 -5.90625 -2.148438 -5.6875 -1.984375 C -5.476562 -1.816406 -5.226562 -1.691406 -4.9375 -1.609375 C -4.65625 -1.523438 -4.332031 -1.484375 -3.96875 -1.484375 L -2.9375 -1.484375 C -2.207031 -1.484375 -1.640625 -1.648438 -1.234375 -1.984375 C -0.828125 -2.316406 -0.625 -2.785156 -0.625 -3.390625 C -0.625 -3.835938 -0.738281 -4.207031 -0.96875 -4.5 C -1.195312 -4.800781 -1.503906 -5.023438 -1.890625 -5.171875 L -1.46875 -5.84375 C -0.976562 -5.625 -0.585938 -5.304688 -0.296875 -4.890625 C -0.015625 -4.472656 0.125 -3.972656 0.125 -3.390625 Z M 0.125 -3.390625 "/>
</g>
</g>
<clipPath id="clip-0">
<path clip-rule="nonzero" d="M 37.941406 271 L 509.035156 271 L 509.035156 272 L 37.941406 272 Z M 37.941406 271 "/>
</clipPath>
<clipPath id="clip-1">
<path clip-rule="nonzero" d="M 37.941406 197 L 509.035156 197 L 509.035156 199 L 37.941406 199 Z M 37.941406 197 "/>
</clipPath>
<clipPath id="clip-2">
<path clip-rule="nonzero" d="M 37.941406 123 L 509.035156 123 L 509.035156 125 L 37.941406 125 Z M 37.941406 123 "/>
</clipPath>
<clipPath id="clip-3">
<path clip-rule="nonzero" d="M 37.941406 50 L 509.035156 50 L 509.035156 52 L 37.941406 52 Z M 37.941406 50 "/>
</clipPath>
</defs>
<rect x="-51.8" y="-30.2" width="621.6" height="362.4" fill="rgb(100%, 100%, 100%)" fill-opacity="1"/>
<rect x="-51.8" y="-30.2" width="621.6" height="362.4" fill="rgb(100%, 100%, 100%)" fill-opacity="1"/>
<g clip-path="url(#clip-0)">
<path fill="none" stroke-width="0.746885" stroke-linecap="butt" stroke-linejoin="round" stroke="rgb(87.843137%, 87.843137%, 87.843137%)" stroke-opacity="1" stroke-miterlimit="10" d="M 37.941406 271.503906 L 509.035156 271.503906 "/>
</g>
<g clip-path="url(#clip-1)">
<path fill="none" stroke-width="0.746885" stroke-linecap="butt" stroke-linejoin="round" stroke="rgb(87.843137%, 87.843137%, 87.843137%)" stroke-opacity="1" stroke-miterlimit="10" d="M 37.941406 197.898438 L 509.035156 197.898438 "/>
</g>
<g clip-path="url(#clip-2)">
<path fill="none" stroke-width="0.746885" stroke-linecap="butt" stroke-linejoin="round" stroke="rgb(87.843137%, 87.843137%, 87.843137%)" stroke-opacity="1" stroke-miterlimit="10" d="M 37.941406 124.296875 L 509.035156 124.296875 "/>
</g>
<g clip-path="url(#clip-3)">
<path fill="none" stroke-width="0.746885" stroke-linecap="butt" stroke-linejoin="round" stroke="rgb(87.843137%, 87.843137%, 87.843137%)" stroke-opacity="1" stroke-miterlimit="10" d="M 37.941406 50.695312 L 509.035156 50.695312 "/>
</g>
<path fill-rule="nonzero" fill="rgb(6.666667%, 57.254902%, 90.980392%)" fill-opacity="1" stroke-width="0.426791" stroke-linecap="butt" stroke-linejoin="miter" stroke="rgb(100%, 100%, 100%)" stroke-opacity="1" stroke-miterlimit="10" d="M 404.160156 271.503906 L 438.929688 271.503906 L 438.929688 162.023438 L 404.160156 162.023438 Z M 404.160156 271.503906 "/>
<path fill-rule="nonzero" fill="rgb(6.666667%, 57.254902%, 90.980392%)" fill-opacity="1" stroke-width="0.426791" stroke-linecap="butt" stroke-linejoin="miter" stroke="rgb(100%, 100%, 100%)" stroke-opacity="1" stroke-miterlimit="10" d="M 67.664062 271.503906 L 102.433594 271.503906 L 102.433594 197.328125 L 67.664062 197.328125 Z M 67.664062 271.503906 "/>
<path fill-rule="nonzero" fill="rgb(6.666667%, 57.254902%, 90.980392%)" fill-opacity="1" stroke-width="0.426791" stroke-linecap="butt" stroke-linejoin="miter" stroke="rgb(100%, 100%, 100%)" stroke-opacity="1" stroke-miterlimit="10" d="M 291.996094 271.503906 L 326.765625 271.503906 L 326.765625 212.679688 L 291.996094 212.679688 Z M 291.996094 271.503906 "/>
<path fill-rule="nonzero" fill="rgb(6.666667%, 57.254902%, 90.980392%)" fill-opacity="1" stroke-width="0.426791" stroke-linecap="butt" stroke-linejoin="miter" stroke="rgb(100%, 100%, 100%)" stroke-opacity="1" stroke-miterlimit="10" d="M 179.828125 271.503906 L 214.597656 271.503906 L 214.597656 196.746094 L 179.828125 196.746094 Z M 179.828125 271.503906 "/>
<path fill-rule="nonzero" fill="rgb(41.176471%, 16.078431%, 76.862745%)" fill-opacity="1" stroke-width="0.426791" stroke-linecap="butt" stroke-linejoin="miter" stroke="rgb(100%, 100%, 100%)" stroke-opacity="1" stroke-miterlimit="10" d="M 444.539062 271.503906 L 479.308594 271.503906 L 479.308594 162.339844 L 444.539062 162.339844 Z M 444.539062 271.503906 "/>
<path fill-rule="nonzero" fill="rgb(41.176471%, 16.078431%, 76.862745%)" fill-opacity="1" stroke-width="0.426791" stroke-linecap="butt" stroke-linejoin="miter" stroke="rgb(100%, 100%, 100%)" stroke-opacity="1" stroke-miterlimit="10" d="M 108.042969 271.503906 L 142.8125 271.503906 L 142.8125 195.984375 L 108.042969 195.984375 Z M 108.042969 271.503906 "/>
<path fill-rule="nonzero" fill="rgb(41.176471%, 16.078431%, 76.862745%)" fill-opacity="1" stroke-width="0.426791" stroke-linecap="butt" stroke-linejoin="miter" stroke="rgb(100%, 100%, 100%)" stroke-opacity="1" stroke-miterlimit="10" d="M 332.375 271.503906 L 367.144531 271.503906 L 367.144531 213.222656 L 332.375 213.222656 Z M 332.375 271.503906 "/>
<path fill-rule="nonzero" fill="rgb(41.176471%, 16.078431%, 76.862745%)" fill-opacity="1" stroke-width="0.426791" stroke-linecap="butt" stroke-linejoin="miter" stroke="rgb(100%, 100%, 100%)" stroke-opacity="1" stroke-miterlimit="10" d="M 220.207031 271.503906 L 254.976562 271.503906 L 254.976562 197.203125 L 220.207031 197.203125 Z M 220.207031 271.503906 "/>
<g fill="rgb(32.156863%, 32.156863%, 32.156863%)" fill-opacity="1">
<use xlink:href="#glyph-0-0" x="21.457031" y="273.704102"/>
<use xlink:href="#glyph-0-1" x="26.457031" y="273.704102"/>
<use xlink:href="#glyph-0-0" x="28.457031" y="273.704102"/>
</g>
<g fill="rgb(32.156863%, 32.156863%, 32.156863%)" fill-opacity="1">
<use xlink:href="#glyph-0-0" x="21.457031" y="200.098633"/>
<use xlink:href="#glyph-0-1" x="26.457031" y="200.098633"/>
<use xlink:href="#glyph-0-2" x="28.457031" y="200.098633"/>
</g>
<g fill="rgb(32.156863%, 32.156863%, 32.156863%)" fill-opacity="1">
<use xlink:href="#glyph-0-0" x="21.457031" y="126.49707"/>
<use xlink:href="#glyph-0-1" x="26.457031" y="126.49707"/>
<use xlink:href="#glyph-0-3" x="28.457031" y="126.49707"/>
</g>
<g fill="rgb(32.156863%, 32.156863%, 32.156863%)" fill-opacity="1">
<use xlink:href="#glyph-0-0" x="21.457031" y="52.895508"/>
<use xlink:href="#glyph-0-1" x="26.457031" y="52.895508"/>
<use xlink:href="#glyph-0-4" x="28.457031" y="52.895508"/>
</g>
<g fill="rgb(32.156863%, 32.156863%, 32.156863%)" fill-opacity="1">
<use xlink:href="#glyph-0-5" x="82.738281" y="292.227539"/>
<use xlink:href="#glyph-0-6" x="87.738281" y="292.227539"/>
<use xlink:href="#glyph-0-7" x="91.738281" y="292.227539"/>
<use xlink:href="#glyph-0-8" x="93.738281" y="292.227539"/>
<use xlink:href="#glyph-0-7" x="96.738281" y="292.227539"/>
<use xlink:href="#glyph-0-9" x="98.738281" y="292.227539"/>
<use xlink:href="#glyph-0-10" x="100.738281" y="292.227539"/>
<use xlink:href="#glyph-0-11" x="104.738281" y="292.227539"/>
<use xlink:href="#glyph-0-8" x="108.738281" y="292.227539"/>
<use xlink:href="#glyph-0-12" x="111.738281" y="292.227539"/>
<use xlink:href="#glyph-0-13" x="116.738281" y="292.227539"/>
<use xlink:href="#glyph-0-14" x="123.738281" y="292.227539"/>
</g>
<g fill="rgb(32.156863%, 32.156863%, 32.156863%)" fill-opacity="1">
<use xlink:href="#glyph-0-15" x="193.90625" y="292.227539"/>
<use xlink:href="#glyph-0-14" x="198.90625" y="292.227539"/>
<use xlink:href="#glyph-0-8" x="202.90625" y="292.227539"/>
<use xlink:href="#glyph-0-6" x="205.90625" y="292.227539"/>
<use xlink:href="#glyph-0-7" x="209.90625" y="292.227539"/>
<use xlink:href="#glyph-0-16" x="211.90625" y="292.227539"/>
<use xlink:href="#glyph-0-14" x="213.90625" y="292.227539"/>
<use xlink:href="#glyph-0-6" x="217.90625" y="292.227539"/>
<use xlink:href="#glyph-0-17" x="221.90625" y="292.227539"/>
<use xlink:href="#glyph-0-7" x="224.90625" y="292.227539"/>
<use xlink:href="#glyph-0-8" x="226.90625" y="292.227539"/>
<use xlink:href="#glyph-0-13" x="229.90625" y="292.227539"/>
<use xlink:href="#glyph-0-14" x="236.90625" y="292.227539"/>
</g>
<g fill="rgb(32.156863%, 32.156863%, 32.156863%)" fill-opacity="1">
<use xlink:href="#glyph-0-18" x="311.070312" y="292.227539"/>
<use xlink:href="#glyph-0-19" x="316.070312" y="292.227539"/>
<use xlink:href="#glyph-0-20" x="320.070312" y="292.227539"/>
<use xlink:href="#glyph-0-20" x="325.070312" y="292.227539"/>
<use xlink:href="#glyph-0-19" x="330.070312" y="292.227539"/>
<use xlink:href="#glyph-0-17" x="334.070312" y="292.227539"/>
<use xlink:href="#glyph-0-13" x="337.070312" y="292.227539"/>
<use xlink:href="#glyph-0-19" x="344.070312" y="292.227539"/>
</g>
<g fill="rgb(32.156863%, 32.156863%, 32.156863%)" fill-opacity="1">
<use xlink:href="#glyph-0-21" x="428.234375" y="292.227539"/>
<use xlink:href="#glyph-0-7" x="433.234375" y="292.227539"/>
<use xlink:href="#glyph-0-22" x="435.234375" y="292.227539"/>
<use xlink:href="#glyph-0-14" x="439.234375" y="292.227539"/>
<use xlink:href="#glyph-0-10" x="443.234375" y="292.227539"/>
<use xlink:href="#glyph-0-16" x="447.234375" y="292.227539"/>
<use xlink:href="#glyph-0-7" x="449.234375" y="292.227539"/>
<use xlink:href="#glyph-0-10" x="451.234375" y="292.227539"/>
</g>
<g fill="rgb(0%, 0%, 0%)" fill-opacity="1">
<use xlink:href="#glyph-1-0" x="15.214844" y="169.097656"/>
<use xlink:href="#glyph-1-1" x="15.214844" y="165.097656"/>
<use xlink:href="#glyph-1-1" x="15.214844" y="159.097656"/>
</g>
<path fill-rule="nonzero" fill="rgb(6.666667%, 57.254902%, 90.980392%)" fill-opacity="1" stroke-width="0.426791" stroke-linecap="butt" stroke-linejoin="miter" stroke="rgb(100%, 100%, 100%)" stroke-opacity="1" stroke-miterlimit="10" d="M 189.207031 24.425781 L 204.230469 24.425781 L 204.230469 12.238281 L 189.207031 12.238281 Z M 189.207031 24.425781 "/>
<path fill-rule="nonzero" fill="rgb(41.176471%, 16.078431%, 76.862745%)" fill-opacity="1" stroke-width="0.426791" stroke-linecap="butt" stroke-linejoin="miter" stroke="rgb(100%, 100%, 100%)" stroke-opacity="1" stroke-miterlimit="10" d="M 252.761719 24.425781 L 267.785156 24.425781 L 267.785156 12.238281 L 252.761719 12.238281 Z M 252.761719 24.425781 "/>
<g fill="rgb(0%, 0%, 0%)" fill-opacity="1">
<use xlink:href="#glyph-0-5" x="209.496094" y="20.532227"/>
<use xlink:href="#glyph-0-23" x="214.496094" y="20.532227"/>
<use xlink:href="#glyph-0-16" x="216.496094" y="20.532227"/>
<use xlink:href="#glyph-0-19" x="218.496094" y="20.532227"/>
<use xlink:href="#glyph-0-9" x="222.496094" y="20.532227"/>
<use xlink:href="#glyph-0-23" x="224.496094" y="20.532227"/>
<use xlink:href="#glyph-0-24" x="226.496094" y="20.532227"/>
<use xlink:href="#glyph-0-23" x="230.496094" y="20.532227"/>
<use xlink:href="#glyph-0-9" x="232.496094" y="20.532227"/>
<use xlink:href="#glyph-0-25" x="234.496094" y="20.532227"/>
<use xlink:href="#glyph-0-26" x="237.496094" y="20.532227"/>
<use xlink:href="#glyph-0-26" x="242.496094" y="20.532227"/>
</g>
<g fill="rgb(0%, 0%, 0%)" fill-opacity="1">
<use xlink:href="#glyph-0-27" x="273.050781" y="20.532227"/>
<use xlink:href="#glyph-0-28" x="276.050781" y="20.532227"/>
<use xlink:href="#glyph-0-20" x="281.050781" y="20.532227"/>
<use xlink:href="#glyph-0-19" x="286.050781" y="20.532227"/>
<use xlink:href="#glyph-0-10" x="290.050781" y="20.532227"/>
<use xlink:href="#glyph-0-29" x="294.050781" y="20.532227"/>
<use xlink:href="#glyph-0-30" x="298.050781" y="20.532227"/>
<use xlink:href="#glyph-0-10" x="301.050781" y="20.532227"/>
<use xlink:href="#glyph-0-14" x="305.050781" y="20.532227"/>
<use xlink:href="#glyph-0-8" x="309.050781" y="20.532227"/>
<use xlink:href="#glyph-0-20" x="312.050781" y="20.532227"/>
<use xlink:href="#glyph-0-19" x="317.050781" y="20.532227"/>
<use xlink:href="#glyph-0-6" x="321.050781" y="20.532227"/>
<use xlink:href="#glyph-0-9" x="325.050781" y="20.532227"/>
<use xlink:href="#glyph-0-25" x="327.050781" y="20.532227"/>
<use xlink:href="#glyph-0-26" x="330.050781" y="20.532227"/>
<use xlink:href="#glyph-0-26" x="335.050781" y="20.532227"/>
<use xlink:href="#glyph-0-31" x="340.050781" y="20.532227"/>
<use xlink:href="#glyph-0-2" x="343.050781" y="20.532227"/>
<use xlink:href="#glyph-0-32" x="348.050781" y="20.532227"/>
<use xlink:href="#glyph-0-33" x="350.050781" y="20.532227"/>
<use xlink:href="#glyph-0-34" x="355.050781" y="20.532227"/>
</g>
</svg>
