<?xml version="1.0" encoding="UTF-8"?>
<svg data-carbon-style="IBM Carbon Design System v11" data-carbon-charts-source="carbon-design-system/carbon-charts packages/core/scss" data-font="IBM Plex Sans" data-chart-palette="@carbon/charts white 14" xmlns="http://www.w3.org/2000/svg" xmlns:xlink="http://www.w3.org/1999/xlink" width="518pt" height="302pt" viewBox="0 0 518 302">
<defs>
<style type="text/css"><![CDATA[
.carbon-note{font-family:'IBM Plex Sans', sans-serif;}
.tdl-node,.tdl-connector,.tdl-label-pill,.tdl-flow-number{vector-effect:non-scaling-stroke;}
.tdl-connector{fill:none;}
]]></style>
<g>
<g id="glyph-0-0">
<path d="M 0.75 0 L 0.75 -5.578125 L 4.15625 -5.578125 L 4.15625 -4.984375 L 1.421875 -4.984375 L 1.421875 -3.125 L 3.984375 -3.125 L 3.984375 -2.53125 L 1.421875 -2.53125 L 1.421875 -0.59375 L 4.15625 -0.59375 L 4.15625 0 Z M 0.75 0 "/>
</g>
<g id="glyph-0-1">
<path d="M 5.09375 -4.703125 L 5.0625 -4.703125 L 4.578125 -3.765625 L 3.25 -1.34375 L 1.90625 -3.765625 L 1.4375 -4.703125 L 1.40625 -4.703125 L 1.40625 0 L 0.75 0 L 0.75 -5.578125 L 1.640625 -5.578125 L 3.234375 -2.578125 L 3.28125 -2.578125 L 4.890625 -5.578125 L 5.75 -5.578125 L 5.75 0 L 5.09375 0 Z M 5.09375 -4.703125 "/>
</g>
<g id="glyph-0-2">
<path d="M 0.75 -5.578125 L 3.046875 -5.578125 C 3.503906 -5.578125 3.863281 -5.445312 4.125 -5.1875 C 4.394531 -4.925781 4.53125 -4.578125 4.53125 -4.140625 C 4.53125 -3.929688 4.5 -3.753906 4.4375 -3.609375 C 4.382812 -3.472656 4.3125 -3.359375 4.21875 -3.265625 C 4.125 -3.171875 4.023438 -3.097656 3.921875 -3.046875 C 3.816406 -3.003906 3.71875 -2.972656 3.625 -2.953125 L 3.625 -2.90625 C 3.726562 -2.90625 3.84375 -2.878906 3.96875 -2.828125 C 4.09375 -2.785156 4.207031 -2.710938 4.3125 -2.609375 C 4.425781 -2.503906 4.519531 -2.367188 4.59375 -2.203125 C 4.675781 -2.035156 4.71875 -1.835938 4.71875 -1.609375 C 4.71875 -1.378906 4.679688 -1.164062 4.609375 -0.96875 C 4.535156 -0.78125 4.4375 -0.613281 4.3125 -0.46875 C 4.1875 -0.320312 4.035156 -0.207031 3.859375 -0.125 C 3.679688 -0.0390625 3.488281 0 3.28125 0 L 0.75 0 Z M 1.421875 -0.59375 L 3.078125 -0.59375 C 3.359375 -0.59375 3.582031 -0.664062 3.75 -0.8125 C 3.914062 -0.957031 4 -1.171875 4 -1.453125 L 4 -1.734375 C 4 -2.015625 3.914062 -2.226562 3.75 -2.375 C 3.582031 -2.519531 3.359375 -2.59375 3.078125 -2.59375 L 1.421875 -2.59375 Z M 1.421875 -3.171875 L 2.953125 -3.171875 C 3.222656 -3.171875 3.429688 -3.234375 3.578125 -3.359375 C 3.734375 -3.492188 3.8125 -3.6875 3.8125 -3.9375 L 3.8125 -4.21875 C 3.8125 -4.46875 3.734375 -4.65625 3.578125 -4.78125 C 3.429688 -4.914062 3.222656 -4.984375 2.953125 -4.984375 L 1.421875 -4.984375 Z M 1.421875 -3.171875 "/>
</g>
<g id="glyph-0-3">
<path d="M 1.375 -5.578125 L 1.375 -2.125 C 1.375 -1.59375 1.472656 -1.1875 1.671875 -0.90625 C 1.867188 -0.632812 2.21875 -0.5 2.71875 -0.5 C 3.207031 -0.5 3.550781 -0.632812 3.75 -0.90625 C 3.945312 -1.1875 4.046875 -1.59375 4.046875 -2.125 L 4.046875 -5.578125 L 4.71875 -5.578125 L 4.71875 -2.28125 C 4.71875 -1.882812 4.679688 -1.535156 4.609375 -1.234375 C 4.535156 -0.929688 4.421875 -0.679688 4.265625 -0.484375 C 4.109375 -0.285156 3.898438 -0.140625 3.640625 -0.046875 C 3.378906 0.046875 3.0625 0.09375 2.6875 0.09375 C 2.3125 0.09375 2 0.046875 1.75 -0.046875 C 1.5 -0.140625 1.296875 -0.285156 1.140625 -0.484375 C 0.984375 -0.679688 0.867188 -0.929688 0.796875 -1.234375 C 0.734375 -1.535156 0.703125 -1.882812 0.703125 -2.28125 L 0.703125 -5.578125 Z M 1.375 -5.578125 "/>
</g>
<g id="glyph-0-4">
<path d="M 0.546875 -2.09375 L 0.546875 -2.78125 L 2.640625 -2.78125 L 2.640625 -2.09375 Z M 0.546875 -2.09375 "/>
</g>
<g id="glyph-0-5">
<path d="M 0.75 0 L 0.75 -5.578125 L 2.96875 -5.578125 C 3.46875 -5.578125 3.851562 -5.4375 4.125 -5.15625 C 4.394531 -4.875 4.53125 -4.484375 4.53125 -3.984375 C 4.53125 -3.484375 4.394531 -3.09375 4.125 -2.8125 C 3.851562 -2.53125 3.46875 -2.390625 2.96875 -2.390625 L 1.421875 -2.390625 L 1.421875 0 Z M 1.421875 -2.96875 L 2.96875 -2.96875 C 3.238281 -2.96875 3.445312 -3.035156 3.59375 -3.171875 C 3.738281 -3.316406 3.8125 -3.519531 3.8125 -3.78125 L 3.8125 -4.1875 C 3.8125 -4.445312 3.738281 -4.644531 3.59375 -4.78125 C 3.445312 -4.914062 3.238281 -4.984375 2.96875 -4.984375 L 1.421875 -4.984375 Z M 1.421875 -2.96875 "/>
</g>
<g id="glyph-0-6">
</g>
<g id="glyph-0-7">
<path d="M 2.3125 0.09375 C 1.851562 0.09375 1.460938 0.0078125 1.140625 -0.15625 C 0.828125 -0.332031 0.5625 -0.570312 0.34375 -0.875 L 0.828125 -1.296875 C 1.023438 -1.035156 1.242188 -0.835938 1.484375 -0.703125 C 1.722656 -0.566406 2.007812 -0.5 2.34375 -0.5 C 2.738281 -0.5 3.039062 -0.59375 3.25 -0.78125 C 3.457031 -0.976562 3.5625 -1.234375 3.5625 -1.546875 C 3.5625 -1.816406 3.484375 -2.023438 3.328125 -2.171875 C 3.171875 -2.316406 2.90625 -2.429688 2.53125 -2.515625 L 2.078125 -2.609375 C 1.566406 -2.734375 1.175781 -2.910156 0.90625 -3.140625 C 0.632812 -3.378906 0.5 -3.71875 0.5 -4.15625 C 0.5 -4.394531 0.546875 -4.609375 0.640625 -4.796875 C 0.734375 -4.992188 0.859375 -5.15625 1.015625 -5.28125 C 1.179688 -5.414062 1.375 -5.515625 1.59375 -5.578125 C 1.820312 -5.648438 2.078125 -5.6875 2.359375 -5.6875 C 2.773438 -5.6875 3.132812 -5.609375 3.4375 -5.453125 C 3.738281 -5.296875 3.992188 -5.066406 4.203125 -4.765625 L 3.703125 -4.40625 C 3.546875 -4.613281 3.359375 -4.78125 3.140625 -4.90625 C 2.921875 -5.03125 2.644531 -5.09375 2.3125 -5.09375 C 1.957031 -5.09375 1.675781 -5.015625 1.46875 -4.859375 C 1.269531 -4.703125 1.171875 -4.472656 1.171875 -4.171875 C 1.171875 -3.910156 1.253906 -3.710938 1.421875 -3.578125 C 1.597656 -3.441406 1.863281 -3.332031 2.21875 -3.25 L 2.671875 -3.140625 C 3.222656 -3.015625 3.617188 -2.828125 3.859375 -2.578125 C 4.109375 -2.328125 4.234375 -1.992188 4.234375 -1.578125 C 4.234375 -1.328125 4.1875 -1.097656 4.09375 -0.890625 C 4.007812 -0.679688 3.882812 -0.503906 3.71875 -0.359375 C 3.550781 -0.210938 3.347656 -0.0976562 3.109375 -0.015625 C 2.878906 0.0546875 2.613281 0.09375 2.3125 0.09375 Z M 2.3125 0.09375 "/>
</g>
<g id="glyph-0-8">
<path d="M 0.6875 0 L 0.6875 -4.125 L 1.3125 -4.125 L 1.3125 0 Z M 0.6875 0 "/>
</g>
<g id="glyph-0-9">
<path d="M 2.21875 0.09375 C 1.925781 0.09375 1.664062 0.046875 1.4375 -0.046875 C 1.207031 -0.148438 1.015625 -0.296875 0.859375 -0.484375 C 0.703125 -0.671875 0.582031 -0.894531 0.5 -1.15625 C 0.414062 -1.425781 0.375 -1.726562 0.375 -2.0625 C 0.375 -2.394531 0.414062 -2.691406 0.5 -2.953125 C 0.582031 -3.222656 0.703125 -3.453125 0.859375 -3.640625 C 1.015625 -3.828125 1.207031 -3.96875 1.4375 -4.0625 C 1.664062 -4.164062 1.925781 -4.21875 2.21875 -4.21875 C 2.625 -4.21875 2.953125 -4.128906 3.203125 -3.953125 C 3.453125 -3.773438 3.640625 -3.539062 3.765625 -3.25 L 3.21875 -2.984375 C 3.144531 -3.191406 3.019531 -3.351562 2.84375 -3.46875 C 2.675781 -3.59375 2.46875 -3.65625 2.21875 -3.65625 C 2.019531 -3.65625 1.847656 -3.625 1.703125 -3.5625 C 1.566406 -3.5 1.445312 -3.410156 1.34375 -3.296875 C 1.25 -3.191406 1.175781 -3.0625 1.125 -2.90625 C 1.082031 -2.757812 1.0625 -2.597656 1.0625 -2.421875 L 1.0625 -1.71875 C 1.0625 -1.351562 1.15625 -1.050781 1.34375 -0.8125 C 1.539062 -0.582031 1.832031 -0.46875 2.21875 -0.46875 C 2.726562 -0.46875 3.101562 -0.707031 3.34375 -1.1875 L 3.796875 -0.875 C 3.660156 -0.582031 3.460938 -0.347656 3.203125 -0.171875 C 2.941406 0.00390625 2.613281 0.09375 2.21875 0.09375 Z M 2.21875 0.09375 "/>
</g>
<g id="glyph-0-10">
<path d="M 3.6875 0 C 3.4375 0 3.257812 -0.0625 3.15625 -0.1875 C 3.0625 -0.320312 3 -0.484375 2.96875 -0.671875 L 2.921875 -0.671875 C 2.835938 -0.410156 2.691406 -0.21875 2.484375 -0.09375 C 2.273438 0.03125 2.023438 0.09375 1.734375 0.09375 C 1.296875 0.09375 0.957031 -0.015625 0.71875 -0.234375 C 0.476562 -0.460938 0.359375 -0.769531 0.359375 -1.15625 C 0.359375 -1.539062 0.5 -1.835938 0.78125 -2.046875 C 1.0625 -2.253906 1.503906 -2.359375 2.109375 -2.359375 L 2.921875 -2.359375 L 2.921875 -2.765625 C 2.921875 -3.054688 2.84375 -3.28125 2.6875 -3.4375 C 2.53125 -3.59375 2.285156 -3.671875 1.953125 -3.671875 C 1.703125 -3.671875 1.492188 -3.613281 1.328125 -3.5 C 1.160156 -3.394531 1.019531 -3.25 0.90625 -3.0625 L 0.515625 -3.421875 C 0.628906 -3.640625 0.804688 -3.828125 1.046875 -3.984375 C 1.296875 -4.140625 1.609375 -4.21875 1.984375 -4.21875 C 2.484375 -4.21875 2.867188 -4.09375 3.140625 -3.84375 C 3.421875 -3.601562 3.5625 -3.265625 3.5625 -2.828125 L 3.5625 -0.5625 L 4.046875 -0.5625 L 4.046875 0 Z M 1.84375 -0.453125 C 2 -0.453125 2.144531 -0.46875 2.28125 -0.5 C 2.414062 -0.539062 2.53125 -0.59375 2.625 -0.65625 C 2.71875 -0.726562 2.789062 -0.8125 2.84375 -0.90625 C 2.894531 -1 2.921875 -1.097656 2.921875 -1.203125 L 2.921875 -1.875 L 2.078125 -1.875 C 1.710938 -1.875 1.445312 -1.820312 1.28125 -1.71875 C 1.113281 -1.613281 1.03125 -1.457031 1.03125 -1.25 L 1.03125 -1.09375 C 1.03125 -0.882812 1.101562 -0.722656 1.25 -0.609375 C 1.394531 -0.503906 1.59375 -0.453125 1.84375 -0.453125 Z M 1.84375 -0.453125 "/>
</g>
<g id="glyph-0-11">
<path d="M 0.6875 -5.921875 L 1.3125 -5.921875 L 1.3125 -2.171875 L 1.359375 -2.171875 L 1.984375 -2.875 L 3.15625 -4.125 L 3.921875 -4.125 L 2.40625 -2.5 L 4.078125 0 L 3.296875 0 L 1.9375 -2.109375 L 1.3125 -1.46875 L 1.3125 0 L 0.6875 0 Z M 0.6875 -5.921875 "/>
</g>
<g id="glyph-0-12">
<path d="M 1.359375 0 C 1.140625 0 0.972656 -0.0625 0.859375 -0.1875 C 0.742188 -0.3125 0.6875 -0.46875 0.6875 -0.65625 L 0.6875 -5.921875 L 1.3125 -5.921875 L 1.3125 -0.5625 L 1.921875 -0.5625 L 1.921875 0 Z M 1.359375 0 "/>
</g>
<g id="glyph-0-13">
<path d="M 0.171875 0 L 1.703125 -2.078125 L 0.234375 -4.125 L 0.984375 -4.125 L 2.03125 -2.59375 L 2.0625 -2.59375 L 3.140625 -4.125 L 3.859375 -4.125 L 2.40625 -2.125 L 3.890625 0 L 3.140625 0 L 2.0625 -1.609375 L 2.046875 -1.609375 L 0.875 0 Z M 0.171875 0 "/>
</g>
<g id="glyph-0-14">
<path d="M 2.234375 0.09375 C 1.953125 0.09375 1.695312 0.046875 1.46875 -0.046875 C 1.238281 -0.148438 1.039062 -0.296875 0.875 -0.484375 C 0.71875 -0.679688 0.59375 -0.910156 0.5 -1.171875 C 0.414062 -1.429688 0.375 -1.726562 0.375 -2.0625 C 0.375 -2.382812 0.414062 -2.679688 0.5 -2.953125 C 0.59375 -3.222656 0.71875 -3.453125 0.875 -3.640625 C 1.039062 -3.828125 1.238281 -3.96875 1.46875 -4.0625 C 1.695312 -4.164062 1.953125 -4.21875 2.234375 -4.21875 C 2.503906 -4.21875 2.75 -4.164062 2.96875 -4.0625 C 3.1875 -3.96875 3.375 -3.832031 3.53125 -3.65625 C 3.6875 -3.476562 3.804688 -3.265625 3.890625 -3.015625 C 3.972656 -2.765625 4.015625 -2.492188 4.015625 -2.203125 L 4.015625 -1.90625 L 1.046875 -1.90625 L 1.046875 -1.71875 C 1.046875 -1.539062 1.070312 -1.375 1.125 -1.21875 C 1.1875 -1.0625 1.269531 -0.925781 1.375 -0.8125 C 1.476562 -0.707031 1.601562 -0.625 1.75 -0.5625 C 1.90625 -0.5 2.078125 -0.46875 2.265625 -0.46875 C 2.523438 -0.46875 2.753906 -0.523438 2.953125 -0.640625 C 3.148438 -0.765625 3.300781 -0.941406 3.40625 -1.171875 L 3.859375 -0.84375 C 3.722656 -0.5625 3.515625 -0.332031 3.234375 -0.15625 C 2.953125 0.0078125 2.617188 0.09375 2.234375 0.09375 Z M 2.234375 -3.6875 C 2.054688 -3.6875 1.894531 -3.65625 1.75 -3.59375 C 1.601562 -3.53125 1.476562 -3.441406 1.375 -3.328125 C 1.269531 -3.222656 1.1875 -3.09375 1.125 -2.9375 C 1.070312 -2.789062 1.046875 -2.625 1.046875 -2.4375 L 1.046875 -2.390625 L 3.328125 -2.390625 L 3.328125 -2.46875 C 3.328125 -2.84375 3.226562 -3.140625 3.03125 -3.359375 C 2.832031 -3.578125 2.566406 -3.6875 2.234375 -3.6875 Z M 2.234375 -3.6875 "/>
</g>
<g id="glyph-0-15">
<path d="M 2.71875 0.09375 C 2 0.09375 1.441406 -0.144531 1.046875 -0.625 C 0.660156 -1.113281 0.46875 -1.828125 0.46875 -2.765625 C 0.46875 -3.703125 0.660156 -4.421875 1.046875 -4.921875 C 1.441406 -5.429688 2 -5.6875 2.71875 -5.6875 C 3.1875 -5.6875 3.578125 -5.578125 3.890625 -5.359375 C 4.210938 -5.148438 4.457031 -4.847656 4.625 -4.453125 L 4.09375 -4.125 C 3.976562 -4.414062 3.804688 -4.644531 3.578125 -4.8125 C 3.347656 -4.988281 3.0625 -5.078125 2.71875 -5.078125 C 2.476562 -5.078125 2.257812 -5.03125 2.0625 -4.9375 C 1.875 -4.851562 1.710938 -4.722656 1.578125 -4.546875 C 1.453125 -4.378906 1.351562 -4.179688 1.28125 -3.953125 C 1.21875 -3.722656 1.1875 -3.460938 1.1875 -3.171875 L 1.1875 -2.34375 C 1.1875 -1.769531 1.316406 -1.316406 1.578125 -0.984375 C 1.847656 -0.660156 2.226562 -0.5 2.71875 -0.5 C 3.070312 -0.5 3.367188 -0.59375 3.609375 -0.78125 C 3.847656 -0.96875 4.023438 -1.210938 4.140625 -1.515625 L 4.671875 -1.171875 C 4.492188 -0.773438 4.238281 -0.460938 3.90625 -0.234375 C 3.582031 -0.015625 3.1875 0.09375 2.71875 0.09375 Z M 2.71875 0.09375 "/>
</g>
<g id="glyph-0-16">
<path d="M 2.203125 -2.75 L 1.421875 -1.859375 L 1.421875 0 L 0.75 0 L 0.75 -5.578125 L 1.421875 -5.578125 L 1.421875 -2.609375 L 1.4375 -2.609375 L 2.234375 -3.578125 L 3.921875 -5.578125 L 4.75 -5.578125 L 2.671875 -3.1875 L 4.890625 0 L 4.0625 0 Z M 2.203125 -2.75 "/>
</g>
<g id="glyph-0-17">
<path d="M 0.6875 0 L 0.6875 -4.125 L 1.3125 -4.125 L 1.3125 -3.375 L 1.359375 -3.375 C 1.429688 -3.5625 1.5625 -3.734375 1.75 -3.890625 C 1.945312 -4.046875 2.210938 -4.125 2.546875 -4.125 L 2.796875 -4.125 L 2.796875 -3.484375 L 2.421875 -3.484375 C 2.078125 -3.484375 1.804688 -3.414062 1.609375 -3.28125 C 1.410156 -3.15625 1.3125 -2.992188 1.3125 -2.796875 L 1.3125 0 Z M 0.6875 0 "/>
</g>
<g id="glyph-0-18">
<path d="M 2.015625 1.65625 C 1.796875 1.65625 1.625 1.617188 1.5 1.546875 C 1.375 1.472656 1.28125 1.398438 1.21875 1.328125 L 1.53125 1 C 1.570312 1.0625 1.632812 1.113281 1.71875 1.15625 C 1.800781 1.195312 1.898438 1.21875 2.015625 1.21875 C 2.117188 1.21875 2.203125 1.195312 2.265625 1.15625 C 2.335938 1.125 2.375 1.0625 2.375 0.96875 C 2.375 0.894531 2.335938 0.832031 2.265625 0.78125 C 2.191406 0.726562 2.046875 0.679688 1.828125 0.640625 L 1.59375 0.609375 L 1.703125 0.09375 C 1.378906 0.0625 1.101562 -0.0195312 0.875 -0.15625 C 0.644531 -0.300781 0.445312 -0.488281 0.28125 -0.71875 L 0.75 -1.078125 C 0.90625 -0.878906 1.082031 -0.722656 1.28125 -0.609375 C 1.476562 -0.503906 1.707031 -0.453125 1.96875 -0.453125 C 2.238281 -0.453125 2.445312 -0.507812 2.59375 -0.625 C 2.75 -0.738281 2.828125 -0.90625 2.828125 -1.125 C 2.828125 -1.28125 2.773438 -1.414062 2.671875 -1.53125 C 2.566406 -1.644531 2.378906 -1.722656 2.109375 -1.765625 L 1.78125 -1.8125 C 1.59375 -1.84375 1.414062 -1.882812 1.25 -1.9375 C 1.09375 -2 0.953125 -2.070312 0.828125 -2.15625 C 0.710938 -2.25 0.617188 -2.363281 0.546875 -2.5 C 0.484375 -2.644531 0.453125 -2.816406 0.453125 -3.015625 C 0.453125 -3.210938 0.488281 -3.382812 0.5625 -3.53125 C 0.644531 -3.6875 0.75 -3.816406 0.875 -3.921875 C 1.007812 -4.023438 1.164062 -4.097656 1.34375 -4.140625 C 1.519531 -4.191406 1.710938 -4.21875 1.921875 -4.21875 C 2.265625 -4.21875 2.546875 -4.160156 2.765625 -4.046875 C 2.992188 -3.929688 3.195312 -3.769531 3.375 -3.5625 L 2.9375 -3.171875 C 2.851562 -3.304688 2.722656 -3.425781 2.546875 -3.53125 C 2.367188 -3.632812 2.144531 -3.6875 1.875 -3.6875 C 1.613281 -3.6875 1.414062 -3.628906 1.28125 -3.515625 C 1.144531 -3.398438 1.078125 -3.242188 1.078125 -3.046875 C 1.078125 -2.835938 1.144531 -2.6875 1.28125 -2.59375 C 1.414062 -2.507812 1.609375 -2.445312 1.859375 -2.40625 L 2.1875 -2.359375 C 2.644531 -2.285156 2.96875 -2.148438 3.15625 -1.953125 C 3.351562 -1.753906 3.453125 -1.5 3.453125 -1.1875 C 3.453125 -0.8125 3.332031 -0.507812 3.09375 -0.28125 C 2.851562 -0.0625 2.523438 0.0625 2.109375 0.09375 L 2.03125 0.484375 L 2.046875 0.515625 C 2.148438 0.484375 2.253906 0.46875 2.359375 0.46875 C 2.515625 0.46875 2.644531 0.507812 2.75 0.59375 C 2.851562 0.6875 2.90625 0.816406 2.90625 0.984375 C 2.90625 1.097656 2.878906 1.195312 2.828125 1.28125 C 2.785156 1.375 2.722656 1.445312 2.640625 1.5 C 2.554688 1.550781 2.457031 1.585938 2.34375 1.609375 C 2.238281 1.640625 2.128906 1.65625 2.015625 1.65625 Z M 2.015625 1.65625 "/>
</g>
<g id="glyph-0-19">
<path d="M 1.59375 0 C 1.363281 0 1.191406 -0.0625 1.078125 -0.1875 C 0.960938 -0.3125 0.90625 -0.476562 0.90625 -0.6875 L 0.90625 -3.5625 L 0.234375 -3.5625 L 0.234375 -4.125 L 0.609375 -4.125 C 0.753906 -4.125 0.847656 -4.148438 0.890625 -4.203125 C 0.941406 -4.265625 0.96875 -4.363281 0.96875 -4.5 L 0.96875 -5.265625 L 1.546875 -5.265625 L 1.546875 -4.125 L 2.453125 -4.125 L 2.453125 -3.5625 L 1.546875 -3.5625 L 1.546875 -0.5625 L 2.390625 -0.5625 L 2.390625 0 Z M 1.59375 0 "/>
</g>
<g id="glyph-0-20">
<path d="M 0.6875 0 L 0.6875 -4.125 L 1.3125 -4.125 L 1.3125 -3.453125 L 1.359375 -3.453125 C 1.398438 -3.554688 1.453125 -3.65625 1.515625 -3.75 C 1.578125 -3.84375 1.648438 -3.925781 1.734375 -4 C 1.828125 -4.070312 1.929688 -4.125 2.046875 -4.15625 C 2.160156 -4.195312 2.300781 -4.21875 2.46875 -4.21875 C 2.738281 -4.21875 2.988281 -4.148438 3.21875 -4.015625 C 3.445312 -3.890625 3.617188 -3.679688 3.734375 -3.390625 L 3.75 -3.390625 C 3.820312 -3.609375 3.957031 -3.800781 4.15625 -3.96875 C 4.363281 -4.132812 4.644531 -4.21875 5 -4.21875 C 5.414062 -4.21875 5.742188 -4.082031 5.984375 -3.8125 C 6.222656 -3.539062 6.34375 -3.148438 6.34375 -2.640625 L 6.34375 0 L 5.703125 0 L 5.703125 -2.53125 C 5.703125 -2.90625 5.628906 -3.179688 5.484375 -3.359375 C 5.335938 -3.546875 5.109375 -3.640625 4.796875 -3.640625 C 4.671875 -3.640625 4.550781 -3.625 4.4375 -3.59375 C 4.320312 -3.5625 4.21875 -3.515625 4.125 -3.453125 C 4.03125 -3.390625 3.957031 -3.304688 3.90625 -3.203125 C 3.851562 -3.109375 3.828125 -2.992188 3.828125 -2.859375 L 3.828125 0 L 3.1875 0 L 3.1875 -2.53125 C 3.1875 -2.90625 3.113281 -3.179688 2.96875 -3.359375 C 2.832031 -3.546875 2.609375 -3.640625 2.296875 -3.640625 C 2.171875 -3.640625 2.050781 -3.625 1.9375 -3.59375 C 1.820312 -3.5625 1.71875 -3.515625 1.625 -3.453125 C 1.53125 -3.390625 1.453125 -3.304688 1.390625 -3.203125 C 1.335938 -3.109375 1.3125 -2.992188 1.3125 -2.859375 L 1.3125 0 Z M 0.6875 0 "/>
</g>
<g id="glyph-0-21">
<path d="M 1.421875 0 L 0.75 0 L 0.75 -5.578125 L 2.96875 -5.578125 C 3.457031 -5.578125 3.835938 -5.441406 4.109375 -5.171875 C 4.390625 -4.898438 4.53125 -4.507812 4.53125 -4 C 4.53125 -3.59375 4.429688 -3.253906 4.234375 -2.984375 C 4.046875 -2.722656 3.769531 -2.550781 3.40625 -2.46875 L 4.6875 0 L 3.921875 0 L 2.71875 -2.40625 L 1.421875 -2.40625 Z M 2.96875 -2.96875 C 3.238281 -2.96875 3.445312 -3.035156 3.59375 -3.171875 C 3.738281 -3.316406 3.8125 -3.519531 3.8125 -3.78125 L 3.8125 -4.1875 C 3.8125 -4.445312 3.738281 -4.644531 3.59375 -4.78125 C 3.445312 -4.914062 3.238281 -4.984375 2.96875 -4.984375 L 1.421875 -4.984375 L 1.421875 -2.96875 Z M 2.96875 -2.96875 "/>
</g>
<g id="glyph-0-22">
<path d="M 4.0625 1.3125 L 3.234375 1.3125 C 3.015625 1.3125 2.847656 1.25 2.734375 1.125 C 2.617188 1 2.5625 0.84375 2.5625 0.65625 L 2.5625 0.09375 C 2.25 0.0625 1.957031 -0.0195312 1.6875 -0.15625 C 1.425781 -0.300781 1.207031 -0.492188 1.03125 -0.734375 C 0.851562 -0.984375 0.710938 -1.28125 0.609375 -1.625 C 0.515625 -1.96875 0.46875 -2.359375 0.46875 -2.796875 C 0.46875 -3.265625 0.519531 -3.675781 0.625 -4.03125 C 0.738281 -4.382812 0.898438 -4.679688 1.109375 -4.921875 C 1.316406 -5.171875 1.5625 -5.359375 1.84375 -5.484375 C 2.132812 -5.617188 2.460938 -5.6875 2.828125 -5.6875 C 3.191406 -5.6875 3.519531 -5.617188 3.8125 -5.484375 C 4.101562 -5.359375 4.347656 -5.171875 4.546875 -4.921875 C 4.753906 -4.679688 4.914062 -4.382812 5.03125 -4.03125 C 5.144531 -3.675781 5.203125 -3.265625 5.203125 -2.796875 C 5.203125 -1.929688 5.019531 -1.257812 4.65625 -0.78125 C 4.300781 -0.300781 3.816406 -0.015625 3.203125 0.078125 L 3.203125 0.75 L 4.0625 0.75 Z M 2.828125 -0.5 C 3.066406 -0.5 3.285156 -0.539062 3.484375 -0.625 C 3.691406 -0.71875 3.867188 -0.84375 4.015625 -1 C 4.160156 -1.15625 4.273438 -1.34375 4.359375 -1.5625 C 4.441406 -1.789062 4.484375 -2.046875 4.484375 -2.328125 L 4.484375 -3.25 C 4.484375 -3.53125 4.441406 -3.78125 4.359375 -4 C 4.273438 -4.226562 4.160156 -4.421875 4.015625 -4.578125 C 3.867188 -4.742188 3.691406 -4.867188 3.484375 -4.953125 C 3.285156 -5.035156 3.066406 -5.078125 2.828125 -5.078125 C 2.585938 -5.078125 2.363281 -5.035156 2.15625 -4.953125 C 1.957031 -4.867188 1.785156 -4.742188 1.640625 -4.578125 C 1.492188 -4.421875 1.378906 -4.226562 1.296875 -4 C 1.222656 -3.78125 1.1875 -3.53125 1.1875 -3.25 L 1.1875 -2.328125 C 1.1875 -2.046875 1.222656 -1.789062 1.296875 -1.5625 C 1.378906 -1.34375 1.492188 -1.15625 1.640625 -1 C 1.785156 -0.84375 1.957031 -0.71875 2.15625 -0.625 C 2.363281 -0.539062 2.585938 -0.5 2.828125 -0.5 Z M 2.828125 -0.5 "/>
</g>
<g id="glyph-0-23">
<path d="M 0.078125 1.203125 L 2.15625 -5.921875 L 2.734375 -5.921875 L 0.640625 1.203125 Z M 0.078125 1.203125 "/>
</g>
<g id="glyph-0-24">
<path d="M 2.03125 0 L 2.03125 -2.203125 L 0.109375 -5.578125 L 0.875 -5.578125 L 2.359375 -2.890625 L 2.390625 -2.890625 L 3.875 -5.578125 L 4.640625 -5.578125 L 2.703125 -2.234375 L 2.703125 0 Z M 2.03125 0 "/>
</g>
<g id="glyph-0-25">
<path d="M 0.6875 0 L 0.6875 -4.125 L 1.3125 -4.125 L 1.3125 -3.453125 L 1.359375 -3.453125 C 1.453125 -3.691406 1.59375 -3.878906 1.78125 -4.015625 C 1.96875 -4.148438 2.210938 -4.21875 2.515625 -4.21875 C 2.941406 -4.21875 3.28125 -4.082031 3.53125 -3.8125 C 3.78125 -3.539062 3.90625 -3.148438 3.90625 -2.640625 L 3.90625 0 L 3.265625 0 L 3.265625 -2.53125 C 3.265625 -3.269531 2.953125 -3.640625 2.328125 -3.640625 C 2.203125 -3.640625 2.078125 -3.625 1.953125 -3.59375 C 1.835938 -3.5625 1.726562 -3.515625 1.625 -3.453125 C 1.53125 -3.390625 1.453125 -3.304688 1.390625 -3.203125 C 1.335938 -3.109375 1.3125 -2.992188 1.3125 -2.859375 L 1.3125 0 Z M 0.6875 0 "/>
</g>
<g id="glyph-0-26">
<path d="M 2.71875 -5.078125 C 2.476562 -5.078125 2.257812 -5.03125 2.0625 -4.9375 C 1.875 -4.851562 1.710938 -4.722656 1.578125 -4.546875 C 1.453125 -4.378906 1.351562 -4.179688 1.28125 -3.953125 C 1.21875 -3.722656 1.1875 -3.460938 1.1875 -3.171875 L 1.1875 -2.34375 C 1.1875 -1.769531 1.316406 -1.316406 1.578125 -0.984375 C 1.847656 -0.660156 2.226562 -0.5 2.71875 -0.5 C 3.070312 -0.5 3.367188 -0.59375 3.609375 -0.78125 C 3.847656 -0.96875 4.023438 -1.210938 4.140625 -1.515625 L 4.671875 -1.171875 C 4.503906 -0.804688 4.269531 -0.507812 3.96875 -0.28125 C 3.664062 -0.0625 3.304688 0.0625 2.890625 0.09375 L 2.8125 0.484375 L 2.828125 0.515625 C 2.929688 0.484375 3.035156 0.46875 3.140625 0.46875 C 3.296875 0.46875 3.425781 0.507812 3.53125 0.59375 C 3.632812 0.6875 3.6875 0.816406 3.6875 0.984375 C 3.6875 1.097656 3.660156 1.195312 3.609375 1.28125 C 3.566406 1.375 3.503906 1.445312 3.421875 1.5 C 3.335938 1.550781 3.238281 1.585938 3.125 1.609375 C 3.019531 1.640625 2.910156 1.65625 2.796875 1.65625 C 2.578125 1.65625 2.40625 1.617188 2.28125 1.546875 C 2.15625 1.472656 2.066406 1.398438 2.015625 1.328125 L 2.3125 1 C 2.363281 1.0625 2.425781 1.113281 2.5 1.15625 C 2.582031 1.195312 2.679688 1.21875 2.796875 1.21875 C 2.898438 1.21875 2.984375 1.195312 3.046875 1.15625 C 3.117188 1.125 3.15625 1.0625 3.15625 0.96875 C 3.15625 0.894531 3.117188 0.832031 3.046875 0.78125 C 2.972656 0.726562 2.828125 0.679688 2.609375 0.640625 L 2.390625 0.609375 L 2.484375 0.09375 C 1.847656 0.0390625 1.351562 -0.222656 1 -0.703125 C 0.644531 -1.179688 0.46875 -1.867188 0.46875 -2.765625 C 0.46875 -3.703125 0.660156 -4.421875 1.046875 -4.921875 C 1.441406 -5.429688 2 -5.6875 2.71875 -5.6875 C 3.1875 -5.6875 3.578125 -5.578125 3.890625 -5.359375 C 4.210938 -5.148438 4.457031 -4.847656 4.625 -4.453125 L 4.09375 -4.125 C 3.976562 -4.414062 3.804688 -4.644531 3.578125 -4.8125 C 3.347656 -4.988281 3.0625 -5.078125 2.71875 -5.078125 Z M 2.71875 -5.078125 "/>
</g>
<g id="glyph-0-27">
<path d="M 2.234375 0.09375 C 1.960938 0.09375 1.710938 0.046875 1.484375 -0.046875 C 1.253906 -0.148438 1.054688 -0.296875 0.890625 -0.484375 C 0.722656 -0.679688 0.59375 -0.910156 0.5 -1.171875 C 0.414062 -1.429688 0.375 -1.726562 0.375 -2.0625 C 0.375 -2.382812 0.414062 -2.679688 0.5 -2.953125 C 0.59375 -3.222656 0.722656 -3.453125 0.890625 -3.640625 C 1.054688 -3.828125 1.253906 -3.96875 1.484375 -4.0625 C 1.710938 -4.164062 1.960938 -4.21875 2.234375 -4.21875 C 2.515625 -4.21875 2.769531 -4.164062 3 -4.0625 C 3.226562 -3.96875 3.421875 -3.828125 3.578125 -3.640625 C 3.742188 -3.453125 3.875 -3.222656 3.96875 -2.953125 C 4.0625 -2.679688 4.109375 -2.382812 4.109375 -2.0625 C 4.109375 -1.726562 4.0625 -1.429688 3.96875 -1.171875 C 3.875 -0.910156 3.742188 -0.679688 3.578125 -0.484375 C 3.421875 -0.296875 3.226562 -0.148438 3 -0.046875 C 2.769531 0.046875 2.515625 0.09375 2.234375 0.09375 Z M 2.234375 -0.46875 C 2.585938 -0.46875 2.875 -0.570312 3.09375 -0.78125 C 3.3125 -1 3.421875 -1.328125 3.421875 -1.765625 L 3.421875 -2.359375 C 3.421875 -2.796875 3.3125 -3.117188 3.09375 -3.328125 C 2.875 -3.546875 2.585938 -3.65625 2.234375 -3.65625 C 1.890625 -3.65625 1.609375 -3.546875 1.390625 -3.328125 C 1.171875 -3.117188 1.0625 -2.796875 1.0625 -2.359375 L 1.0625 -1.765625 C 1.0625 -1.328125 1.171875 -1 1.390625 -0.78125 C 1.609375 -0.570312 1.890625 -0.46875 2.234375 -0.46875 Z M 2.234375 -0.46875 "/>
</g>
<g id="glyph-0-28">
<path d="M 0.6875 -4.125 L 1.3125 -4.125 L 1.3125 -3.453125 L 1.359375 -3.453125 C 1.460938 -3.710938 1.613281 -3.90625 1.8125 -4.03125 C 2.019531 -4.15625 2.269531 -4.21875 2.5625 -4.21875 C 2.8125 -4.21875 3.039062 -4.164062 3.25 -4.0625 C 3.457031 -3.96875 3.632812 -3.828125 3.78125 -3.640625 C 3.9375 -3.453125 4.050781 -3.222656 4.125 -2.953125 C 4.195312 -2.691406 4.234375 -2.394531 4.234375 -2.0625 C 4.234375 -1.726562 4.195312 -1.425781 4.125 -1.15625 C 4.050781 -0.894531 3.9375 -0.671875 3.78125 -0.484375 C 3.632812 -0.296875 3.457031 -0.148438 3.25 -0.046875 C 3.039062 0.046875 2.8125 0.09375 2.5625 0.09375 C 2 0.09375 1.597656 -0.160156 1.359375 -0.671875 L 1.3125 -0.671875 L 1.3125 1.59375 L 0.6875 1.59375 Z M 2.390625 -0.484375 C 2.742188 -0.484375 3.023438 -0.59375 3.234375 -0.8125 C 3.441406 -1.039062 3.546875 -1.34375 3.546875 -1.71875 L 3.546875 -2.421875 C 3.546875 -2.785156 3.441406 -3.078125 3.234375 -3.296875 C 3.023438 -3.523438 2.742188 -3.640625 2.390625 -3.640625 C 2.242188 -3.640625 2.101562 -3.617188 1.96875 -3.578125 C 1.84375 -3.546875 1.726562 -3.492188 1.625 -3.421875 C 1.53125 -3.347656 1.453125 -3.265625 1.390625 -3.171875 C 1.335938 -3.078125 1.3125 -2.972656 1.3125 -2.859375 L 1.3125 -1.3125 C 1.3125 -1.1875 1.335938 -1.070312 1.390625 -0.96875 C 1.453125 -0.863281 1.53125 -0.773438 1.625 -0.703125 C 1.726562 -0.628906 1.84375 -0.570312 1.96875 -0.53125 C 2.101562 -0.5 2.242188 -0.484375 2.390625 -0.484375 Z M 2.390625 -0.484375 "/>
</g>
<g id="glyph-0-29">
<path d="M 3.21875 -0.671875 L 3.1875 -0.671875 C 3.144531 -0.578125 3.09375 -0.484375 3.03125 -0.390625 C 2.96875 -0.296875 2.890625 -0.210938 2.796875 -0.140625 C 2.710938 -0.0664062 2.601562 -0.0078125 2.46875 0.03125 C 2.34375 0.0703125 2.195312 0.09375 2.03125 0.09375 C 1.601562 0.09375 1.265625 -0.0390625 1.015625 -0.3125 C 0.765625 -0.59375 0.640625 -0.984375 0.640625 -1.484375 L 0.640625 -4.125 L 1.28125 -4.125 L 1.28125 -1.59375 C 1.28125 -0.851562 1.59375 -0.484375 2.21875 -0.484375 C 2.351562 -0.484375 2.476562 -0.5 2.59375 -0.53125 C 2.71875 -0.5625 2.828125 -0.609375 2.921875 -0.671875 C 3.015625 -0.734375 3.085938 -0.8125 3.140625 -0.90625 C 3.191406 -1.007812 3.21875 -1.128906 3.21875 -1.265625 L 3.21875 -4.125 L 3.859375 -4.125 L 3.859375 0 L 3.21875 0 Z M 1.515625 -4.9375 C 1.378906 -4.9375 1.28125 -4.96875 1.21875 -5.03125 C 1.15625 -5.101562 1.125 -5.195312 1.125 -5.3125 L 1.125 -5.40625 C 1.125 -5.507812 1.15625 -5.59375 1.21875 -5.65625 C 1.28125 -5.726562 1.378906 -5.765625 1.515625 -5.765625 C 1.648438 -5.765625 1.75 -5.726562 1.8125 -5.65625 C 1.875 -5.59375 1.90625 -5.507812 1.90625 -5.40625 L 1.90625 -5.3125 C 1.90625 -5.195312 1.875 -5.101562 1.8125 -5.03125 C 1.75 -4.96875 1.648438 -4.9375 1.515625 -4.9375 Z M 3 -4.9375 C 2.863281 -4.9375 2.765625 -4.96875 2.703125 -5.03125 C 2.640625 -5.101562 2.609375 -5.195312 2.609375 -5.3125 L 2.609375 -5.40625 C 2.609375 -5.507812 2.640625 -5.59375 2.703125 -5.65625 C 2.765625 -5.726562 2.863281 -5.765625 3 -5.765625 C 3.144531 -5.765625 3.242188 -5.726562 3.296875 -5.65625 C 3.359375 -5.59375 3.390625 -5.507812 3.390625 -5.40625 L 3.390625 -5.3125 C 3.390625 -5.195312 3.359375 -5.101562 3.296875 -5.03125 C 3.242188 -4.96875 3.144531 -4.9375 3 -4.9375 Z M 3 -4.9375 "/>
</g>
<g id="glyph-0-30">
<path d="M 4.359375 -0.8125 L 4.34375 -0.8125 C 4.269531 -0.550781 4.097656 -0.332031 3.828125 -0.15625 C 3.554688 0.0078125 3.207031 0.09375 2.78125 0.09375 C 2.4375 0.09375 2.125 0.03125 1.84375 -0.09375 C 1.5625 -0.21875 1.316406 -0.398438 1.109375 -0.640625 C 0.910156 -0.890625 0.753906 -1.191406 0.640625 -1.546875 C 0.523438 -1.910156 0.46875 -2.328125 0.46875 -2.796875 C 0.46875 -3.253906 0.519531 -3.660156 0.625 -4.015625 C 0.738281 -4.378906 0.898438 -4.679688 1.109375 -4.921875 C 1.316406 -5.171875 1.566406 -5.359375 1.859375 -5.484375 C 2.148438 -5.617188 2.476562 -5.6875 2.84375 -5.6875 C 3.34375 -5.6875 3.757812 -5.570312 4.09375 -5.34375 C 4.425781 -5.125 4.6875 -4.828125 4.875 -4.453125 L 4.3125 -4.125 C 4.1875 -4.414062 4 -4.644531 3.75 -4.8125 C 3.5 -4.988281 3.195312 -5.078125 2.84375 -5.078125 C 2.59375 -5.078125 2.363281 -5.03125 2.15625 -4.9375 C 1.957031 -4.851562 1.785156 -4.734375 1.640625 -4.578125 C 1.492188 -4.421875 1.378906 -4.226562 1.296875 -4 C 1.222656 -3.769531 1.1875 -3.519531 1.1875 -3.25 L 1.1875 -2.34375 C 1.1875 -2.0625 1.222656 -1.804688 1.296875 -1.578125 C 1.378906 -1.359375 1.492188 -1.164062 1.640625 -1 C 1.785156 -0.84375 1.960938 -0.71875 2.171875 -0.625 C 2.390625 -0.539062 2.632812 -0.5 2.90625 -0.5 C 3.09375 -0.5 3.273438 -0.523438 3.453125 -0.578125 C 3.628906 -0.628906 3.78125 -0.703125 3.90625 -0.796875 C 4.039062 -0.898438 4.144531 -1.03125 4.21875 -1.1875 C 4.289062 -1.34375 4.328125 -1.523438 4.328125 -1.734375 L 4.328125 -2.28125 L 3.09375 -2.28125 L 3.09375 -2.875 L 4.984375 -2.875 L 4.984375 0 L 4.359375 0 Z M 4.359375 -0.8125 "/>
</g>
<g id="glyph-0-31">
<path d="M 2.21875 -4.21875 C 2.625 -4.21875 2.953125 -4.128906 3.203125 -3.953125 C 3.453125 -3.773438 3.640625 -3.546875 3.765625 -3.265625 L 3.21875 -2.984375 C 3.144531 -3.191406 3.019531 -3.351562 2.84375 -3.46875 C 2.675781 -3.59375 2.46875 -3.65625 2.21875 -3.65625 C 2.019531 -3.65625 1.847656 -3.625 1.703125 -3.5625 C 1.566406 -3.5 1.445312 -3.410156 1.34375 -3.296875 C 1.25 -3.191406 1.175781 -3.0625 1.125 -2.90625 C 1.082031 -2.757812 1.0625 -2.597656 1.0625 -2.421875 L 1.0625 -1.71875 C 1.0625 -1.351562 1.15625 -1.050781 1.34375 -0.8125 C 1.539062 -0.582031 1.832031 -0.46875 2.21875 -0.46875 C 2.726562 -0.46875 3.101562 -0.707031 3.34375 -1.1875 L 3.796875 -0.875 C 3.671875 -0.601562 3.488281 -0.378906 3.25 -0.203125 C 3.019531 -0.0351562 2.734375 0.0625 2.390625 0.09375 L 2.3125 0.484375 L 2.34375 0.515625 C 2.4375 0.484375 2.535156 0.46875 2.640625 0.46875 C 2.796875 0.46875 2.925781 0.507812 3.03125 0.59375 C 3.132812 0.6875 3.1875 0.816406 3.1875 0.984375 C 3.1875 1.097656 3.160156 1.195312 3.109375 1.28125 C 3.066406 1.375 3.003906 1.445312 2.921875 1.5 C 2.835938 1.550781 2.742188 1.585938 2.640625 1.609375 C 2.535156 1.640625 2.421875 1.65625 2.296875 1.65625 C 2.078125 1.65625 1.90625 1.617188 1.78125 1.546875 C 1.65625 1.472656 1.566406 1.398438 1.515625 1.328125 L 1.8125 1 C 1.863281 1.0625 1.925781 1.113281 2 1.15625 C 2.082031 1.195312 2.179688 1.21875 2.296875 1.21875 C 2.398438 1.21875 2.484375 1.195312 2.546875 1.15625 C 2.617188 1.125 2.65625 1.0625 2.65625 0.96875 C 2.65625 0.894531 2.617188 0.832031 2.546875 0.78125 C 2.484375 0.726562 2.335938 0.679688 2.109375 0.640625 L 1.890625 0.609375 L 1.984375 0.09375 C 1.472656 0.0390625 1.078125 -0.175781 0.796875 -0.5625 C 0.515625 -0.945312 0.375 -1.445312 0.375 -2.0625 C 0.375 -2.394531 0.414062 -2.691406 0.5 -2.953125 C 0.582031 -3.222656 0.703125 -3.453125 0.859375 -3.640625 C 1.015625 -3.828125 1.207031 -3.96875 1.4375 -4.0625 C 1.664062 -4.164062 1.925781 -4.21875 2.21875 -4.21875 Z M 2.21875 -4.21875 "/>
</g>
<g id="glyph-0-32">
<path d="M 0.6875 -5.921875 L 1.3125 -5.921875 L 1.3125 -3.453125 L 1.359375 -3.453125 C 1.460938 -3.710938 1.613281 -3.90625 1.8125 -4.03125 C 2.019531 -4.15625 2.269531 -4.21875 2.5625 -4.21875 C 2.8125 -4.21875 3.039062 -4.164062 3.25 -4.0625 C 3.457031 -3.96875 3.632812 -3.828125 3.78125 -3.640625 C 3.9375 -3.453125 4.050781 -3.222656 4.125 -2.953125 C 4.195312 -2.691406 4.234375 -2.394531 4.234375 -2.0625 C 4.234375 -1.726562 4.195312 -1.425781 4.125 -1.15625 C 4.050781 -0.894531 3.9375 -0.671875 3.78125 -0.484375 C 3.632812 -0.296875 3.457031 -0.148438 3.25 -0.046875 C 3.039062 0.046875 2.8125 0.09375 2.5625 0.09375 C 2 0.09375 1.597656 -0.160156 1.359375 -0.671875 L 1.3125 -0.671875 L 1.3125 0 L 0.6875 0 Z M 2.390625 -0.484375 C 2.742188 -0.484375 3.023438 -0.59375 3.234375 -0.8125 C 3.441406 -1.039062 3.546875 -1.34375 3.546875 -1.71875 L 3.546875 -2.421875 C 3.546875 -2.785156 3.441406 -3.078125 3.234375 -3.296875 C 3.023438 -3.523438 2.742188 -3.640625 2.390625 -3.640625 C 2.242188 -3.640625 2.101562 -3.617188 1.96875 -3.578125 C 1.84375 -3.546875 1.726562 -3.492188 1.625 -3.421875 C 1.53125 -3.347656 1.453125 -3.265625 1.390625 -3.171875 C 1.335938 -3.078125 1.3125 -2.972656 1.3125 -2.859375 L 1.3125 -1.3125 C 1.3125 -1.1875 1.335938 -1.070312 1.390625 -0.96875 C 1.453125 -0.863281 1.53125 -0.773438 1.625 -0.703125 C 1.726562 -0.628906 1.84375 -0.570312 1.96875 -0.53125 C 2.101562 -0.5 2.242188 -0.484375 2.390625 -0.484375 Z M 2.390625 -0.484375 "/>
</g>
<g id="glyph-0-33">
<path d="M 4.234375 0 L 3.6875 -1.640625 L 1.421875 -1.640625 L 0.859375 0 L 0.1875 0 L 2.140625 -5.578125 L 2.984375 -5.578125 L 4.9375 0 Z M 2.5625 -4.953125 L 2.53125 -4.953125 L 1.578125 -2.234375 L 3.515625 -2.234375 Z M 2.5625 -4.953125 "/>
</g>
<g id="glyph-0-34">
<path d="M 3.21875 -0.671875 L 3.1875 -0.671875 C 3.144531 -0.578125 3.09375 -0.484375 3.03125 -0.390625 C 2.96875 -0.296875 2.890625 -0.210938 2.796875 -0.140625 C 2.710938 -0.0664062 2.601562 -0.0078125 2.46875 0.03125 C 2.34375 0.0703125 2.195312 0.09375 2.03125 0.09375 C 1.601562 0.09375 1.265625 -0.0390625 1.015625 -0.3125 C 0.765625 -0.59375 0.640625 -0.984375 0.640625 -1.484375 L 0.640625 -4.125 L 1.28125 -4.125 L 1.28125 -1.59375 C 1.28125 -0.851562 1.59375 -0.484375 2.21875 -0.484375 C 2.351562 -0.484375 2.476562 -0.5 2.59375 -0.53125 C 2.71875 -0.5625 2.828125 -0.609375 2.921875 -0.671875 C 3.015625 -0.734375 3.085938 -0.8125 3.140625 -0.90625 C 3.191406 -1.007812 3.21875 -1.128906 3.21875 -1.265625 L 3.21875 -4.125 L 3.859375 -4.125 L 3.859375 0 L 3.21875 0 Z M 3.21875 -0.671875 "/>
</g>
<g id="glyph-0-35">
<path d="M 3.3125 -0.671875 L 3.28125 -0.671875 C 3.03125 -0.160156 2.628906 0.09375 2.078125 0.09375 C 1.828125 0.09375 1.597656 0.046875 1.390625 -0.046875 C 1.179688 -0.148438 1 -0.296875 0.84375 -0.484375 C 0.695312 -0.671875 0.585938 -0.894531 0.515625 -1.15625 C 0.441406 -1.425781 0.40625 -1.726562 0.40625 -2.0625 C 0.40625 -2.394531 0.441406 -2.691406 0.515625 -2.953125 C 0.585938 -3.222656 0.695312 -3.453125 0.84375 -3.640625 C 1 -3.828125 1.179688 -3.96875 1.390625 -4.0625 C 1.597656 -4.164062 1.828125 -4.21875 2.078125 -4.21875 C 2.367188 -4.21875 2.613281 -4.15625 2.8125 -4.03125 C 3.019531 -3.90625 3.175781 -3.710938 3.28125 -3.453125 L 3.3125 -3.453125 L 3.3125 -5.921875 L 3.953125 -5.921875 L 3.953125 0 L 3.3125 0 Z M 2.25 -0.484375 C 2.394531 -0.484375 2.53125 -0.5 2.65625 -0.53125 C 2.789062 -0.570312 2.90625 -0.628906 3 -0.703125 C 3.101562 -0.773438 3.179688 -0.863281 3.234375 -0.96875 C 3.285156 -1.070312 3.3125 -1.1875 3.3125 -1.3125 L 3.3125 -2.859375 C 3.3125 -2.972656 3.285156 -3.078125 3.234375 -3.171875 C 3.179688 -3.265625 3.101562 -3.347656 3 -3.421875 C 2.90625 -3.492188 2.789062 -3.546875 2.65625 -3.578125 C 2.53125 -3.617188 2.394531 -3.640625 2.25 -3.640625 C 1.894531 -3.640625 1.613281 -3.523438 1.40625 -3.296875 C 1.195312 -3.078125 1.09375 -2.785156 1.09375 -2.421875 L 1.09375 -1.71875 C 1.09375 -1.34375 1.195312 -1.039062 1.40625 -0.8125 C 1.613281 -0.59375 1.894531 -0.484375 2.25 -0.484375 Z M 2.25 -0.484375 "/>
</g>
<g id="glyph-0-36">
<path d="M 2.40625 0.09375 C 1.738281 0.09375 1.25 -0.15625 0.9375 -0.65625 C 0.632812 -1.164062 0.484375 -1.878906 0.484375 -2.796875 C 0.484375 -3.703125 0.632812 -4.410156 0.9375 -4.921875 C 1.25 -5.429688 1.738281 -5.6875 2.40625 -5.6875 C 3.070312 -5.6875 3.554688 -5.429688 3.859375 -4.921875 C 4.160156 -4.410156 4.3125 -3.703125 4.3125 -2.796875 C 4.3125 -1.878906 4.160156 -1.164062 3.859375 -0.65625 C 3.554688 -0.15625 3.070312 0.09375 2.40625 0.09375 Z M 2.40625 -0.484375 C 2.625 -0.484375 2.804688 -0.53125 2.953125 -0.625 C 3.109375 -0.71875 3.234375 -0.84375 3.328125 -1 C 3.429688 -1.164062 3.503906 -1.359375 3.546875 -1.578125 C 3.585938 -1.804688 3.609375 -2.0625 3.609375 -2.34375 L 3.609375 -3.25 C 3.609375 -3.519531 3.585938 -3.765625 3.546875 -3.984375 C 3.503906 -4.210938 3.429688 -4.410156 3.328125 -4.578125 C 3.234375 -4.742188 3.109375 -4.867188 2.953125 -4.953125 C 2.804688 -5.046875 2.625 -5.09375 2.40625 -5.09375 C 2.1875 -5.09375 2 -5.046875 1.84375 -4.953125 C 1.6875 -4.867188 1.554688 -4.742188 1.453125 -4.578125 C 1.359375 -4.410156 1.289062 -4.210938 1.25 -3.984375 C 1.207031 -3.765625 1.1875 -3.519531 1.1875 -3.25 L 1.1875 -2.34375 C 1.1875 -2.0625 1.207031 -1.804688 1.25 -1.578125 C 1.289062 -1.359375 1.359375 -1.164062 1.453125 -1 C 1.554688 -0.84375 1.6875 -0.71875 1.84375 -0.625 C 2 -0.53125 2.1875 -0.484375 2.40625 -0.484375 Z M 2.40625 -0.484375 "/>
</g>
<g id="glyph-0-37">
<path d="M 1.09375 0.09375 C 0.914062 0.09375 0.785156 0.0507812 0.703125 -0.03125 C 0.628906 -0.113281 0.59375 -0.226562 0.59375 -0.375 L 0.59375 -0.46875 C 0.59375 -0.613281 0.628906 -0.726562 0.703125 -0.8125 C 0.785156 -0.894531 0.914062 -0.9375 1.09375 -0.9375 C 1.257812 -0.9375 1.378906 -0.894531 1.453125 -0.8125 C 1.535156 -0.726562 1.578125 -0.613281 1.578125 -0.46875 L 1.578125 -0.375 C 1.578125 -0.226562 1.535156 -0.113281 1.453125 -0.03125 C 1.378906 0.0507812 1.257812 0.09375 1.09375 0.09375 Z M 1.09375 0.09375 "/>
</g>
<g id="glyph-0-38">
<path d="M 4.265625 0 L 0.59375 0 L 0.59375 -0.6875 L 2.421875 -2.375 C 2.679688 -2.613281 2.898438 -2.863281 3.078125 -3.125 C 3.253906 -3.394531 3.34375 -3.664062 3.34375 -3.9375 L 3.34375 -4.046875 C 3.34375 -4.347656 3.253906 -4.59375 3.078125 -4.78125 C 2.910156 -4.976562 2.65625 -5.078125 2.3125 -5.078125 C 2.144531 -5.078125 1.992188 -5.050781 1.859375 -5 C 1.734375 -4.957031 1.625 -4.894531 1.53125 -4.8125 C 1.4375 -4.726562 1.359375 -4.628906 1.296875 -4.515625 C 1.234375 -4.398438 1.1875 -4.273438 1.15625 -4.140625 L 0.546875 -4.375 C 0.597656 -4.53125 0.671875 -4.6875 0.765625 -4.84375 C 0.859375 -5.007812 0.976562 -5.148438 1.125 -5.265625 C 1.269531 -5.390625 1.441406 -5.488281 1.640625 -5.5625 C 1.835938 -5.644531 2.070312 -5.6875 2.34375 -5.6875 C 2.613281 -5.6875 2.851562 -5.644531 3.0625 -5.5625 C 3.28125 -5.476562 3.460938 -5.363281 3.609375 -5.21875 C 3.753906 -5.082031 3.863281 -4.914062 3.9375 -4.71875 C 4.019531 -4.519531 4.0625 -4.300781 4.0625 -4.0625 C 4.0625 -3.84375 4.03125 -3.640625 3.96875 -3.453125 C 3.90625 -3.265625 3.816406 -3.082031 3.703125 -2.90625 C 3.597656 -2.738281 3.46875 -2.578125 3.3125 -2.421875 C 3.164062 -2.265625 3.003906 -2.101562 2.828125 -1.9375 L 1.328125 -0.59375 L 4.265625 -0.59375 Z M 4.265625 0 "/>
</g>
<g id="glyph-0-39">
<path d="M 0.71875 -0.578125 L 3.484375 -2.1875 L 3.484375 -2.25 L 0.71875 -3.859375 L 0.71875 -4.53125 L 4.078125 -2.53125 L 4.078125 -1.890625 L 0.71875 0.09375 Z M 0.71875 -0.578125 "/>
</g>
<g id="glyph-0-40">
<path d="M 0.53125 -2.96875 L 0.53125 -3.515625 L 4.265625 -3.515625 L 4.265625 -2.96875 Z M 0.53125 -1.375 L 0.53125 -1.921875 L 4.265625 -1.921875 L 4.265625 -1.375 Z M 0.53125 -1.375 "/>
</g>
<g id="glyph-0-41">
<path d="M 3.984375 -4.984375 L 1.53125 -4.984375 L 1.375 -2.859375 L 1.4375 -2.859375 C 1.5625 -3.046875 1.707031 -3.195312 1.875 -3.3125 C 2.050781 -3.425781 2.285156 -3.484375 2.578125 -3.484375 C 2.816406 -3.484375 3.035156 -3.441406 3.234375 -3.359375 C 3.441406 -3.273438 3.617188 -3.160156 3.765625 -3.015625 C 3.910156 -2.867188 4.023438 -2.6875 4.109375 -2.46875 C 4.191406 -2.257812 4.234375 -2.019531 4.234375 -1.75 C 4.234375 -1.476562 4.191406 -1.226562 4.109375 -1 C 4.023438 -0.769531 3.898438 -0.570312 3.734375 -0.40625 C 3.578125 -0.25 3.378906 -0.125 3.140625 -0.03125 C 2.910156 0.0507812 2.648438 0.09375 2.359375 0.09375 C 2.128906 0.09375 1.921875 0.0664062 1.734375 0.015625 C 1.554688 -0.0351562 1.398438 -0.109375 1.265625 -0.203125 C 1.128906 -0.296875 1.007812 -0.394531 0.90625 -0.5 C 0.800781 -0.613281 0.703125 -0.734375 0.609375 -0.859375 L 1.125 -1.234375 C 1.1875 -1.128906 1.253906 -1.03125 1.328125 -0.9375 C 1.410156 -0.84375 1.5 -0.765625 1.59375 -0.703125 C 1.6875 -0.640625 1.796875 -0.585938 1.921875 -0.546875 C 2.046875 -0.515625 2.191406 -0.5 2.359375 -0.5 C 2.742188 -0.5 3.035156 -0.597656 3.234375 -0.796875 C 3.429688 -1.003906 3.53125 -1.289062 3.53125 -1.65625 L 3.53125 -1.75 C 3.53125 -2.113281 3.429688 -2.394531 3.234375 -2.59375 C 3.035156 -2.800781 2.742188 -2.90625 2.359375 -2.90625 C 2.097656 -2.90625 1.894531 -2.859375 1.75 -2.765625 C 1.601562 -2.671875 1.472656 -2.5625 1.359375 -2.4375 L 0.796875 -2.515625 L 0.984375 -5.578125 L 3.984375 -5.578125 Z M 3.984375 -4.984375 "/>
</g>
<g id="glyph-0-42">
<path d="M 0.71875 -1.890625 L 0.71875 -2.53125 L 4.078125 -4.53125 L 4.078125 -3.859375 L 1.3125 -2.25 L 1.3125 -2.1875 L 4.078125 -0.578125 L 4.078125 0.09375 Z M 0.71875 -1.890625 "/>
</g>
<g id="glyph-1-0">
<path d="M 2.890625 0.125 C 2.328125 0.125 1.84375 0.015625 1.4375 -0.203125 C 1.039062 -0.421875 0.703125 -0.71875 0.421875 -1.09375 L 1.046875 -1.625 C 1.285156 -1.289062 1.554688 -1.039062 1.859375 -0.875 C 2.160156 -0.707031 2.515625 -0.625 2.921875 -0.625 C 3.421875 -0.625 3.800781 -0.742188 4.0625 -0.984375 C 4.320312 -1.222656 4.453125 -1.539062 4.453125 -1.9375 C 4.453125 -2.269531 4.351562 -2.523438 4.15625 -2.703125 C 3.957031 -2.890625 3.628906 -3.035156 3.171875 -3.140625 L 2.59375 -3.265625 C 1.957031 -3.410156 1.46875 -3.628906 1.125 -3.921875 C 0.789062 -4.222656 0.625 -4.644531 0.625 -5.1875 C 0.625 -5.5 0.679688 -5.773438 0.796875 -6.015625 C 0.910156 -6.253906 1.066406 -6.453125 1.265625 -6.609375 C 1.472656 -6.765625 1.71875 -6.882812 2 -6.96875 C 2.289062 -7.050781 2.601562 -7.09375 2.9375 -7.09375 C 3.46875 -7.09375 3.921875 -6.992188 4.296875 -6.796875 C 4.671875 -6.609375 4.988281 -6.328125 5.25 -5.953125 L 4.625 -5.5 C 4.425781 -5.769531 4.191406 -5.976562 3.921875 -6.125 C 3.648438 -6.28125 3.3125 -6.359375 2.90625 -6.359375 C 2.457031 -6.359375 2.101562 -6.265625 1.84375 -6.078125 C 1.582031 -5.890625 1.453125 -5.601562 1.453125 -5.21875 C 1.453125 -4.882812 1.5625 -4.628906 1.78125 -4.453125 C 2 -4.285156 2.328125 -4.15625 2.765625 -4.0625 L 3.34375 -3.9375 C 4.03125 -3.78125 4.523438 -3.546875 4.828125 -3.234375 C 5.140625 -2.921875 5.296875 -2.503906 5.296875 -1.984375 C 5.296875 -1.660156 5.238281 -1.367188 5.125 -1.109375 C 5.007812 -0.847656 4.847656 -0.628906 4.640625 -0.453125 C 4.441406 -0.273438 4.191406 -0.132812 3.890625 -0.03125 C 3.597656 0.0703125 3.265625 0.125 2.890625 0.125 Z M 2.890625 0.125 "/>
</g>
<g id="glyph-1-1">
<path d="M 0.84375 -5.15625 L 1.65625 -5.15625 L 1.65625 -4.3125 L 1.6875 -4.3125 C 1.820312 -4.644531 2.015625 -4.890625 2.265625 -5.046875 C 2.523438 -5.203125 2.835938 -5.28125 3.203125 -5.28125 C 3.523438 -5.28125 3.8125 -5.21875 4.0625 -5.09375 C 4.320312 -4.96875 4.546875 -4.785156 4.734375 -4.546875 C 4.921875 -4.316406 5.0625 -4.035156 5.15625 -3.703125 C 5.25 -3.367188 5.296875 -2.992188 5.296875 -2.578125 C 5.296875 -2.160156 5.25 -1.785156 5.15625 -1.453125 C 5.0625 -1.117188 4.921875 -0.835938 4.734375 -0.609375 C 4.546875 -0.378906 4.320312 -0.195312 4.0625 -0.0625 C 3.8125 0.0625 3.523438 0.125 3.203125 0.125 C 2.503906 0.125 2 -0.195312 1.6875 -0.84375 L 1.65625 -0.84375 L 1.65625 2 L 0.84375 2 Z M 2.984375 -0.59375 C 3.429688 -0.59375 3.785156 -0.734375 4.046875 -1.015625 C 4.304688 -1.304688 4.4375 -1.679688 4.4375 -2.140625 L 4.4375 -3.015625 C 4.4375 -3.472656 4.304688 -3.84375 4.046875 -4.125 C 3.785156 -4.414062 3.429688 -4.5625 2.984375 -4.5625 C 2.796875 -4.5625 2.617188 -4.535156 2.453125 -4.484375 C 2.296875 -4.429688 2.15625 -4.363281 2.03125 -4.28125 C 1.914062 -4.195312 1.820312 -4.09375 1.75 -3.96875 C 1.6875 -3.84375 1.65625 -3.707031 1.65625 -3.5625 L 1.65625 -1.65625 C 1.65625 -1.488281 1.6875 -1.335938 1.75 -1.203125 C 1.820312 -1.078125 1.914062 -0.96875 2.03125 -0.875 C 2.15625 -0.78125 2.296875 -0.707031 2.453125 -0.65625 C 2.617188 -0.613281 2.796875 -0.59375 2.984375 -0.59375 Z M 2.984375 -0.59375 "/>
</g>
<g id="glyph-1-2">
<path d="M 2.796875 0.125 C 2.441406 0.125 2.117188 0.0625 1.828125 -0.0625 C 1.546875 -0.195312 1.300781 -0.378906 1.09375 -0.609375 C 0.894531 -0.847656 0.738281 -1.128906 0.625 -1.453125 C 0.519531 -1.785156 0.46875 -2.160156 0.46875 -2.578125 C 0.46875 -2.984375 0.519531 -3.351562 0.625 -3.6875 C 0.738281 -4.019531 0.894531 -4.304688 1.09375 -4.546875 C 1.300781 -4.785156 1.546875 -4.96875 1.828125 -5.09375 C 2.117188 -5.21875 2.441406 -5.28125 2.796875 -5.28125 C 3.140625 -5.28125 3.445312 -5.21875 3.71875 -5.09375 C 3.988281 -4.96875 4.21875 -4.789062 4.40625 -4.5625 C 4.601562 -4.34375 4.753906 -4.078125 4.859375 -3.765625 C 4.960938 -3.460938 5.015625 -3.128906 5.015625 -2.765625 L 5.015625 -2.375 L 1.3125 -2.375 L 1.3125 -2.140625 C 1.3125 -1.921875 1.34375 -1.710938 1.40625 -1.515625 C 1.476562 -1.328125 1.578125 -1.160156 1.703125 -1.015625 C 1.835938 -0.878906 2 -0.769531 2.1875 -0.6875 C 2.382812 -0.613281 2.601562 -0.578125 2.84375 -0.578125 C 3.164062 -0.578125 3.445312 -0.65625 3.6875 -0.8125 C 3.9375 -0.96875 4.128906 -1.1875 4.265625 -1.46875 L 4.828125 -1.0625 C 4.660156 -0.707031 4.398438 -0.421875 4.046875 -0.203125 C 3.691406 0.015625 3.273438 0.125 2.796875 0.125 Z M 2.796875 -4.609375 C 2.566406 -4.609375 2.363281 -4.566406 2.1875 -4.484375 C 2.007812 -4.410156 1.851562 -4.300781 1.71875 -4.15625 C 1.59375 -4.019531 1.492188 -3.859375 1.421875 -3.671875 C 1.347656 -3.484375 1.3125 -3.273438 1.3125 -3.046875 L 1.3125 -2.984375 L 4.15625 -2.984375 L 4.15625 -3.09375 C 4.15625 -3.550781 4.03125 -3.914062 3.78125 -4.1875 C 3.53125 -4.46875 3.203125 -4.609375 2.796875 -4.609375 Z M 2.796875 -4.609375 "/>
</g>
<g id="glyph-1-3">
<path d="M 4.59375 0 C 4.300781 0 4.085938 -0.078125 3.953125 -0.234375 C 3.828125 -0.398438 3.742188 -0.601562 3.703125 -0.84375 L 3.65625 -0.84375 C 3.539062 -0.519531 3.351562 -0.273438 3.09375 -0.109375 C 2.832031 0.046875 2.523438 0.125 2.171875 0.125 C 1.617188 0.125 1.191406 -0.015625 0.890625 -0.296875 C 0.585938 -0.578125 0.4375 -0.957031 0.4375 -1.4375 C 0.4375 -1.925781 0.613281 -2.300781 0.96875 -2.5625 C 1.332031 -2.820312 1.890625 -2.953125 2.640625 -2.953125 L 3.65625 -2.953125 L 3.65625 -3.453125 C 3.65625 -3.828125 3.554688 -4.109375 3.359375 -4.296875 C 3.160156 -4.492188 2.851562 -4.59375 2.4375 -4.59375 C 2.125 -4.59375 1.863281 -4.519531 1.65625 -4.375 C 1.445312 -4.238281 1.269531 -4.050781 1.125 -3.8125 L 0.65625 -4.265625 C 0.789062 -4.546875 1.007812 -4.785156 1.3125 -4.984375 C 1.625 -5.179688 2.015625 -5.28125 2.484375 -5.28125 C 3.109375 -5.28125 3.59375 -5.125 3.9375 -4.8125 C 4.28125 -4.507812 4.453125 -4.085938 4.453125 -3.546875 L 4.453125 -0.703125 L 5.046875 -0.703125 L 5.046875 0 Z M 2.296875 -0.5625 C 2.492188 -0.5625 2.675781 -0.582031 2.84375 -0.625 C 3.007812 -0.675781 3.148438 -0.742188 3.265625 -0.828125 C 3.390625 -0.910156 3.484375 -1.007812 3.546875 -1.125 C 3.617188 -1.238281 3.65625 -1.363281 3.65625 -1.5 L 3.65625 -2.34375 L 2.59375 -2.34375 C 2.132812 -2.34375 1.800781 -2.273438 1.59375 -2.140625 C 1.382812 -2.015625 1.28125 -1.820312 1.28125 -1.5625 L 1.28125 -1.359375 C 1.28125 -1.109375 1.367188 -0.910156 1.546875 -0.765625 C 1.734375 -0.628906 1.984375 -0.5625 2.296875 -0.5625 Z M 2.296875 -0.5625 "/>
</g>
<g id="glyph-1-4">
<path d="M 0.84375 0 L 0.84375 -5.15625 L 1.65625 -5.15625 L 1.65625 -4.203125 L 1.703125 -4.203125 C 1.796875 -4.453125 1.960938 -4.671875 2.203125 -4.859375 C 2.441406 -5.054688 2.769531 -5.15625 3.1875 -5.15625 L 3.5 -5.15625 L 3.5 -4.359375 L 3.03125 -4.359375 C 2.59375 -4.359375 2.253906 -4.273438 2.015625 -4.109375 C 1.773438 -3.953125 1.65625 -3.75 1.65625 -3.5 L 1.65625 0 Z M 0.84375 0 "/>
</g>
<g id="glyph-1-5">
<path d="M 0.84375 0 L 0.84375 -5.15625 L 1.65625 -5.15625 L 1.65625 -4.3125 L 1.6875 -4.3125 C 1.75 -4.445312 1.816406 -4.570312 1.890625 -4.6875 C 1.972656 -4.8125 2.066406 -4.914062 2.171875 -5 C 2.285156 -5.082031 2.414062 -5.148438 2.5625 -5.203125 C 2.707031 -5.253906 2.878906 -5.28125 3.078125 -5.28125 C 3.421875 -5.28125 3.734375 -5.195312 4.015625 -5.03125 C 4.304688 -4.875 4.519531 -4.609375 4.65625 -4.234375 L 4.6875 -4.234375 C 4.769531 -4.515625 4.941406 -4.757812 5.203125 -4.96875 C 5.460938 -5.175781 5.8125 -5.28125 6.25 -5.28125 C 6.78125 -5.28125 7.191406 -5.109375 7.484375 -4.765625 C 7.785156 -4.421875 7.9375 -3.9375 7.9375 -3.3125 L 7.9375 0 L 7.125 0 L 7.125 -3.171875 C 7.125 -3.628906 7.035156 -3.972656 6.859375 -4.203125 C 6.679688 -4.441406 6.394531 -4.5625 6 -4.5625 C 5.84375 -4.5625 5.691406 -4.539062 5.546875 -4.5 C 5.398438 -4.457031 5.269531 -4.394531 5.15625 -4.3125 C 5.039062 -4.238281 4.953125 -4.140625 4.890625 -4.015625 C 4.828125 -3.890625 4.796875 -3.742188 4.796875 -3.578125 L 4.796875 0 L 3.984375 0 L 3.984375 -3.171875 C 3.984375 -3.628906 3.894531 -3.972656 3.71875 -4.203125 C 3.539062 -4.441406 3.257812 -4.5625 2.875 -4.5625 C 2.71875 -4.5625 2.566406 -4.539062 2.421875 -4.5 C 2.273438 -4.457031 2.144531 -4.394531 2.03125 -4.3125 C 1.914062 -4.238281 1.820312 -4.140625 1.75 -4.015625 C 1.6875 -3.890625 1.65625 -3.742188 1.65625 -3.578125 L 1.65625 0 Z M 0.84375 0 "/>
</g>
<g id="glyph-1-6">
<path d="M 0.84375 0 L 0.84375 -5.15625 L 1.65625 -5.15625 L 1.65625 -4.3125 L 1.6875 -4.3125 C 1.8125 -4.613281 1.988281 -4.847656 2.21875 -5.015625 C 2.445312 -5.191406 2.757812 -5.28125 3.15625 -5.28125 C 3.6875 -5.28125 4.101562 -5.109375 4.40625 -4.765625 C 4.71875 -4.421875 4.875 -3.9375 4.875 -3.3125 L 4.875 0 L 4.078125 0 L 4.078125 -3.171875 C 4.078125 -4.097656 3.6875 -4.5625 2.90625 -4.5625 C 2.75 -4.5625 2.59375 -4.539062 2.4375 -4.5 C 2.289062 -4.457031 2.15625 -4.394531 2.03125 -4.3125 C 1.914062 -4.238281 1.820312 -4.140625 1.75 -4.015625 C 1.6875 -3.890625 1.65625 -3.742188 1.65625 -3.578125 L 1.65625 0 Z M 0.84375 0 "/>
</g>
<g id="glyph-1-7">
</g>
<g id="glyph-1-8">
<path d="M 0.84375 -7.40625 L 1.65625 -7.40625 L 1.65625 -4.3125 L 1.6875 -4.3125 C 1.8125 -4.613281 1.988281 -4.847656 2.21875 -5.015625 C 2.445312 -5.191406 2.757812 -5.28125 3.15625 -5.28125 C 3.6875 -5.28125 4.101562 -5.109375 4.40625 -4.765625 C 4.71875 -4.421875 4.875 -3.9375 4.875 -3.3125 L 4.875 0 L 4.078125 0 L 4.078125 -3.171875 C 4.078125 -4.097656 3.6875 -4.5625 2.90625 -4.5625 C 2.75 -4.5625 2.59375 -4.539062 2.4375 -4.5 C 2.289062 -4.457031 2.15625 -4.394531 2.03125 -4.3125 C 1.914062 -4.238281 1.820312 -4.140625 1.75 -4.015625 C 1.6875 -3.890625 1.65625 -3.742188 1.65625 -3.578125 L 1.65625 0 L 0.84375 0 Z M 0.84375 -7.40625 "/>
</g>
<g id="glyph-1-9">
<path d="M 2.796875 0.125 C 2.453125 0.125 2.132812 0.0625 1.84375 -0.0625 C 1.5625 -0.195312 1.316406 -0.378906 1.109375 -0.609375 C 0.910156 -0.847656 0.753906 -1.128906 0.640625 -1.453125 C 0.523438 -1.785156 0.46875 -2.160156 0.46875 -2.578125 C 0.46875 -2.984375 0.523438 -3.351562 0.640625 -3.6875 C 0.753906 -4.019531 0.910156 -4.304688 1.109375 -4.546875 C 1.316406 -4.785156 1.5625 -4.96875 1.84375 -5.09375 C 2.132812 -5.21875 2.453125 -5.28125 2.796875 -5.28125 C 3.140625 -5.28125 3.453125 -5.21875 3.734375 -5.09375 C 4.023438 -4.96875 4.273438 -4.785156 4.484375 -4.546875 C 4.691406 -4.304688 4.847656 -4.019531 4.953125 -3.6875 C 5.066406 -3.351562 5.125 -2.984375 5.125 -2.578125 C 5.125 -2.160156 5.066406 -1.785156 4.953125 -1.453125 C 4.847656 -1.128906 4.691406 -0.847656 4.484375 -0.609375 C 4.273438 -0.378906 4.023438 -0.195312 3.734375 -0.0625 C 3.453125 0.0625 3.140625 0.125 2.796875 0.125 Z M 2.796875 -0.59375 C 3.234375 -0.59375 3.585938 -0.722656 3.859375 -0.984375 C 4.128906 -1.253906 4.265625 -1.660156 4.265625 -2.203125 L 4.265625 -2.953125 C 4.265625 -3.492188 4.128906 -3.894531 3.859375 -4.15625 C 3.585938 -4.425781 3.234375 -4.5625 2.796875 -4.5625 C 2.367188 -4.5625 2.015625 -4.425781 1.734375 -4.15625 C 1.460938 -3.894531 1.328125 -3.492188 1.328125 -2.953125 L 1.328125 -2.203125 C 1.328125 -1.660156 1.460938 -1.253906 1.734375 -0.984375 C 2.015625 -0.722656 2.367188 -0.59375 2.796875 -0.59375 Z M 2.796875 -0.59375 "/>
</g>
</g>
<clipPath id="clip-0">
<path clip-rule="nonzero" d="M 174.449219 227 L 509.035156 227 L 509.035156 229 L 174.449219 229 Z M 174.449219 227 "/>
</clipPath>
<clipPath id="clip-1">
<path clip-rule="nonzero" d="M 174.449219 211 L 509.035156 211 L 509.035156 212 L 174.449219 212 Z M 174.449219 211 "/>
</clipPath>
<clipPath id="clip-2">
<path clip-rule="nonzero" d="M 174.449219 194 L 509.035156 194 L 509.035156 196 L 174.449219 196 Z M 174.449219 194 "/>
</clipPath>
<clipPath id="clip-3">
<path clip-rule="nonzero" d="M 174.449219 178 L 509.035156 178 L 509.035156 180 L 174.449219 180 Z M 174.449219 178 "/>
</clipPath>
<clipPath id="clip-4">
<path clip-rule="nonzero" d="M 174.449219 162 L 509.035156 162 L 509.035156 164 L 174.449219 164 Z M 174.449219 162 "/>
</clipPath>
<clipPath id="clip-5">
<path clip-rule="nonzero" d="M 174.449219 146 L 509.035156 146 L 509.035156 147 L 174.449219 147 Z M 174.449219 146 "/>
</clipPath>
<clipPath id="clip-6">
<path clip-rule="nonzero" d="M 174.449219 129 L 509.035156 129 L 509.035156 131 L 174.449219 131 Z M 174.449219 129 "/>
</clipPath>
<clipPath id="clip-7">
<path clip-rule="nonzero" d="M 174.449219 113 L 509.035156 113 L 509.035156 115 L 174.449219 115 Z M 174.449219 113 "/>
</clipPath>
<clipPath id="clip-8">
<path clip-rule="nonzero" d="M 174.449219 97 L 509.035156 97 L 509.035156 99 L 174.449219 99 Z M 174.449219 97 "/>
</clipPath>
<clipPath id="clip-9">
<path clip-rule="nonzero" d="M 174.449219 81 L 509.035156 81 L 509.035156 82 L 174.449219 82 Z M 174.449219 81 "/>
</clipPath>
<clipPath id="clip-10">
<path clip-rule="nonzero" d="M 174.449219 65 L 509.035156 65 L 509.035156 66 L 174.449219 66 Z M 174.449219 65 "/>
</clipPath>
<clipPath id="clip-11">
<path clip-rule="nonzero" d="M 174.449219 48 L 509.035156 48 L 509.035156 50 L 174.449219 50 Z M 174.449219 48 "/>
</clipPath>
<clipPath id="clip-12">
<path clip-rule="nonzero" d="M 174.449219 32 L 509.035156 32 L 509.035156 34 L 174.449219 34 Z M 174.449219 32 "/>
</clipPath>
<clipPath id="clip-13">
<path clip-rule="nonzero" d="M 174.449219 16 L 509.035156 16 L 509.035156 18 L 174.449219 18 Z M 174.449219 16 "/>
</clipPath>
<clipPath id="clip-14">
<path clip-rule="nonzero" d="M 254 6.972656 L 256 6.972656 L 256 237.371094 L 254 237.371094 Z M 254 6.972656 "/>
</clipPath>
<clipPath id="clip-15">
<path clip-rule="nonzero" d="M 341 6.972656 L 343 6.972656 L 343 237.371094 L 341 237.371094 Z M 341 6.972656 "/>
</clipPath>
<clipPath id="clip-16">
<path clip-rule="nonzero" d="M 428 6.972656 L 430 6.972656 L 430 237.371094 L 428 237.371094 Z M 428 6.972656 "/>
</clipPath>
<clipPath id="clip-17">
<path clip-rule="nonzero" d="M 341 6.972656 L 343 6.972656 L 343 237.371094 L 341 237.371094 Z M 341 6.972656 "/>
</clipPath>
</defs>
<rect x="-51.8" y="-30.2" width="621.6" height="362.4" fill="rgb(100%, 100%, 100%)" fill-opacity="1"/>
<rect x="-51.8" y="-30.2" width="621.6" height="362.4" fill="rgb(100%, 100%, 100%)" fill-opacity="1"/>
<g clip-path="url(#clip-0)">
<path fill="none" stroke-width="0.746885" stroke-linecap="butt" stroke-linejoin="round" stroke="rgb(87.843137%, 87.843137%, 87.843137%)" stroke-opacity="1" stroke-miterlimit="10" d="M 174.449219 227.636719 L 509.035156 227.636719 "/>
</g>
<g clip-path="url(#clip-1)">
<path fill="none" stroke-width="0.746885" stroke-linecap="butt" stroke-linejoin="round" stroke="rgb(87.843137%, 87.843137%, 87.843137%)" stroke-opacity="1" stroke-miterlimit="10" d="M 174.449219 211.410156 L 509.035156 211.410156 "/>
</g>
<g clip-path="url(#clip-2)">
<path fill="none" stroke-width="0.746885" stroke-linecap="butt" stroke-linejoin="round" stroke="rgb(87.843137%, 87.843137%, 87.843137%)" stroke-opacity="1" stroke-miterlimit="10" d="M 174.449219 195.1875 L 509.035156 195.1875 "/>
</g>
<g clip-path="url(#clip-3)">
<path fill="none" stroke-width="0.746885" stroke-linecap="butt" stroke-linejoin="round" stroke="rgb(87.843137%, 87.843137%, 87.843137%)" stroke-opacity="1" stroke-miterlimit="10" d="M 174.449219 178.960938 L 509.035156 178.960938 "/>
</g>
<g clip-path="url(#clip-4)">
<path fill="none" stroke-width="0.746885" stroke-linecap="butt" stroke-linejoin="round" stroke="rgb(87.843137%, 87.843137%, 87.843137%)" stroke-opacity="1" stroke-miterlimit="10" d="M 174.449219 162.734375 L 509.035156 162.734375 "/>
</g>
<g clip-path="url(#clip-5)">
<path fill="none" stroke-width="0.746885" stroke-linecap="butt" stroke-linejoin="round" stroke="rgb(87.843137%, 87.843137%, 87.843137%)" stroke-opacity="1" stroke-miterlimit="10" d="M 174.449219 146.511719 L 509.035156 146.511719 "/>
</g>
<g clip-path="url(#clip-6)">
<path fill="none" stroke-width="0.746885" stroke-linecap="butt" stroke-linejoin="round" stroke="rgb(87.843137%, 87.843137%, 87.843137%)" stroke-opacity="1" stroke-miterlimit="10" d="M 174.449219 130.285156 L 509.035156 130.285156 "/>
</g>
<g clip-path="url(#clip-7)">
<path fill="none" stroke-width="0.746885" stroke-linecap="butt" stroke-linejoin="round" stroke="rgb(87.843137%, 87.843137%, 87.843137%)" stroke-opacity="1" stroke-miterlimit="10" d="M 174.449219 114.058594 L 509.035156 114.058594 "/>
</g>
<g clip-path="url(#clip-8)">
<path fill="none" stroke-width="0.746885" stroke-linecap="butt" stroke-linejoin="round" stroke="rgb(87.843137%, 87.843137%, 87.843137%)" stroke-opacity="1" stroke-miterlimit="10" d="M 174.449219 97.835938 L 509.035156 97.835938 "/>
</g>
<g clip-path="url(#clip-9)">
<path fill="none" stroke-width="0.746885" stroke-linecap="butt" stroke-linejoin="round" stroke="rgb(87.843137%, 87.843137%, 87.843137%)" stroke-opacity="1" stroke-miterlimit="10" d="M 174.449219 81.609375 L 509.035156 81.609375 "/>
</g>
<g clip-path="url(#clip-10)">
<path fill="none" stroke-width="0.746885" stroke-linecap="butt" stroke-linejoin="round" stroke="rgb(87.843137%, 87.843137%, 87.843137%)" stroke-opacity="1" stroke-miterlimit="10" d="M 174.449219 65.382812 L 509.035156 65.382812 "/>
</g>
<g clip-path="url(#clip-11)">
<path fill="none" stroke-width="0.746885" stroke-linecap="butt" stroke-linejoin="round" stroke="rgb(87.843137%, 87.843137%, 87.843137%)" stroke-opacity="1" stroke-miterlimit="10" d="M 174.449219 49.160156 L 509.035156 49.160156 "/>
</g>
<g clip-path="url(#clip-12)">
<path fill="none" stroke-width="0.746885" stroke-linecap="butt" stroke-linejoin="round" stroke="rgb(87.843137%, 87.843137%, 87.843137%)" stroke-opacity="1" stroke-miterlimit="10" d="M 174.449219 32.933594 L 509.035156 32.933594 "/>
</g>
<g clip-path="url(#clip-13)">
<path fill="none" stroke-width="0.746885" stroke-linecap="butt" stroke-linejoin="round" stroke="rgb(87.843137%, 87.843137%, 87.843137%)" stroke-opacity="1" stroke-miterlimit="10" d="M 174.449219 16.707031 L 509.035156 16.707031 "/>
</g>
<g clip-path="url(#clip-14)">
<path fill="none" stroke-width="0.746885" stroke-linecap="butt" stroke-linejoin="round" stroke="rgb(87.843137%, 87.843137%, 87.843137%)" stroke-opacity="1" stroke-miterlimit="10" d="M 254.835938 237.371094 L 254.835938 6.972656 "/>
</g>
<g clip-path="url(#clip-15)">
<path fill="none" stroke-width="0.746885" stroke-linecap="butt" stroke-linejoin="round" stroke="rgb(87.843137%, 87.843137%, 87.843137%)" stroke-opacity="1" stroke-miterlimit="10" d="M 341.742188 237.371094 L 341.742188 6.972656 "/>
</g>
<g clip-path="url(#clip-16)">
<path fill="none" stroke-width="0.746885" stroke-linecap="butt" stroke-linejoin="round" stroke="rgb(87.843137%, 87.843137%, 87.843137%)" stroke-opacity="1" stroke-miterlimit="10" d="M 428.648438 237.371094 L 428.648438 6.972656 "/>
</g>
<g clip-path="url(#clip-17)">
<path fill="none" stroke-width="0.640187" stroke-linecap="butt" stroke-linejoin="round" stroke="rgb(43.529412%, 43.529412%, 43.529412%)" stroke-opacity="1" stroke-miterlimit="10" d="M 341.742188 237.371094 L 341.742188 6.972656 "/>
</g>
<path fill-rule="nonzero" fill="rgb(41.176471%, 16.078431%, 76.862745%)" fill-opacity="1" d="M 249.835938 227.636719 C 249.835938 231.054688 244.710938 231.054688 244.710938 227.636719 C 244.710938 224.21875 249.835938 224.21875 249.835938 227.636719 "/>
<path fill="none" stroke-width="0.644238" stroke-linecap="round" stroke-linejoin="round" stroke="rgb(41.176471%, 16.078431%, 76.862745%)" stroke-opacity="1" stroke-miterlimit="10" d="M 370.277344 97.835938 C 370.277344 101.25 365.152344 101.25 365.152344 97.835938 C 365.152344 94.417969 370.277344 94.417969 370.277344 97.835938 "/>
<path fill-rule="nonzero" fill="rgb(41.176471%, 16.078431%, 76.862745%)" fill-opacity="1" d="M 418.46875 49.160156 C 418.46875 52.578125 413.34375 52.578125 413.34375 49.160156 C 413.34375 45.742188 418.46875 45.742188 418.46875 49.160156 "/>
<path fill-rule="nonzero" fill="rgb(41.176471%, 16.078431%, 76.862745%)" fill-opacity="1" d="M 457.617188 32.933594 C 457.617188 36.351562 452.492188 36.351562 452.492188 32.933594 C 452.492188 29.515625 457.617188 29.515625 457.617188 32.933594 "/>
<path fill="none" stroke-width="0.644238" stroke-linecap="round" stroke-linejoin="round" stroke="rgb(41.176471%, 16.078431%, 76.862745%)" stroke-opacity="1" stroke-miterlimit="10" d="M 360.050781 130.285156 C 360.050781 133.703125 354.925781 133.703125 354.925781 130.285156 C 354.925781 126.867188 360.050781 126.867188 360.050781 130.285156 "/>
<path fill="none" stroke-width="0.644238" stroke-linecap="round" stroke-linejoin="round" stroke="rgb(41.176471%, 16.078431%, 76.862745%)" stroke-opacity="1" stroke-miterlimit="10" d="M 338.886719 178.960938 C 338.886719 182.378906 333.761719 182.378906 333.761719 178.960938 C 333.761719 175.542969 338.886719 175.542969 338.886719 178.960938 "/>
<path fill="none" stroke-width="0.644238" stroke-linecap="round" stroke-linejoin="round" stroke="rgb(41.176471%, 16.078431%, 76.862745%)" stroke-opacity="1" stroke-miterlimit="10" d="M 380.464844 81.609375 C 380.464844 85.027344 375.339844 85.027344 375.339844 81.609375 C 375.339844 78.191406 380.464844 78.191406 380.464844 81.609375 "/>
<path fill="none" stroke-width="0.644238" stroke-linecap="round" stroke-linejoin="round" stroke="rgb(41.176471%, 16.078431%, 76.862745%)" stroke-opacity="1" stroke-miterlimit="10" d="M 333.070312 195.1875 C 333.070312 198.601562 327.941406 198.601562 327.941406 195.1875 C 327.941406 191.769531 333.070312 191.769531 333.070312 195.1875 "/>
<path fill="none" stroke-width="0.644238" stroke-linecap="round" stroke-linejoin="round" stroke="rgb(41.176471%, 16.078431%, 76.862745%)" stroke-opacity="1" stroke-miterlimit="10" d="M 362.582031 114.058594 C 362.582031 117.476562 357.457031 117.476562 357.457031 114.058594 C 357.457031 110.644531 362.582031 110.644531 362.582031 114.058594 "/>
<path fill="none" stroke-width="0.644238" stroke-linecap="round" stroke-linejoin="round" stroke="rgb(6.666667%, 57.254902%, 90.980392%)" stroke-opacity="1" stroke-miterlimit="10" d="M 345.578125 162.734375 C 345.578125 166.152344 340.453125 166.152344 340.453125 162.734375 C 340.453125 159.316406 345.578125 159.316406 345.578125 162.734375 "/>
<path fill-rule="nonzero" fill="rgb(6.666667%, 57.254902%, 90.980392%)" fill-opacity="1" d="M 275.285156 211.410156 C 275.285156 214.828125 270.160156 214.828125 270.160156 211.410156 C 270.160156 207.992188 275.285156 207.992188 275.285156 211.410156 "/>
<path fill="none" stroke-width="0.644238" stroke-linecap="round" stroke-linejoin="round" stroke="rgb(6.666667%, 57.254902%, 90.980392%)" stroke-opacity="1" stroke-miterlimit="10" d="M 357.824219 146.511719 C 357.824219 149.925781 352.699219 149.925781 352.699219 146.511719 C 352.699219 143.09375 357.824219 143.09375 357.824219 146.511719 "/>
<path fill-rule="nonzero" fill="rgb(6.666667%, 57.254902%, 90.980392%)" fill-opacity="1" d="M 475.832031 16.707031 C 475.832031 20.125 470.707031 20.125 470.707031 16.707031 C 470.707031 13.292969 475.832031 13.292969 475.832031 16.707031 "/>
<path fill-rule="nonzero" fill="rgb(6.666667%, 57.254902%, 90.980392%)" fill-opacity="1" d="M 406.226562 65.382812 C 406.226562 68.800781 401.097656 68.800781 401.097656 65.382812 C 401.097656 61.96875 406.226562 61.96875 406.226562 65.382812 "/>
<g fill="rgb(32.156863%, 32.156863%, 32.156863%)" fill-opacity="1">
<use xlink:href="#glyph-0-0" x="86.964844" y="229.836914"/>
<use xlink:href="#glyph-0-1" x="91.964844" y="229.836914"/>
<use xlink:href="#glyph-0-2" x="97.964844" y="229.836914"/>
<use xlink:href="#glyph-0-3" x="102.964844" y="229.836914"/>
<use xlink:href="#glyph-0-4" x="107.964844" y="229.836914"/>
<use xlink:href="#glyph-0-5" x="110.964844" y="229.836914"/>
<use xlink:href="#glyph-0-6" x="115.964844" y="229.836914"/>
<use xlink:href="#glyph-0-7" x="117.964844" y="229.836914"/>
<use xlink:href="#glyph-0-8" x="122.964844" y="229.836914"/>
<use xlink:href="#glyph-0-9" x="124.964844" y="229.836914"/>
<use xlink:href="#glyph-0-10" x="128.964844" y="229.836914"/>
<use xlink:href="#glyph-0-11" x="132.964844" y="229.836914"/>
<use xlink:href="#glyph-0-12" x="136.964844" y="229.836914"/>
<use xlink:href="#glyph-0-8" x="138.964844" y="229.836914"/>
<use xlink:href="#glyph-0-11" x="140.964844" y="229.836914"/>
<use xlink:href="#glyph-0-6" x="144.964844" y="229.836914"/>
<use xlink:href="#glyph-0-13" x="146.964844" y="229.836914"/>
<use xlink:href="#glyph-0-6" x="150.964844" y="229.836914"/>
<use xlink:href="#glyph-0-2" x="152.964844" y="229.836914"/>
<use xlink:href="#glyph-0-14" x="157.964844" y="229.836914"/>
<use xlink:href="#glyph-0-9" x="161.964844" y="229.836914"/>
<use xlink:href="#glyph-0-11" x="165.964844" y="229.836914"/>
</g>
<g fill="rgb(32.156863%, 32.156863%, 32.156863%)" fill-opacity="1">
<use xlink:href="#glyph-0-0" x="8.964844" y="213.610352"/>
<use xlink:href="#glyph-0-1" x="13.964844" y="213.610352"/>
<use xlink:href="#glyph-0-2" x="19.964844" y="213.610352"/>
<use xlink:href="#glyph-0-3" x="24.964844" y="213.610352"/>
<use xlink:href="#glyph-0-4" x="29.964844" y="213.610352"/>
<use xlink:href="#glyph-0-15" x="32.964844" y="213.610352"/>
<use xlink:href="#glyph-0-6" x="37.964844" y="213.610352"/>
<use xlink:href="#glyph-0-16" x="39.964844" y="213.610352"/>
<use xlink:href="#glyph-0-10" x="44.964844" y="213.610352"/>
<use xlink:href="#glyph-0-17" x="48.964844" y="213.610352"/>
<use xlink:href="#glyph-0-18" x="51.964844" y="213.610352"/>
<use xlink:href="#glyph-0-8" x="55.964844" y="213.610352"/>
<use xlink:href="#glyph-0-12" x="57.964844" y="213.610352"/>
<use xlink:href="#glyph-0-10" x="59.964844" y="213.610352"/>
<use xlink:href="#glyph-0-18" x="63.964844" y="213.610352"/>
<use xlink:href="#glyph-0-19" x="67.964844" y="213.610352"/>
<use xlink:href="#glyph-0-8" x="70.964844" y="213.610352"/>
<use xlink:href="#glyph-0-17" x="72.964844" y="213.610352"/>
<use xlink:href="#glyph-0-20" x="75.964844" y="213.610352"/>
<use xlink:href="#glyph-0-10" x="82.964844" y="213.610352"/>
<use xlink:href="#glyph-0-6" x="86.964844" y="213.610352"/>
<use xlink:href="#glyph-0-13" x="88.964844" y="213.610352"/>
<use xlink:href="#glyph-0-6" x="92.964844" y="213.610352"/>
<use xlink:href="#glyph-0-7" x="94.964844" y="213.610352"/>
<use xlink:href="#glyph-0-21" x="99.964844" y="213.610352"/>
<use xlink:href="#glyph-0-22" x="104.964844" y="213.610352"/>
<use xlink:href="#glyph-0-6" x="110.964844" y="213.610352"/>
<use xlink:href="#glyph-0-7" x="112.964844" y="213.610352"/>
<use xlink:href="#glyph-0-8" x="117.964844" y="213.610352"/>
<use xlink:href="#glyph-0-9" x="119.964844" y="213.610352"/>
<use xlink:href="#glyph-0-10" x="123.964844" y="213.610352"/>
<use xlink:href="#glyph-0-11" x="127.964844" y="213.610352"/>
<use xlink:href="#glyph-0-12" x="131.964844" y="213.610352"/>
<use xlink:href="#glyph-0-8" x="133.964844" y="213.610352"/>
<use xlink:href="#glyph-0-11" x="135.964844" y="213.610352"/>
<use xlink:href="#glyph-0-23" x="139.964844" y="213.610352"/>
<use xlink:href="#glyph-0-24" x="142.964844" y="213.610352"/>
<use xlink:href="#glyph-0-10" x="146.964844" y="213.610352"/>
<use xlink:href="#glyph-0-11" x="150.964844" y="213.610352"/>
<use xlink:href="#glyph-0-8" x="154.964844" y="213.610352"/>
<use xlink:href="#glyph-0-25" x="156.964844" y="213.610352"/>
<use xlink:href="#glyph-0-12" x="161.964844" y="213.610352"/>
<use xlink:href="#glyph-0-8" x="163.964844" y="213.610352"/>
<use xlink:href="#glyph-0-11" x="165.964844" y="213.610352"/>
</g>
<g fill="rgb(32.156863%, 32.156863%, 32.156863%)" fill-opacity="1">
<use xlink:href="#glyph-0-0" x="36.964844" y="197.387695"/>
<use xlink:href="#glyph-0-1" x="41.964844" y="197.387695"/>
<use xlink:href="#glyph-0-2" x="47.964844" y="197.387695"/>
<use xlink:href="#glyph-0-3" x="52.964844" y="197.387695"/>
<use xlink:href="#glyph-0-4" x="57.964844" y="197.387695"/>
<use xlink:href="#glyph-0-5" x="60.964844" y="197.387695"/>
<use xlink:href="#glyph-0-6" x="65.964844" y="197.387695"/>
<use xlink:href="#glyph-0-16" x="67.964844" y="197.387695"/>
<use xlink:href="#glyph-0-10" x="72.964844" y="197.387695"/>
<use xlink:href="#glyph-0-17" x="76.964844" y="197.387695"/>
<use xlink:href="#glyph-0-18" x="79.964844" y="197.387695"/>
<use xlink:href="#glyph-0-8" x="83.964844" y="197.387695"/>
<use xlink:href="#glyph-0-12" x="85.964844" y="197.387695"/>
<use xlink:href="#glyph-0-10" x="87.964844" y="197.387695"/>
<use xlink:href="#glyph-0-18" x="91.964844" y="197.387695"/>
<use xlink:href="#glyph-0-19" x="95.964844" y="197.387695"/>
<use xlink:href="#glyph-0-8" x="98.964844" y="197.387695"/>
<use xlink:href="#glyph-0-17" x="100.964844" y="197.387695"/>
<use xlink:href="#glyph-0-20" x="103.964844" y="197.387695"/>
<use xlink:href="#glyph-0-10" x="110.964844" y="197.387695"/>
<use xlink:href="#glyph-0-6" x="114.964844" y="197.387695"/>
<use xlink:href="#glyph-0-13" x="116.964844" y="197.387695"/>
<use xlink:href="#glyph-0-6" x="120.964844" y="197.387695"/>
<use xlink:href="#glyph-0-7" x="122.964844" y="197.387695"/>
<use xlink:href="#glyph-0-21" x="127.964844" y="197.387695"/>
<use xlink:href="#glyph-0-22" x="132.964844" y="197.387695"/>
<use xlink:href="#glyph-0-6" x="138.964844" y="197.387695"/>
<use xlink:href="#glyph-0-26" x="140.964844" y="197.387695"/>
<use xlink:href="#glyph-0-10" x="145.964844" y="197.387695"/>
<use xlink:href="#glyph-0-19" x="149.964844" y="197.387695"/>
<use xlink:href="#glyph-0-8" x="152.964844" y="197.387695"/>
<use xlink:href="#glyph-0-18" x="154.964844" y="197.387695"/>
<use xlink:href="#glyph-0-20" x="158.964844" y="197.387695"/>
<use xlink:href="#glyph-0-10" x="165.964844" y="197.387695"/>
</g>
<g fill="rgb(32.156863%, 32.156863%, 32.156863%)" fill-opacity="1">
<use xlink:href="#glyph-0-0" x="8.964844" y="181.161133"/>
<use xlink:href="#glyph-0-1" x="13.964844" y="181.161133"/>
<use xlink:href="#glyph-0-2" x="19.964844" y="181.161133"/>
<use xlink:href="#glyph-0-3" x="24.964844" y="181.161133"/>
<use xlink:href="#glyph-0-4" x="29.964844" y="181.161133"/>
<use xlink:href="#glyph-0-5" x="32.964844" y="181.161133"/>
<use xlink:href="#glyph-0-6" x="37.964844" y="181.161133"/>
<use xlink:href="#glyph-0-16" x="39.964844" y="181.161133"/>
<use xlink:href="#glyph-0-10" x="44.964844" y="181.161133"/>
<use xlink:href="#glyph-0-17" x="48.964844" y="181.161133"/>
<use xlink:href="#glyph-0-18" x="51.964844" y="181.161133"/>
<use xlink:href="#glyph-0-8" x="55.964844" y="181.161133"/>
<use xlink:href="#glyph-0-12" x="57.964844" y="181.161133"/>
<use xlink:href="#glyph-0-10" x="59.964844" y="181.161133"/>
<use xlink:href="#glyph-0-18" x="63.964844" y="181.161133"/>
<use xlink:href="#glyph-0-19" x="67.964844" y="181.161133"/>
<use xlink:href="#glyph-0-8" x="70.964844" y="181.161133"/>
<use xlink:href="#glyph-0-17" x="72.964844" y="181.161133"/>
<use xlink:href="#glyph-0-20" x="75.964844" y="181.161133"/>
<use xlink:href="#glyph-0-10" x="82.964844" y="181.161133"/>
<use xlink:href="#glyph-0-6" x="86.964844" y="181.161133"/>
<use xlink:href="#glyph-0-13" x="88.964844" y="181.161133"/>
<use xlink:href="#glyph-0-6" x="92.964844" y="181.161133"/>
<use xlink:href="#glyph-0-7" x="94.964844" y="181.161133"/>
<use xlink:href="#glyph-0-21" x="99.964844" y="181.161133"/>
<use xlink:href="#glyph-0-22" x="104.964844" y="181.161133"/>
<use xlink:href="#glyph-0-6" x="110.964844" y="181.161133"/>
<use xlink:href="#glyph-0-7" x="112.964844" y="181.161133"/>
<use xlink:href="#glyph-0-8" x="117.964844" y="181.161133"/>
<use xlink:href="#glyph-0-9" x="119.964844" y="181.161133"/>
<use xlink:href="#glyph-0-10" x="123.964844" y="181.161133"/>
<use xlink:href="#glyph-0-11" x="127.964844" y="181.161133"/>
<use xlink:href="#glyph-0-12" x="131.964844" y="181.161133"/>
<use xlink:href="#glyph-0-8" x="133.964844" y="181.161133"/>
<use xlink:href="#glyph-0-11" x="135.964844" y="181.161133"/>
<use xlink:href="#glyph-0-23" x="139.964844" y="181.161133"/>
<use xlink:href="#glyph-0-24" x="142.964844" y="181.161133"/>
<use xlink:href="#glyph-0-10" x="146.964844" y="181.161133"/>
<use xlink:href="#glyph-0-11" x="150.964844" y="181.161133"/>
<use xlink:href="#glyph-0-8" x="154.964844" y="181.161133"/>
<use xlink:href="#glyph-0-25" x="156.964844" y="181.161133"/>
<use xlink:href="#glyph-0-12" x="161.964844" y="181.161133"/>
<use xlink:href="#glyph-0-8" x="163.964844" y="181.161133"/>
<use xlink:href="#glyph-0-11" x="165.964844" y="181.161133"/>
</g>
<g fill="rgb(32.156863%, 32.156863%, 32.156863%)" fill-opacity="1">
<use xlink:href="#glyph-0-0" x="40.964844" y="164.93457"/>
<use xlink:href="#glyph-0-1" x="45.964844" y="164.93457"/>
<use xlink:href="#glyph-0-2" x="51.964844" y="164.93457"/>
<use xlink:href="#glyph-0-3" x="56.964844" y="164.93457"/>
<use xlink:href="#glyph-0-4" x="61.964844" y="164.93457"/>
<use xlink:href="#glyph-0-15" x="64.964844" y="164.93457"/>
<use xlink:href="#glyph-0-6" x="69.964844" y="164.93457"/>
<use xlink:href="#glyph-0-16" x="71.964844" y="164.93457"/>
<use xlink:href="#glyph-0-10" x="76.964844" y="164.93457"/>
<use xlink:href="#glyph-0-17" x="80.964844" y="164.93457"/>
<use xlink:href="#glyph-0-18" x="83.964844" y="164.93457"/>
<use xlink:href="#glyph-0-8" x="87.964844" y="164.93457"/>
<use xlink:href="#glyph-0-12" x="89.964844" y="164.93457"/>
<use xlink:href="#glyph-0-10" x="91.964844" y="164.93457"/>
<use xlink:href="#glyph-0-18" x="95.964844" y="164.93457"/>
<use xlink:href="#glyph-0-19" x="99.964844" y="164.93457"/>
<use xlink:href="#glyph-0-8" x="102.964844" y="164.93457"/>
<use xlink:href="#glyph-0-17" x="104.964844" y="164.93457"/>
<use xlink:href="#glyph-0-20" x="107.964844" y="164.93457"/>
<use xlink:href="#glyph-0-10" x="114.964844" y="164.93457"/>
<use xlink:href="#glyph-0-6" x="118.964844" y="164.93457"/>
<use xlink:href="#glyph-0-13" x="120.964844" y="164.93457"/>
<use xlink:href="#glyph-0-6" x="124.964844" y="164.93457"/>
<use xlink:href="#glyph-0-7" x="126.964844" y="164.93457"/>
<use xlink:href="#glyph-0-21" x="131.964844" y="164.93457"/>
<use xlink:href="#glyph-0-22" x="136.964844" y="164.93457"/>
<use xlink:href="#glyph-0-6" x="142.964844" y="164.93457"/>
<use xlink:href="#glyph-0-19" x="144.964844" y="164.93457"/>
<use xlink:href="#glyph-0-27" x="147.964844" y="164.93457"/>
<use xlink:href="#glyph-0-28" x="151.964844" y="164.93457"/>
<use xlink:href="#glyph-0-12" x="156.964844" y="164.93457"/>
<use xlink:href="#glyph-0-10" x="158.964844" y="164.93457"/>
<use xlink:href="#glyph-0-20" x="162.964844" y="164.93457"/>
</g>
<g fill="rgb(32.156863%, 32.156863%, 32.156863%)" fill-opacity="1">
<use xlink:href="#glyph-0-0" x="27.964844" y="148.711914"/>
<use xlink:href="#glyph-0-1" x="32.964844" y="148.711914"/>
<use xlink:href="#glyph-0-2" x="38.964844" y="148.711914"/>
<use xlink:href="#glyph-0-3" x="43.964844" y="148.711914"/>
<use xlink:href="#glyph-0-4" x="48.964844" y="148.711914"/>
<use xlink:href="#glyph-0-15" x="51.964844" y="148.711914"/>
<use xlink:href="#glyph-0-6" x="56.964844" y="148.711914"/>
<use xlink:href="#glyph-0-16" x="58.964844" y="148.711914"/>
<use xlink:href="#glyph-0-10" x="63.964844" y="148.711914"/>
<use xlink:href="#glyph-0-17" x="67.964844" y="148.711914"/>
<use xlink:href="#glyph-0-18" x="70.964844" y="148.711914"/>
<use xlink:href="#glyph-0-8" x="74.964844" y="148.711914"/>
<use xlink:href="#glyph-0-12" x="76.964844" y="148.711914"/>
<use xlink:href="#glyph-0-10" x="78.964844" y="148.711914"/>
<use xlink:href="#glyph-0-18" x="82.964844" y="148.711914"/>
<use xlink:href="#glyph-0-19" x="86.964844" y="148.711914"/>
<use xlink:href="#glyph-0-8" x="89.964844" y="148.711914"/>
<use xlink:href="#glyph-0-17" x="91.964844" y="148.711914"/>
<use xlink:href="#glyph-0-20" x="94.964844" y="148.711914"/>
<use xlink:href="#glyph-0-10" x="101.964844" y="148.711914"/>
<use xlink:href="#glyph-0-6" x="105.964844" y="148.711914"/>
<use xlink:href="#glyph-0-13" x="107.964844" y="148.711914"/>
<use xlink:href="#glyph-0-6" x="111.964844" y="148.711914"/>
<use xlink:href="#glyph-0-7" x="113.964844" y="148.711914"/>
<use xlink:href="#glyph-0-21" x="118.964844" y="148.711914"/>
<use xlink:href="#glyph-0-22" x="123.964844" y="148.711914"/>
<use xlink:href="#glyph-0-6" x="129.964844" y="148.711914"/>
<use xlink:href="#glyph-0-7" x="131.964844" y="148.711914"/>
<use xlink:href="#glyph-0-19" x="136.964844" y="148.711914"/>
<use xlink:href="#glyph-0-10" x="139.964844" y="148.711914"/>
<use xlink:href="#glyph-0-19" x="143.964844" y="148.711914"/>
<use xlink:href="#glyph-0-29" x="146.964844" y="148.711914"/>
<use xlink:href="#glyph-0-23" x="151.964844" y="148.711914"/>
<use xlink:href="#glyph-0-30" x="154.964844" y="148.711914"/>
<use xlink:href="#glyph-0-29" x="160.964844" y="148.711914"/>
<use xlink:href="#glyph-0-31" x="165.964844" y="148.711914"/>
</g>
<g fill="rgb(32.156863%, 32.156863%, 32.156863%)" fill-opacity="1">
<use xlink:href="#glyph-0-0" x="40.964844" y="132.485352"/>
<use xlink:href="#glyph-0-1" x="45.964844" y="132.485352"/>
<use xlink:href="#glyph-0-2" x="51.964844" y="132.485352"/>
<use xlink:href="#glyph-0-3" x="56.964844" y="132.485352"/>
<use xlink:href="#glyph-0-4" x="61.964844" y="132.485352"/>
<use xlink:href="#glyph-0-5" x="64.964844" y="132.485352"/>
<use xlink:href="#glyph-0-6" x="69.964844" y="132.485352"/>
<use xlink:href="#glyph-0-16" x="71.964844" y="132.485352"/>
<use xlink:href="#glyph-0-10" x="76.964844" y="132.485352"/>
<use xlink:href="#glyph-0-17" x="80.964844" y="132.485352"/>
<use xlink:href="#glyph-0-18" x="83.964844" y="132.485352"/>
<use xlink:href="#glyph-0-8" x="87.964844" y="132.485352"/>
<use xlink:href="#glyph-0-12" x="89.964844" y="132.485352"/>
<use xlink:href="#glyph-0-10" x="91.964844" y="132.485352"/>
<use xlink:href="#glyph-0-18" x="95.964844" y="132.485352"/>
<use xlink:href="#glyph-0-19" x="99.964844" y="132.485352"/>
<use xlink:href="#glyph-0-8" x="102.964844" y="132.485352"/>
<use xlink:href="#glyph-0-17" x="104.964844" y="132.485352"/>
<use xlink:href="#glyph-0-20" x="107.964844" y="132.485352"/>
<use xlink:href="#glyph-0-10" x="114.964844" y="132.485352"/>
<use xlink:href="#glyph-0-6" x="118.964844" y="132.485352"/>
<use xlink:href="#glyph-0-13" x="120.964844" y="132.485352"/>
<use xlink:href="#glyph-0-6" x="124.964844" y="132.485352"/>
<use xlink:href="#glyph-0-7" x="126.964844" y="132.485352"/>
<use xlink:href="#glyph-0-21" x="131.964844" y="132.485352"/>
<use xlink:href="#glyph-0-22" x="136.964844" y="132.485352"/>
<use xlink:href="#glyph-0-6" x="142.964844" y="132.485352"/>
<use xlink:href="#glyph-0-19" x="144.964844" y="132.485352"/>
<use xlink:href="#glyph-0-27" x="147.964844" y="132.485352"/>
<use xlink:href="#glyph-0-28" x="151.964844" y="132.485352"/>
<use xlink:href="#glyph-0-12" x="156.964844" y="132.485352"/>
<use xlink:href="#glyph-0-10" x="158.964844" y="132.485352"/>
<use xlink:href="#glyph-0-20" x="162.964844" y="132.485352"/>
</g>
<g fill="rgb(32.156863%, 32.156863%, 32.156863%)" fill-opacity="1">
<use xlink:href="#glyph-0-0" x="36.964844" y="116.258789"/>
<use xlink:href="#glyph-0-1" x="41.964844" y="116.258789"/>
<use xlink:href="#glyph-0-2" x="47.964844" y="116.258789"/>
<use xlink:href="#glyph-0-3" x="52.964844" y="116.258789"/>
<use xlink:href="#glyph-0-4" x="57.964844" y="116.258789"/>
<use xlink:href="#glyph-0-5" x="60.964844" y="116.258789"/>
<use xlink:href="#glyph-0-6" x="65.964844" y="116.258789"/>
<use xlink:href="#glyph-0-16" x="67.964844" y="116.258789"/>
<use xlink:href="#glyph-0-10" x="72.964844" y="116.258789"/>
<use xlink:href="#glyph-0-17" x="76.964844" y="116.258789"/>
<use xlink:href="#glyph-0-18" x="79.964844" y="116.258789"/>
<use xlink:href="#glyph-0-8" x="83.964844" y="116.258789"/>
<use xlink:href="#glyph-0-12" x="85.964844" y="116.258789"/>
<use xlink:href="#glyph-0-10" x="87.964844" y="116.258789"/>
<use xlink:href="#glyph-0-18" x="91.964844" y="116.258789"/>
<use xlink:href="#glyph-0-19" x="95.964844" y="116.258789"/>
<use xlink:href="#glyph-0-8" x="98.964844" y="116.258789"/>
<use xlink:href="#glyph-0-17" x="100.964844" y="116.258789"/>
<use xlink:href="#glyph-0-20" x="103.964844" y="116.258789"/>
<use xlink:href="#glyph-0-10" x="110.964844" y="116.258789"/>
<use xlink:href="#glyph-0-6" x="114.964844" y="116.258789"/>
<use xlink:href="#glyph-0-13" x="116.964844" y="116.258789"/>
<use xlink:href="#glyph-0-6" x="120.964844" y="116.258789"/>
<use xlink:href="#glyph-0-7" x="122.964844" y="116.258789"/>
<use xlink:href="#glyph-0-21" x="127.964844" y="116.258789"/>
<use xlink:href="#glyph-0-22" x="132.964844" y="116.258789"/>
<use xlink:href="#glyph-0-6" x="138.964844" y="116.258789"/>
<use xlink:href="#glyph-0-21" x="140.964844" y="116.258789"/>
<use xlink:href="#glyph-0-14" x="145.964844" y="116.258789"/>
<use xlink:href="#glyph-0-11" x="149.964844" y="116.258789"/>
<use xlink:href="#glyph-0-10" x="153.964844" y="116.258789"/>
<use xlink:href="#glyph-0-32" x="157.964844" y="116.258789"/>
<use xlink:href="#glyph-0-14" x="162.964844" y="116.258789"/>
<use xlink:href="#glyph-0-19" x="166.964844" y="116.258789"/>
</g>
<g fill="rgb(32.156863%, 32.156863%, 32.156863%)" fill-opacity="1">
<use xlink:href="#glyph-0-0" x="68.964844" y="100.036133"/>
<use xlink:href="#glyph-0-1" x="73.964844" y="100.036133"/>
<use xlink:href="#glyph-0-2" x="79.964844" y="100.036133"/>
<use xlink:href="#glyph-0-3" x="84.964844" y="100.036133"/>
<use xlink:href="#glyph-0-4" x="89.964844" y="100.036133"/>
<use xlink:href="#glyph-0-5" x="92.964844" y="100.036133"/>
<use xlink:href="#glyph-0-6" x="97.964844" y="100.036133"/>
<use xlink:href="#glyph-0-33" x="99.964844" y="100.036133"/>
<use xlink:href="#glyph-0-18" x="104.964844" y="100.036133"/>
<use xlink:href="#glyph-0-8" x="108.964844" y="100.036133"/>
<use xlink:href="#glyph-0-17" x="110.964844" y="100.036133"/>
<use xlink:href="#glyph-0-8" x="113.964844" y="100.036133"/>
<use xlink:href="#glyph-0-6" x="115.964844" y="100.036133"/>
<use xlink:href="#glyph-0-11" x="117.964844" y="100.036133"/>
<use xlink:href="#glyph-0-27" x="121.964844" y="100.036133"/>
<use xlink:href="#glyph-0-17" x="125.964844" y="100.036133"/>
<use xlink:href="#glyph-0-34" x="128.964844" y="100.036133"/>
<use xlink:href="#glyph-0-20" x="133.964844" y="100.036133"/>
<use xlink:href="#glyph-0-10" x="140.964844" y="100.036133"/>
<use xlink:href="#glyph-0-6" x="144.964844" y="100.036133"/>
<use xlink:href="#glyph-0-13" x="146.964844" y="100.036133"/>
<use xlink:href="#glyph-0-6" x="150.964844" y="100.036133"/>
<use xlink:href="#glyph-0-2" x="152.964844" y="100.036133"/>
<use xlink:href="#glyph-0-14" x="157.964844" y="100.036133"/>
<use xlink:href="#glyph-0-9" x="161.964844" y="100.036133"/>
<use xlink:href="#glyph-0-11" x="165.964844" y="100.036133"/>
</g>
<g fill="rgb(32.156863%, 32.156863%, 32.156863%)" fill-opacity="1">
<use xlink:href="#glyph-0-0" x="27.964844" y="83.80957"/>
<use xlink:href="#glyph-0-1" x="32.964844" y="83.80957"/>
<use xlink:href="#glyph-0-2" x="38.964844" y="83.80957"/>
<use xlink:href="#glyph-0-3" x="43.964844" y="83.80957"/>
<use xlink:href="#glyph-0-4" x="48.964844" y="83.80957"/>
<use xlink:href="#glyph-0-5" x="51.964844" y="83.80957"/>
<use xlink:href="#glyph-0-6" x="56.964844" y="83.80957"/>
<use xlink:href="#glyph-0-16" x="58.964844" y="83.80957"/>
<use xlink:href="#glyph-0-10" x="63.964844" y="83.80957"/>
<use xlink:href="#glyph-0-17" x="67.964844" y="83.80957"/>
<use xlink:href="#glyph-0-18" x="70.964844" y="83.80957"/>
<use xlink:href="#glyph-0-8" x="74.964844" y="83.80957"/>
<use xlink:href="#glyph-0-12" x="76.964844" y="83.80957"/>
<use xlink:href="#glyph-0-10" x="78.964844" y="83.80957"/>
<use xlink:href="#glyph-0-18" x="82.964844" y="83.80957"/>
<use xlink:href="#glyph-0-19" x="86.964844" y="83.80957"/>
<use xlink:href="#glyph-0-8" x="89.964844" y="83.80957"/>
<use xlink:href="#glyph-0-17" x="91.964844" y="83.80957"/>
<use xlink:href="#glyph-0-20" x="94.964844" y="83.80957"/>
<use xlink:href="#glyph-0-10" x="101.964844" y="83.80957"/>
<use xlink:href="#glyph-0-6" x="105.964844" y="83.80957"/>
<use xlink:href="#glyph-0-13" x="107.964844" y="83.80957"/>
<use xlink:href="#glyph-0-6" x="111.964844" y="83.80957"/>
<use xlink:href="#glyph-0-7" x="113.964844" y="83.80957"/>
<use xlink:href="#glyph-0-21" x="118.964844" y="83.80957"/>
<use xlink:href="#glyph-0-22" x="123.964844" y="83.80957"/>
<use xlink:href="#glyph-0-6" x="129.964844" y="83.80957"/>
<use xlink:href="#glyph-0-7" x="131.964844" y="83.80957"/>
<use xlink:href="#glyph-0-19" x="136.964844" y="83.80957"/>
<use xlink:href="#glyph-0-10" x="139.964844" y="83.80957"/>
<use xlink:href="#glyph-0-19" x="143.964844" y="83.80957"/>
<use xlink:href="#glyph-0-29" x="146.964844" y="83.80957"/>
<use xlink:href="#glyph-0-23" x="151.964844" y="83.80957"/>
<use xlink:href="#glyph-0-30" x="154.964844" y="83.80957"/>
<use xlink:href="#glyph-0-29" x="160.964844" y="83.80957"/>
<use xlink:href="#glyph-0-31" x="165.964844" y="83.80957"/>
</g>
<g fill="rgb(32.156863%, 32.156863%, 32.156863%)" fill-opacity="1">
<use xlink:href="#glyph-0-0" x="36.964844" y="67.583008"/>
<use xlink:href="#glyph-0-1" x="41.964844" y="67.583008"/>
<use xlink:href="#glyph-0-2" x="47.964844" y="67.583008"/>
<use xlink:href="#glyph-0-3" x="52.964844" y="67.583008"/>
<use xlink:href="#glyph-0-4" x="57.964844" y="67.583008"/>
<use xlink:href="#glyph-0-15" x="60.964844" y="67.583008"/>
<use xlink:href="#glyph-0-6" x="65.964844" y="67.583008"/>
<use xlink:href="#glyph-0-16" x="67.964844" y="67.583008"/>
<use xlink:href="#glyph-0-10" x="72.964844" y="67.583008"/>
<use xlink:href="#glyph-0-17" x="76.964844" y="67.583008"/>
<use xlink:href="#glyph-0-18" x="79.964844" y="67.583008"/>
<use xlink:href="#glyph-0-8" x="83.964844" y="67.583008"/>
<use xlink:href="#glyph-0-12" x="85.964844" y="67.583008"/>
<use xlink:href="#glyph-0-10" x="87.964844" y="67.583008"/>
<use xlink:href="#glyph-0-18" x="91.964844" y="67.583008"/>
<use xlink:href="#glyph-0-19" x="95.964844" y="67.583008"/>
<use xlink:href="#glyph-0-8" x="98.964844" y="67.583008"/>
<use xlink:href="#glyph-0-17" x="100.964844" y="67.583008"/>
<use xlink:href="#glyph-0-20" x="103.964844" y="67.583008"/>
<use xlink:href="#glyph-0-10" x="110.964844" y="67.583008"/>
<use xlink:href="#glyph-0-6" x="114.964844" y="67.583008"/>
<use xlink:href="#glyph-0-13" x="116.964844" y="67.583008"/>
<use xlink:href="#glyph-0-6" x="120.964844" y="67.583008"/>
<use xlink:href="#glyph-0-7" x="122.964844" y="67.583008"/>
<use xlink:href="#glyph-0-21" x="127.964844" y="67.583008"/>
<use xlink:href="#glyph-0-22" x="132.964844" y="67.583008"/>
<use xlink:href="#glyph-0-6" x="138.964844" y="67.583008"/>
<use xlink:href="#glyph-0-21" x="140.964844" y="67.583008"/>
<use xlink:href="#glyph-0-14" x="145.964844" y="67.583008"/>
<use xlink:href="#glyph-0-11" x="149.964844" y="67.583008"/>
<use xlink:href="#glyph-0-10" x="153.964844" y="67.583008"/>
<use xlink:href="#glyph-0-32" x="157.964844" y="67.583008"/>
<use xlink:href="#glyph-0-14" x="162.964844" y="67.583008"/>
<use xlink:href="#glyph-0-19" x="166.964844" y="67.583008"/>
</g>
<g fill="rgb(32.156863%, 32.156863%, 32.156863%)" fill-opacity="1">
<use xlink:href="#glyph-0-0" x="76.964844" y="51.360352"/>
<use xlink:href="#glyph-0-1" x="81.964844" y="51.360352"/>
<use xlink:href="#glyph-0-2" x="87.964844" y="51.360352"/>
<use xlink:href="#glyph-0-3" x="92.964844" y="51.360352"/>
<use xlink:href="#glyph-0-4" x="97.964844" y="51.360352"/>
<use xlink:href="#glyph-0-5" x="100.964844" y="51.360352"/>
<use xlink:href="#glyph-0-6" x="105.964844" y="51.360352"/>
<use xlink:href="#glyph-0-21" x="107.964844" y="51.360352"/>
<use xlink:href="#glyph-0-14" x="112.964844" y="51.360352"/>
<use xlink:href="#glyph-0-35" x="116.964844" y="51.360352"/>
<use xlink:href="#glyph-0-35" x="121.964844" y="51.360352"/>
<use xlink:href="#glyph-0-14" x="126.964844" y="51.360352"/>
<use xlink:href="#glyph-0-19" x="130.964844" y="51.360352"/>
<use xlink:href="#glyph-0-20" x="133.964844" y="51.360352"/>
<use xlink:href="#glyph-0-14" x="140.964844" y="51.360352"/>
<use xlink:href="#glyph-0-6" x="144.964844" y="51.360352"/>
<use xlink:href="#glyph-0-13" x="146.964844" y="51.360352"/>
<use xlink:href="#glyph-0-6" x="150.964844" y="51.360352"/>
<use xlink:href="#glyph-0-2" x="152.964844" y="51.360352"/>
<use xlink:href="#glyph-0-14" x="157.964844" y="51.360352"/>
<use xlink:href="#glyph-0-9" x="161.964844" y="51.360352"/>
<use xlink:href="#glyph-0-11" x="165.964844" y="51.360352"/>
</g>
<g fill="rgb(32.156863%, 32.156863%, 32.156863%)" fill-opacity="1">
<use xlink:href="#glyph-0-0" x="66.964844" y="35.133789"/>
<use xlink:href="#glyph-0-1" x="71.964844" y="35.133789"/>
<use xlink:href="#glyph-0-2" x="77.964844" y="35.133789"/>
<use xlink:href="#glyph-0-3" x="82.964844" y="35.133789"/>
<use xlink:href="#glyph-0-4" x="87.964844" y="35.133789"/>
<use xlink:href="#glyph-0-5" x="90.964844" y="35.133789"/>
<use xlink:href="#glyph-0-6" x="95.964844" y="35.133789"/>
<use xlink:href="#glyph-0-16" x="97.964844" y="35.133789"/>
<use xlink:href="#glyph-0-10" x="102.964844" y="35.133789"/>
<use xlink:href="#glyph-0-17" x="106.964844" y="35.133789"/>
<use xlink:href="#glyph-0-18" x="109.964844" y="35.133789"/>
<use xlink:href="#glyph-0-8" x="113.964844" y="35.133789"/>
<use xlink:href="#glyph-0-12" x="115.964844" y="35.133789"/>
<use xlink:href="#glyph-0-10" x="117.964844" y="35.133789"/>
<use xlink:href="#glyph-0-18" x="121.964844" y="35.133789"/>
<use xlink:href="#glyph-0-19" x="125.964844" y="35.133789"/>
<use xlink:href="#glyph-0-8" x="128.964844" y="35.133789"/>
<use xlink:href="#glyph-0-17" x="130.964844" y="35.133789"/>
<use xlink:href="#glyph-0-20" x="133.964844" y="35.133789"/>
<use xlink:href="#glyph-0-10" x="140.964844" y="35.133789"/>
<use xlink:href="#glyph-0-6" x="144.964844" y="35.133789"/>
<use xlink:href="#glyph-0-13" x="146.964844" y="35.133789"/>
<use xlink:href="#glyph-0-6" x="150.964844" y="35.133789"/>
<use xlink:href="#glyph-0-2" x="152.964844" y="35.133789"/>
<use xlink:href="#glyph-0-14" x="157.964844" y="35.133789"/>
<use xlink:href="#glyph-0-9" x="161.964844" y="35.133789"/>
<use xlink:href="#glyph-0-11" x="165.964844" y="35.133789"/>
</g>
<g fill="rgb(32.156863%, 32.156863%, 32.156863%)" fill-opacity="1">
<use xlink:href="#glyph-0-0" x="36.964844" y="18.907227"/>
<use xlink:href="#glyph-0-1" x="41.964844" y="18.907227"/>
<use xlink:href="#glyph-0-2" x="47.964844" y="18.907227"/>
<use xlink:href="#glyph-0-3" x="52.964844" y="18.907227"/>
<use xlink:href="#glyph-0-4" x="57.964844" y="18.907227"/>
<use xlink:href="#glyph-0-15" x="60.964844" y="18.907227"/>
<use xlink:href="#glyph-0-6" x="65.964844" y="18.907227"/>
<use xlink:href="#glyph-0-16" x="67.964844" y="18.907227"/>
<use xlink:href="#glyph-0-10" x="72.964844" y="18.907227"/>
<use xlink:href="#glyph-0-17" x="76.964844" y="18.907227"/>
<use xlink:href="#glyph-0-18" x="79.964844" y="18.907227"/>
<use xlink:href="#glyph-0-8" x="83.964844" y="18.907227"/>
<use xlink:href="#glyph-0-12" x="85.964844" y="18.907227"/>
<use xlink:href="#glyph-0-10" x="87.964844" y="18.907227"/>
<use xlink:href="#glyph-0-18" x="91.964844" y="18.907227"/>
<use xlink:href="#glyph-0-19" x="95.964844" y="18.907227"/>
<use xlink:href="#glyph-0-8" x="98.964844" y="18.907227"/>
<use xlink:href="#glyph-0-17" x="100.964844" y="18.907227"/>
<use xlink:href="#glyph-0-20" x="103.964844" y="18.907227"/>
<use xlink:href="#glyph-0-10" x="110.964844" y="18.907227"/>
<use xlink:href="#glyph-0-6" x="114.964844" y="18.907227"/>
<use xlink:href="#glyph-0-13" x="116.964844" y="18.907227"/>
<use xlink:href="#glyph-0-6" x="120.964844" y="18.907227"/>
<use xlink:href="#glyph-0-7" x="122.964844" y="18.907227"/>
<use xlink:href="#glyph-0-21" x="127.964844" y="18.907227"/>
<use xlink:href="#glyph-0-22" x="132.964844" y="18.907227"/>
<use xlink:href="#glyph-0-6" x="138.964844" y="18.907227"/>
<use xlink:href="#glyph-0-26" x="140.964844" y="18.907227"/>
<use xlink:href="#glyph-0-10" x="145.964844" y="18.907227"/>
<use xlink:href="#glyph-0-19" x="149.964844" y="18.907227"/>
<use xlink:href="#glyph-0-8" x="152.964844" y="18.907227"/>
<use xlink:href="#glyph-0-18" x="154.964844" y="18.907227"/>
<use xlink:href="#glyph-0-20" x="158.964844" y="18.907227"/>
<use xlink:href="#glyph-0-10" x="165.964844" y="18.907227"/>
</g>
<g fill="rgb(32.156863%, 32.156863%, 32.156863%)" fill-opacity="1">
<use xlink:href="#glyph-0-4" x="247.335938" y="247.055664"/>
<use xlink:href="#glyph-0-36" x="250.335938" y="247.055664"/>
<use xlink:href="#glyph-0-37" x="255.335938" y="247.055664"/>
<use xlink:href="#glyph-0-38" x="257.335938" y="247.055664"/>
</g>
<g fill="rgb(32.156863%, 32.156863%, 32.156863%)" fill-opacity="1">
<use xlink:href="#glyph-0-36" x="335.742188" y="247.055664"/>
<use xlink:href="#glyph-0-37" x="340.742188" y="247.055664"/>
<use xlink:href="#glyph-0-36" x="342.742188" y="247.055664"/>
</g>
<g fill="rgb(32.156863%, 32.156863%, 32.156863%)" fill-opacity="1">
<use xlink:href="#glyph-0-36" x="422.648438" y="247.055664"/>
<use xlink:href="#glyph-0-37" x="427.648438" y="247.055664"/>
<use xlink:href="#glyph-0-38" x="429.648438" y="247.055664"/>
</g>
<g fill="rgb(0%, 0%, 0%)" fill-opacity="1">
<use xlink:href="#glyph-1-0" x="309.742188" y="258.59375"/>
<use xlink:href="#glyph-1-1" x="315.742188" y="258.59375"/>
<use xlink:href="#glyph-1-2" x="321.742188" y="258.59375"/>
<use xlink:href="#glyph-1-3" x="326.742188" y="258.59375"/>
<use xlink:href="#glyph-1-4" x="331.742188" y="258.59375"/>
<use xlink:href="#glyph-1-5" x="335.742188" y="258.59375"/>
<use xlink:href="#glyph-1-3" x="344.742188" y="258.59375"/>
<use xlink:href="#glyph-1-6" x="349.742188" y="258.59375"/>
<use xlink:href="#glyph-1-7" x="355.742188" y="258.59375"/>
<use xlink:href="#glyph-1-4" x="357.742188" y="258.59375"/>
<use xlink:href="#glyph-1-8" x="361.742188" y="258.59375"/>
<use xlink:href="#glyph-1-9" x="367.742188" y="258.59375"/>
</g>
<path fill="none" stroke-width="0.644238" stroke-linecap="round" stroke-linejoin="round" stroke="rgb(0%, 0%, 0%)" stroke-opacity="1" stroke-miterlimit="10" d="M 238.511719 283.667969 C 238.511719 287.082031 233.386719 287.082031 233.386719 283.667969 C 233.386719 280.25 238.511719 280.25 238.511719 283.667969 "/>
<path fill-rule="nonzero" fill="rgb(0%, 0%, 0%)" fill-opacity="1" d="M 295.066406 283.667969 C 295.066406 287.082031 289.941406 287.082031 289.941406 283.667969 C 289.941406 280.25 295.066406 280.25 295.066406 283.667969 "/>
<g fill="rgb(0%, 0%, 0%)" fill-opacity="1">
<use xlink:href="#glyph-0-28" x="248.726562" y="285.868164"/>
<use xlink:href="#glyph-0-6" x="253.726562" y="285.868164"/>
<use xlink:href="#glyph-0-39" x="255.726562" y="285.868164"/>
<use xlink:href="#glyph-0-40" x="260.726562" y="285.868164"/>
<use xlink:href="#glyph-0-6" x="265.726562" y="285.868164"/>
<use xlink:href="#glyph-0-37" x="267.726562" y="285.868164"/>
<use xlink:href="#glyph-0-36" x="269.726562" y="285.868164"/>
<use xlink:href="#glyph-0-41" x="274.726562" y="285.868164"/>
</g>
<g fill="rgb(0%, 0%, 0%)" fill-opacity="1">
<use xlink:href="#glyph-0-28" x="305.277344" y="285.868164"/>
<use xlink:href="#glyph-0-6" x="310.277344" y="285.868164"/>
<use xlink:href="#glyph-0-42" x="312.277344" y="285.868164"/>
<use xlink:href="#glyph-0-6" x="317.277344" y="285.868164"/>
<use xlink:href="#glyph-0-37" x="319.277344" y="285.868164"/>
<use xlink:href="#glyph-0-36" x="321.277344" y="285.868164"/>
<use xlink:href="#glyph-0-41" x="326.277344" y="285.868164"/>
</g>
<path fill-rule="nonzero" fill="rgb(6.666667%, 57.254902%, 90.980392%)" fill-opacity="1" stroke-width="0.644238" stroke-linecap="round" stroke-linejoin="round" stroke="rgb(6.666667%, 57.254902%, 90.980392%)" stroke-opacity="1" stroke-miterlimit="10" d="M 361.5625 283.667969 C 361.5625 287.082031 356.4375 287.082031 356.4375 283.667969 C 356.4375 280.25 361.5625 280.25 361.5625 283.667969 "/>
<path fill-rule="nonzero" fill="rgb(41.176471%, 16.078431%, 76.862745%)" fill-opacity="1" stroke-width="0.644238" stroke-linecap="round" stroke-linejoin="round" stroke="rgb(41.176471%, 16.078431%, 76.862745%)" stroke-opacity="1" stroke-miterlimit="10" d="M 416.117188 283.667969 C 416.117188 287.082031 410.988281 287.082031 410.988281 283.667969 C 410.988281 280.25 416.117188 280.25 416.117188 283.667969 "/>
<g fill="rgb(0%, 0%, 0%)" fill-opacity="1">
<use xlink:href="#glyph-0-0" x="371.777344" y="285.868164"/>
<use xlink:href="#glyph-0-1" x="376.777344" y="285.868164"/>
<use xlink:href="#glyph-0-2" x="382.777344" y="285.868164"/>
<use xlink:href="#glyph-0-3" x="387.777344" y="285.868164"/>
<use xlink:href="#glyph-0-4" x="392.777344" y="285.868164"/>
<use xlink:href="#glyph-0-15" x="395.777344" y="285.868164"/>
</g>
<g fill="rgb(0%, 0%, 0%)" fill-opacity="1">
<use xlink:href="#glyph-0-0" x="426.328125" y="285.868164"/>
<use xlink:href="#glyph-0-1" x="431.328125" y="285.868164"/>
<use xlink:href="#glyph-0-2" x="437.328125" y="285.868164"/>
<use xlink:href="#glyph-0-3" x="442.328125" y="285.868164"/>
<use xlink:href="#glyph-0-4" x="447.328125" y="285.868164"/>
<use xlink:href="#glyph-0-5" x="450.328125" y="285.868164"/>
</g>
</svg>
