<?xml version="1.0" encoding="UTF-8"?>
<svg data-carbon-style="IBM Carbon Design System v11" data-carbon-charts-source="carbon-design-system/carbon-charts packages/core/scss" data-font="IBM Plex Sans" data-chart-palette="@carbon/charts white 14" xmlns="http://www.w3.org/2000/svg" xmlns:xlink="http://www.w3.org/1999/xlink" width="576pt" height="288pt" viewBox="0 0 576 288">
<defs>
<style type="text/css"><![CDATA[
.carbon-note{font-family:'IBM Plex Sans', sans-serif;}
.tdl-node,.tdl-connector,.tdl-label-pill,.tdl-flow-number{vector-effect:non-scaling-stroke;}
.tdl-connector{fill:none;}
]]></style>
<g>
<g id="glyph-0-0">
<path d="M 0.71875 -6.3125 L 1.40625 -6.3125 L 1.40625 -3.6875 L 1.4375 -3.6875 C 1.550781 -3.9375 1.703125 -4.132812 1.890625 -4.28125 C 2.085938 -4.425781 2.351562 -4.5 2.6875 -4.5 C 3.144531 -4.5 3.503906 -4.351562 3.765625 -4.0625 C 4.023438 -3.769531 4.15625 -3.359375 4.15625 -2.828125 L 4.15625 0 L 3.484375 0 L 3.484375 -2.703125 C 3.484375 -3.492188 3.148438 -3.890625 2.484375 -3.890625 C 2.347656 -3.890625 2.210938 -3.867188 2.078125 -3.828125 C 1.953125 -3.796875 1.835938 -3.742188 1.734375 -3.671875 C 1.640625 -3.609375 1.5625 -3.523438 1.5 -3.421875 C 1.4375 -3.316406 1.40625 -3.191406 1.40625 -3.046875 L 1.40625 0 L 0.71875 0 Z M 0.71875 -6.3125 "/>
</g>
<g id="glyph-0-1">
<path d="M 2.375 0.109375 C 2.070312 0.109375 1.800781 0.0546875 1.5625 -0.046875 C 1.320312 -0.160156 1.113281 -0.316406 0.9375 -0.515625 C 0.769531 -0.722656 0.640625 -0.96875 0.546875 -1.25 C 0.453125 -1.53125 0.40625 -1.847656 0.40625 -2.203125 C 0.40625 -2.546875 0.453125 -2.859375 0.546875 -3.140625 C 0.640625 -3.429688 0.769531 -3.675781 0.9375 -3.875 C 1.113281 -4.082031 1.320312 -4.238281 1.5625 -4.34375 C 1.800781 -4.445312 2.070312 -4.5 2.375 -4.5 C 2.675781 -4.5 2.941406 -4.445312 3.171875 -4.34375 C 3.410156 -4.238281 3.609375 -4.085938 3.765625 -3.890625 C 3.929688 -3.703125 4.054688 -3.476562 4.140625 -3.21875 C 4.234375 -2.957031 4.28125 -2.671875 4.28125 -2.359375 L 4.28125 -2.03125 L 1.125 -2.03125 L 1.125 -1.828125 C 1.125 -1.640625 1.148438 -1.460938 1.203125 -1.296875 C 1.265625 -1.140625 1.347656 -1 1.453125 -0.875 C 1.566406 -0.757812 1.703125 -0.664062 1.859375 -0.59375 C 2.023438 -0.53125 2.210938 -0.5 2.421875 -0.5 C 2.703125 -0.5 2.945312 -0.5625 3.15625 -0.6875 C 3.363281 -0.820312 3.523438 -1.007812 3.640625 -1.25 L 4.125 -0.90625 C 3.976562 -0.601562 3.753906 -0.359375 3.453125 -0.171875 C 3.148438 0.015625 2.789062 0.109375 2.375 0.109375 Z M 2.375 -3.9375 C 2.1875 -3.9375 2.015625 -3.898438 1.859375 -3.828125 C 1.710938 -3.765625 1.582031 -3.671875 1.46875 -3.546875 C 1.363281 -3.429688 1.28125 -3.289062 1.21875 -3.125 C 1.15625 -2.96875 1.125 -2.796875 1.125 -2.609375 L 1.125 -2.546875 L 3.546875 -2.546875 L 3.546875 -2.640625 C 3.546875 -3.023438 3.4375 -3.335938 3.21875 -3.578125 C 3.007812 -3.816406 2.726562 -3.9375 2.375 -3.9375 Z M 2.375 -3.9375 "/>
</g>
<g id="glyph-0-2">
<path d="M 3.546875 -0.71875 L 3.5 -0.71875 C 3.238281 -0.164062 2.8125 0.109375 2.21875 0.109375 C 1.945312 0.109375 1.695312 0.0546875 1.46875 -0.046875 C 1.25 -0.160156 1.0625 -0.316406 0.90625 -0.515625 C 0.75 -0.710938 0.628906 -0.953125 0.546875 -1.234375 C 0.460938 -1.523438 0.421875 -1.847656 0.421875 -2.203125 C 0.421875 -2.554688 0.460938 -2.875 0.546875 -3.15625 C 0.628906 -3.4375 0.75 -3.675781 0.90625 -3.875 C 1.0625 -4.082031 1.25 -4.238281 1.46875 -4.34375 C 1.695312 -4.445312 1.945312 -4.5 2.21875 -4.5 C 2.519531 -4.5 2.78125 -4.429688 3 -4.296875 C 3.21875 -4.171875 3.382812 -3.96875 3.5 -3.6875 L 3.546875 -3.6875 L 3.546875 -6.3125 L 4.21875 -6.3125 L 4.21875 0 L 3.546875 0 Z M 2.40625 -0.515625 C 2.5625 -0.515625 2.707031 -0.53125 2.84375 -0.5625 C 2.976562 -0.601562 3.097656 -0.660156 3.203125 -0.734375 C 3.304688 -0.816406 3.390625 -0.910156 3.453125 -1.015625 C 3.515625 -1.128906 3.546875 -1.257812 3.546875 -1.40625 L 3.546875 -3.046875 C 3.546875 -3.160156 3.515625 -3.269531 3.453125 -3.375 C 3.390625 -3.488281 3.304688 -3.582031 3.203125 -3.65625 C 3.097656 -3.726562 2.976562 -3.785156 2.84375 -3.828125 C 2.707031 -3.867188 2.5625 -3.890625 2.40625 -3.890625 C 2.019531 -3.890625 1.710938 -3.769531 1.484375 -3.53125 C 1.265625 -3.289062 1.15625 -2.972656 1.15625 -2.578125 L 1.15625 -1.828125 C 1.15625 -1.429688 1.265625 -1.113281 1.484375 -0.875 C 1.710938 -0.632812 2.019531 -0.515625 2.40625 -0.515625 Z M 2.40625 -0.515625 "/>
</g>
<g id="glyph-0-3">
<path d="M 0.96875 -3.8125 L 0.25 -3.8125 L 0.25 -4.40625 L 0.96875 -4.40625 L 0.96875 -5.296875 C 0.96875 -5.597656 1.046875 -5.84375 1.203125 -6.03125 C 1.359375 -6.21875 1.597656 -6.3125 1.921875 -6.3125 L 2.59375 -6.3125 L 2.59375 -5.71875 L 1.640625 -5.71875 L 1.640625 -4.40625 L 2.59375 -4.40625 L 2.59375 -3.8125 L 1.640625 -3.8125 L 1.640625 0 L 0.96875 0 Z M 0.96875 -3.8125 "/>
</g>
<g id="glyph-0-4">
<path d="M 3.4375 -0.71875 L 3.40625 -0.71875 C 3.351562 -0.613281 3.296875 -0.507812 3.234375 -0.40625 C 3.171875 -0.3125 3.085938 -0.222656 2.984375 -0.140625 C 2.890625 -0.0664062 2.773438 -0.0078125 2.640625 0.03125 C 2.503906 0.0820312 2.347656 0.109375 2.171875 0.109375 C 1.710938 0.109375 1.347656 -0.0351562 1.078125 -0.328125 C 0.816406 -0.628906 0.6875 -1.046875 0.6875 -1.578125 L 0.6875 -4.40625 L 1.359375 -4.40625 L 1.359375 -1.703125 C 1.359375 -0.910156 1.695312 -0.515625 2.375 -0.515625 C 2.507812 -0.515625 2.640625 -0.53125 2.765625 -0.5625 C 2.890625 -0.59375 3.003906 -0.640625 3.109375 -0.703125 C 3.210938 -0.773438 3.289062 -0.863281 3.34375 -0.96875 C 3.40625 -1.082031 3.4375 -1.210938 3.4375 -1.359375 L 3.4375 -4.40625 L 4.125 -4.40625 L 4.125 0 L 3.4375 0 Z M 1.625 -5.265625 C 1.476562 -5.265625 1.367188 -5.300781 1.296875 -5.375 C 1.234375 -5.445312 1.203125 -5.546875 1.203125 -5.671875 L 1.203125 -5.765625 C 1.203125 -5.878906 1.234375 -5.972656 1.296875 -6.046875 C 1.367188 -6.117188 1.476562 -6.15625 1.625 -6.15625 C 1.769531 -6.15625 1.875 -6.117188 1.9375 -6.046875 C 2.007812 -5.972656 2.046875 -5.878906 2.046875 -5.765625 L 2.046875 -5.671875 C 2.046875 -5.546875 2.007812 -5.445312 1.9375 -5.375 C 1.875 -5.300781 1.769531 -5.265625 1.625 -5.265625 Z M 3.21875 -5.265625 C 3.0625 -5.265625 2.953125 -5.300781 2.890625 -5.375 C 2.828125 -5.445312 2.796875 -5.546875 2.796875 -5.671875 L 2.796875 -5.765625 C 2.796875 -5.878906 2.828125 -5.972656 2.890625 -6.046875 C 2.953125 -6.117188 3.0625 -6.15625 3.21875 -6.15625 C 3.363281 -6.15625 3.46875 -6.117188 3.53125 -6.046875 C 3.59375 -5.972656 3.625 -5.878906 3.625 -5.765625 L 3.625 -5.671875 C 3.625 -5.546875 3.59375 -5.445312 3.53125 -5.375 C 3.46875 -5.300781 3.363281 -5.265625 3.21875 -5.265625 Z M 3.21875 -5.265625 "/>
</g>
<g id="glyph-0-5">
<path d="M 2.046875 0.109375 C 1.640625 0.109375 1.296875 0.03125 1.015625 -0.125 C 0.742188 -0.28125 0.507812 -0.492188 0.3125 -0.765625 L 0.796875 -1.15625 C 0.960938 -0.9375 1.148438 -0.769531 1.359375 -0.65625 C 1.578125 -0.539062 1.820312 -0.484375 2.09375 -0.484375 C 2.382812 -0.484375 2.609375 -0.546875 2.765625 -0.671875 C 2.929688 -0.796875 3.015625 -0.96875 3.015625 -1.1875 C 3.015625 -1.363281 2.957031 -1.507812 2.84375 -1.625 C 2.738281 -1.75 2.539062 -1.835938 2.25 -1.890625 L 1.90625 -1.9375 C 1.695312 -1.96875 1.503906 -2.007812 1.328125 -2.0625 C 1.160156 -2.125 1.015625 -2.203125 0.890625 -2.296875 C 0.765625 -2.398438 0.664062 -2.523438 0.59375 -2.671875 C 0.519531 -2.828125 0.484375 -3.003906 0.484375 -3.203125 C 0.484375 -3.421875 0.519531 -3.609375 0.59375 -3.765625 C 0.675781 -3.929688 0.785156 -4.066406 0.921875 -4.171875 C 1.066406 -4.285156 1.234375 -4.367188 1.421875 -4.421875 C 1.617188 -4.472656 1.832031 -4.5 2.0625 -4.5 C 2.414062 -4.5 2.710938 -4.4375 2.953125 -4.3125 C 3.191406 -4.1875 3.40625 -4.015625 3.59375 -3.796875 L 3.140625 -3.390625 C 3.046875 -3.523438 2.90625 -3.644531 2.71875 -3.75 C 2.53125 -3.863281 2.289062 -3.921875 2 -3.921875 C 1.71875 -3.921875 1.503906 -3.859375 1.359375 -3.734375 C 1.210938 -3.617188 1.140625 -3.453125 1.140625 -3.234375 C 1.140625 -3.023438 1.210938 -2.867188 1.359375 -2.765625 C 1.503906 -2.671875 1.710938 -2.601562 1.984375 -2.5625 L 2.328125 -2.515625 C 2.816406 -2.429688 3.160156 -2.285156 3.359375 -2.078125 C 3.566406 -1.878906 3.671875 -1.609375 3.671875 -1.265625 C 3.671875 -0.835938 3.523438 -0.5 3.234375 -0.25 C 2.953125 -0.0078125 2.554688 0.109375 2.046875 0.109375 Z M 2.046875 0.109375 "/>
</g>
<g id="glyph-0-6">
<path d="M 1.703125 0 C 1.460938 0 1.28125 -0.0664062 1.15625 -0.203125 C 1.03125 -0.335938 0.96875 -0.507812 0.96875 -0.71875 L 0.96875 -3.8125 L 0.25 -3.8125 L 0.25 -4.40625 L 0.65625 -4.40625 C 0.800781 -4.40625 0.898438 -4.429688 0.953125 -4.484375 C 1.015625 -4.546875 1.046875 -4.648438 1.046875 -4.796875 L 1.046875 -5.625 L 1.65625 -5.625 L 1.65625 -4.40625 L 2.625 -4.40625 L 2.625 -3.8125 L 1.65625 -3.8125 L 1.65625 -0.59375 L 2.546875 -0.59375 L 2.546875 0 Z M 1.703125 0 "/>
</g>
<g id="glyph-0-7">
<path d="M 0.71875 0 L 0.71875 -4.40625 L 1.40625 -4.40625 L 1.40625 -3.59375 L 1.453125 -3.59375 C 1.523438 -3.800781 1.664062 -3.988281 1.875 -4.15625 C 2.082031 -4.320312 2.363281 -4.40625 2.71875 -4.40625 L 2.984375 -4.40625 L 2.984375 -3.71875 L 2.578125 -3.71875 C 2.210938 -3.71875 1.925781 -3.644531 1.71875 -3.5 C 1.507812 -3.363281 1.40625 -3.191406 1.40625 -2.984375 L 1.40625 0 Z M 0.71875 0 "/>
</g>
<g id="glyph-0-8">
<path d="M 1.0625 -5.4375 C 0.914062 -5.4375 0.804688 -5.46875 0.734375 -5.53125 C 0.671875 -5.601562 0.640625 -5.695312 0.640625 -5.8125 L 0.640625 -5.921875 C 0.640625 -6.035156 0.671875 -6.128906 0.734375 -6.203125 C 0.804688 -6.273438 0.914062 -6.3125 1.0625 -6.3125 C 1.207031 -6.3125 1.3125 -6.273438 1.375 -6.203125 C 1.445312 -6.128906 1.484375 -6.035156 1.484375 -5.921875 L 1.484375 -5.8125 C 1.484375 -5.695312 1.445312 -5.601562 1.375 -5.53125 C 1.3125 -5.46875 1.207031 -5.4375 1.0625 -5.4375 Z M 0.71875 -4.40625 L 1.40625 -4.40625 L 1.40625 0 L 0.71875 0 Z M 0.71875 -4.40625 "/>
</g>
<g id="glyph-0-9">
<path d="M 0.71875 -6.3125 L 1.40625 -6.3125 L 1.40625 -2.3125 L 1.4375 -2.3125 L 2.109375 -3.0625 L 3.359375 -4.40625 L 4.1875 -4.40625 L 2.5625 -2.65625 L 4.34375 0 L 3.53125 0 L 2.0625 -2.25 L 1.40625 -1.5625 L 1.40625 0 L 0.71875 0 Z M 0.71875 -6.3125 "/>
</g>
<g id="glyph-1-0">
<path d="M 2.640625 0.109375 C 1.910156 0.109375 1.375 -0.164062 1.03125 -0.71875 C 0.695312 -1.28125 0.53125 -2.0625 0.53125 -3.0625 C 0.53125 -4.070312 0.695312 -4.851562 1.03125 -5.40625 C 1.375 -5.96875 1.910156 -6.25 2.640625 -6.25 C 3.367188 -6.25 3.898438 -5.96875 4.234375 -5.40625 C 4.578125 -4.851562 4.75 -4.070312 4.75 -3.0625 C 4.75 -2.0625 4.578125 -1.28125 4.234375 -0.71875 C 3.898438 -0.164062 3.367188 0.109375 2.640625 0.109375 Z M 2.640625 -0.53125 C 2.878906 -0.53125 3.082031 -0.578125 3.25 -0.671875 C 3.425781 -0.773438 3.566406 -0.914062 3.671875 -1.09375 C 3.773438 -1.28125 3.847656 -1.5 3.890625 -1.75 C 3.941406 -2 3.96875 -2.269531 3.96875 -2.5625 L 3.96875 -3.578125 C 3.96875 -3.867188 3.941406 -4.140625 3.890625 -4.390625 C 3.847656 -4.640625 3.773438 -4.851562 3.671875 -5.03125 C 3.566406 -5.207031 3.425781 -5.347656 3.25 -5.453125 C 3.082031 -5.554688 2.878906 -5.609375 2.640625 -5.609375 C 2.398438 -5.609375 2.191406 -5.554688 2.015625 -5.453125 C 1.847656 -5.347656 1.710938 -5.207031 1.609375 -5.03125 C 1.503906 -4.851562 1.425781 -4.640625 1.375 -4.390625 C 1.320312 -4.140625 1.296875 -3.867188 1.296875 -3.578125 L 1.296875 -2.5625 C 1.296875 -2.269531 1.320312 -2 1.375 -1.75 C 1.425781 -1.5 1.503906 -1.28125 1.609375 -1.09375 C 1.710938 -0.914062 1.847656 -0.773438 2.015625 -0.671875 C 2.191406 -0.578125 2.398438 -0.53125 2.640625 -0.53125 Z M 2.640625 -0.53125 "/>
</g>
<g id="glyph-1-1">
<path d="M 4.6875 0 L 0.65625 0 L 0.65625 -0.75 L 2.671875 -2.609375 C 2.953125 -2.867188 3.1875 -3.144531 3.375 -3.4375 C 3.570312 -3.738281 3.671875 -4.039062 3.671875 -4.34375 L 3.671875 -4.4375 C 3.671875 -4.78125 3.578125 -5.054688 3.390625 -5.265625 C 3.203125 -5.484375 2.921875 -5.59375 2.546875 -5.59375 C 2.359375 -5.59375 2.191406 -5.5625 2.046875 -5.5 C 1.910156 -5.445312 1.789062 -5.375 1.6875 -5.28125 C 1.582031 -5.1875 1.492188 -5.078125 1.421875 -4.953125 C 1.359375 -4.828125 1.304688 -4.691406 1.265625 -4.546875 L 0.609375 -4.796875 C 0.660156 -4.984375 0.738281 -5.160156 0.84375 -5.328125 C 0.945312 -5.503906 1.078125 -5.660156 1.234375 -5.796875 C 1.390625 -5.929688 1.578125 -6.039062 1.796875 -6.125 C 2.015625 -6.207031 2.273438 -6.25 2.578125 -6.25 C 2.878906 -6.25 3.144531 -6.203125 3.375 -6.109375 C 3.613281 -6.023438 3.8125 -5.898438 3.96875 -5.734375 C 4.125 -5.578125 4.242188 -5.390625 4.328125 -5.171875 C 4.410156 -4.960938 4.453125 -4.722656 4.453125 -4.453125 C 4.453125 -4.210938 4.414062 -3.988281 4.34375 -3.78125 C 4.28125 -3.582031 4.191406 -3.390625 4.078125 -3.203125 C 3.960938 -3.015625 3.820312 -2.832031 3.65625 -2.65625 C 3.488281 -2.488281 3.304688 -2.316406 3.109375 -2.140625 L 1.453125 -0.65625 L 4.6875 -0.65625 Z M 4.6875 0 "/>
</g>
<g id="glyph-1-2">
<path d="M 3.296875 0 L 3.296875 -1.203125 L 0.328125 -1.203125 L 0.328125 -1.859375 L 2.90625 -6.140625 L 4 -6.140625 L 4 -1.828125 L 4.890625 -1.828125 L 4.890625 -1.203125 L 4 -1.203125 L 4 0 Z M 1.03125 -1.828125 L 3.296875 -1.828125 L 3.296875 -5.5625 L 3.25 -5.5625 Z M 1.03125 -1.828125 "/>
</g>
<g id="glyph-1-3">
<path d="M 2.640625 0.109375 C 2.328125 0.109375 2.039062 0.0546875 1.78125 -0.046875 C 1.53125 -0.160156 1.316406 -0.316406 1.140625 -0.515625 C 0.960938 -0.722656 0.828125 -0.972656 0.734375 -1.265625 C 0.640625 -1.554688 0.59375 -1.882812 0.59375 -2.25 C 0.59375 -2.707031 0.660156 -3.132812 0.796875 -3.53125 C 0.929688 -3.9375 1.101562 -4.304688 1.3125 -4.640625 C 1.53125 -4.972656 1.765625 -5.265625 2.015625 -5.515625 C 2.273438 -5.773438 2.53125 -5.984375 2.78125 -6.140625 L 3.734375 -6.140625 C 3.398438 -5.898438 3.101562 -5.664062 2.84375 -5.4375 C 2.59375 -5.207031 2.367188 -4.96875 2.171875 -4.71875 C 1.972656 -4.46875 1.804688 -4.203125 1.671875 -3.921875 C 1.546875 -3.640625 1.441406 -3.316406 1.359375 -2.953125 L 1.40625 -2.9375 C 1.550781 -3.1875 1.738281 -3.394531 1.96875 -3.5625 C 2.195312 -3.726562 2.5 -3.8125 2.875 -3.8125 C 3.132812 -3.8125 3.375 -3.765625 3.59375 -3.671875 C 3.820312 -3.585938 4.015625 -3.460938 4.171875 -3.296875 C 4.335938 -3.140625 4.460938 -2.941406 4.546875 -2.703125 C 4.640625 -2.472656 4.6875 -2.210938 4.6875 -1.921875 C 4.6875 -1.628906 4.640625 -1.359375 4.546875 -1.109375 C 4.453125 -0.859375 4.3125 -0.640625 4.125 -0.453125 C 3.945312 -0.273438 3.734375 -0.132812 3.484375 -0.03125 C 3.234375 0.0625 2.953125 0.109375 2.640625 0.109375 Z M 2.640625 -0.53125 C 3.046875 -0.53125 3.359375 -0.640625 3.578125 -0.859375 C 3.804688 -1.085938 3.921875 -1.410156 3.921875 -1.828125 L 3.921875 -1.90625 C 3.921875 -2.320312 3.804688 -2.640625 3.578125 -2.859375 C 3.359375 -3.078125 3.046875 -3.1875 2.640625 -3.1875 C 2.234375 -3.1875 1.914062 -3.078125 1.6875 -2.859375 C 1.46875 -2.640625 1.359375 -2.320312 1.359375 -1.90625 L 1.359375 -1.828125 C 1.359375 -1.410156 1.46875 -1.085938 1.6875 -0.859375 C 1.914062 -0.640625 2.234375 -0.53125 2.640625 -0.53125 Z M 2.640625 -0.53125 "/>
</g>
<g id="glyph-1-4">
<path d="M 2.640625 0.109375 C 2.285156 0.109375 1.972656 0.0625 1.703125 -0.03125 C 1.441406 -0.125 1.222656 -0.25 1.046875 -0.40625 C 0.867188 -0.5625 0.734375 -0.75 0.640625 -0.96875 C 0.554688 -1.1875 0.515625 -1.421875 0.515625 -1.671875 C 0.515625 -2.097656 0.628906 -2.429688 0.859375 -2.671875 C 1.085938 -2.921875 1.382812 -3.09375 1.75 -3.1875 L 1.75 -3.265625 C 1.425781 -3.378906 1.164062 -3.554688 0.96875 -3.796875 C 0.78125 -4.046875 0.6875 -4.347656 0.6875 -4.703125 C 0.6875 -5.171875 0.859375 -5.546875 1.203125 -5.828125 C 1.546875 -6.109375 2.023438 -6.25 2.640625 -6.25 C 3.253906 -6.25 3.726562 -6.109375 4.0625 -5.828125 C 4.40625 -5.546875 4.578125 -5.171875 4.578125 -4.703125 C 4.578125 -4.347656 4.484375 -4.046875 4.296875 -3.796875 C 4.109375 -3.554688 3.851562 -3.378906 3.53125 -3.265625 L 3.53125 -3.1875 C 3.894531 -3.09375 4.191406 -2.921875 4.421875 -2.671875 C 4.648438 -2.429688 4.765625 -2.097656 4.765625 -1.671875 C 4.765625 -1.421875 4.71875 -1.1875 4.625 -0.96875 C 4.539062 -0.75 4.40625 -0.5625 4.21875 -0.40625 C 4.039062 -0.25 3.820312 -0.125 3.5625 -0.03125 C 3.300781 0.0625 2.992188 0.109375 2.640625 0.109375 Z M 2.640625 -0.53125 C 3.066406 -0.53125 3.394531 -0.625 3.625 -0.8125 C 3.863281 -1.007812 3.984375 -1.285156 3.984375 -1.640625 L 3.984375 -1.828125 C 3.984375 -2.171875 3.863281 -2.4375 3.625 -2.625 C 3.394531 -2.820312 3.066406 -2.921875 2.640625 -2.921875 C 2.210938 -2.921875 1.878906 -2.820312 1.640625 -2.625 C 1.410156 -2.4375 1.296875 -2.171875 1.296875 -1.828125 L 1.296875 -1.640625 C 1.296875 -1.285156 1.410156 -1.007812 1.640625 -0.8125 C 1.878906 -0.625 2.210938 -0.53125 2.640625 -0.53125 Z M 2.640625 -3.53125 C 3.023438 -3.53125 3.316406 -3.613281 3.515625 -3.78125 C 3.710938 -3.945312 3.8125 -4.1875 3.8125 -4.5 L 3.8125 -4.640625 C 3.8125 -4.953125 3.710938 -5.191406 3.515625 -5.359375 C 3.316406 -5.523438 3.023438 -5.609375 2.640625 -5.609375 C 2.253906 -5.609375 1.957031 -5.523438 1.75 -5.359375 C 1.550781 -5.191406 1.453125 -4.953125 1.453125 -4.640625 L 1.453125 -4.5 C 1.453125 -4.1875 1.550781 -3.945312 1.75 -3.78125 C 1.957031 -3.613281 2.253906 -3.53125 2.640625 -3.53125 Z M 2.640625 -3.53125 "/>
</g>
<g id="glyph-1-5">
<path d="M 1.546875 0 L 3.890625 -5.5 L 1.265625 -5.5 L 1.265625 -4.359375 L 0.609375 -4.359375 L 0.609375 -6.140625 L 4.640625 -6.140625 L 4.640625 -5.484375 L 2.328125 0 Z M 1.546875 0 "/>
</g>
<g id="glyph-1-6">
<path d="M 1.203125 0.109375 C 1.015625 0.109375 0.875 0.0625 0.78125 -0.03125 C 0.695312 -0.125 0.65625 -0.25 0.65625 -0.40625 L 0.65625 -0.515625 C 0.65625 -0.671875 0.695312 -0.796875 0.78125 -0.890625 C 0.875 -0.984375 1.015625 -1.03125 1.203125 -1.03125 C 1.390625 -1.03125 1.523438 -0.984375 1.609375 -0.890625 C 1.691406 -0.796875 1.734375 -0.671875 1.734375 -0.515625 L 1.734375 -0.40625 C 1.734375 -0.25 1.691406 -0.125 1.609375 -0.03125 C 1.523438 0.0625 1.390625 0.109375 1.203125 0.109375 Z M 1.203125 0.109375 "/>
</g>
<g id="glyph-1-7">
<path d="M 4.375 -5.484375 L 1.6875 -5.484375 L 1.515625 -3.15625 L 1.578125 -3.15625 C 1.722656 -3.351562 1.882812 -3.515625 2.0625 -3.640625 C 2.25 -3.765625 2.503906 -3.828125 2.828125 -3.828125 C 3.097656 -3.828125 3.34375 -3.78125 3.5625 -3.6875 C 3.78125 -3.601562 3.972656 -3.476562 4.140625 -3.3125 C 4.304688 -3.15625 4.429688 -2.957031 4.515625 -2.71875 C 4.609375 -2.488281 4.65625 -2.222656 4.65625 -1.921875 C 4.65625 -1.628906 4.609375 -1.359375 4.515625 -1.109375 C 4.421875 -0.859375 4.285156 -0.640625 4.109375 -0.453125 C 3.929688 -0.273438 3.710938 -0.132812 3.453125 -0.03125 C 3.203125 0.0625 2.914062 0.109375 2.59375 0.109375 C 2.332031 0.109375 2.101562 0.078125 1.90625 0.015625 C 1.71875 -0.046875 1.546875 -0.125 1.390625 -0.21875 C 1.234375 -0.320312 1.097656 -0.429688 0.984375 -0.546875 C 0.867188 -0.671875 0.765625 -0.800781 0.671875 -0.9375 L 1.234375 -1.359375 C 1.304688 -1.234375 1.382812 -1.117188 1.46875 -1.015625 C 1.550781 -0.921875 1.644531 -0.835938 1.75 -0.765625 C 1.851562 -0.703125 1.972656 -0.648438 2.109375 -0.609375 C 2.242188 -0.566406 2.40625 -0.546875 2.59375 -0.546875 C 3.019531 -0.546875 3.335938 -0.65625 3.546875 -0.875 C 3.765625 -1.101562 3.875 -1.421875 3.875 -1.828125 L 3.875 -1.921875 C 3.875 -2.328125 3.765625 -2.640625 3.546875 -2.859375 C 3.335938 -3.078125 3.019531 -3.1875 2.59375 -3.1875 C 2.3125 -3.1875 2.085938 -3.132812 1.921875 -3.03125 C 1.765625 -2.9375 1.625 -2.816406 1.5 -2.671875 L 0.875 -2.765625 L 1.09375 -6.140625 L 4.375 -6.140625 Z M 4.375 -5.484375 "/>
</g>
<g id="glyph-1-8">
<path d="M 0.78125 0 L 0.78125 -0.65625 L 2.484375 -0.65625 L 2.484375 -5.59375 L 2.421875 -5.59375 L 0.875 -4.15625 L 0.453125 -4.625 L 2.078125 -6.140625 L 3.234375 -6.140625 L 3.234375 -0.65625 L 4.8125 -0.65625 L 4.8125 0 Z M 0.78125 0 "/>
</g>
<g id="glyph-2-0">
<path d="M 5.828125 -3.46875 L 1.953125 -3.46875 L 1.953125 0 L 1.015625 0 L 1.015625 -7.671875 L 1.953125 -7.671875 L 1.953125 -4.296875 L 5.828125 -4.296875 L 5.828125 -7.671875 L 6.75 -7.671875 L 6.75 0 L 5.828125 0 Z M 5.828125 -3.46875 "/>
</g>
<g id="glyph-2-1">
<path d="M 0.9375 -8.140625 L 1.8125 -8.140625 L 1.8125 -4.75 L 1.859375 -4.75 C 2.003906 -5.113281 2.21875 -5.378906 2.5 -5.546875 C 2.78125 -5.722656 3.117188 -5.8125 3.515625 -5.8125 C 3.867188 -5.8125 4.1875 -5.738281 4.46875 -5.59375 C 4.757812 -5.457031 5.003906 -5.257812 5.203125 -5 C 5.410156 -4.75 5.566406 -4.4375 5.671875 -4.0625 C 5.773438 -3.695312 5.828125 -3.289062 5.828125 -2.84375 C 5.828125 -2.382812 5.773438 -1.972656 5.671875 -1.609375 C 5.566406 -1.242188 5.410156 -0.929688 5.203125 -0.671875 C 5.003906 -0.410156 4.757812 -0.210938 4.46875 -0.078125 C 4.1875 0.0546875 3.867188 0.125 3.515625 0.125 C 2.742188 0.125 2.191406 -0.222656 1.859375 -0.921875 L 1.8125 -0.921875 L 1.8125 0 L 0.9375 0 Z M 3.28125 -0.65625 C 3.78125 -0.65625 4.171875 -0.8125 4.453125 -1.125 C 4.742188 -1.4375 4.890625 -1.847656 4.890625 -2.359375 L 4.890625 -3.328125 C 4.890625 -3.828125 4.742188 -4.234375 4.453125 -4.546875 C 4.171875 -4.859375 3.78125 -5.015625 3.28125 -5.015625 C 3.082031 -5.015625 2.890625 -4.984375 2.703125 -4.921875 C 2.523438 -4.867188 2.367188 -4.796875 2.234375 -4.703125 C 2.109375 -4.609375 2.003906 -4.492188 1.921875 -4.359375 C 1.847656 -4.222656 1.8125 -4.078125 1.8125 -3.921875 L 1.8125 -1.8125 C 1.8125 -1.632812 1.847656 -1.472656 1.921875 -1.328125 C 2.003906 -1.179688 2.109375 -1.054688 2.234375 -0.953125 C 2.367188 -0.859375 2.523438 -0.785156 2.703125 -0.734375 C 2.890625 -0.679688 3.082031 -0.65625 3.28125 -0.65625 Z M 3.28125 -0.65625 "/>
</g>
<g id="glyph-2-2">
<path d="M 5.828125 0 L 5.0625 -2.265625 L 1.953125 -2.265625 L 1.1875 0 L 0.25 0 L 2.9375 -7.671875 L 4.109375 -7.671875 L 6.796875 0 Z M 3.53125 -6.8125 L 3.46875 -6.8125 L 2.171875 -3.078125 L 4.828125 -3.078125 Z M 3.53125 -6.8125 "/>
</g>
<g id="glyph-2-3">
<path d="M 0.96875 0 L 0.96875 -0.8125 L 3.109375 -0.8125 L 3.109375 -7 L 3.03125 -7 L 1.09375 -5.1875 L 0.5625 -5.78125 L 2.59375 -7.671875 L 4.03125 -7.671875 L 4.03125 -0.8125 L 6.015625 -0.8125 L 6.015625 0 Z M 0.96875 0 "/>
</g>
<g id="glyph-2-4">
<path d="M 3.046875 0.125 C 2.648438 0.125 2.289062 0.0546875 1.96875 -0.078125 C 1.65625 -0.210938 1.390625 -0.410156 1.171875 -0.671875 C 0.960938 -0.929688 0.800781 -1.242188 0.6875 -1.609375 C 0.570312 -1.972656 0.515625 -2.382812 0.515625 -2.84375 C 0.515625 -3.289062 0.570312 -3.695312 0.6875 -4.0625 C 0.800781 -4.4375 0.960938 -4.75 1.171875 -5 C 1.390625 -5.257812 1.65625 -5.457031 1.96875 -5.59375 C 2.289062 -5.738281 2.648438 -5.8125 3.046875 -5.8125 C 3.609375 -5.8125 4.0625 -5.6875 4.40625 -5.4375 C 4.75 -5.195312 5.003906 -4.878906 5.171875 -4.484375 L 4.4375 -4.109375 C 4.332031 -4.398438 4.160156 -4.625 3.921875 -4.78125 C 3.691406 -4.945312 3.398438 -5.03125 3.046875 -5.03125 C 2.785156 -5.03125 2.554688 -4.988281 2.359375 -4.90625 C 2.160156 -4.820312 1.992188 -4.703125 1.859375 -4.546875 C 1.722656 -4.398438 1.625 -4.222656 1.5625 -4.015625 C 1.5 -3.804688 1.46875 -3.578125 1.46875 -3.328125 L 1.46875 -2.359375 C 1.46875 -1.859375 1.597656 -1.445312 1.859375 -1.125 C 2.128906 -0.8125 2.523438 -0.65625 3.046875 -0.65625 C 3.753906 -0.65625 4.269531 -0.984375 4.59375 -1.640625 L 5.21875 -1.203125 C 5.039062 -0.796875 4.769531 -0.472656 4.40625 -0.234375 C 4.039062 0.00390625 3.585938 0.125 3.046875 0.125 Z M 3.046875 0.125 "/>
</g>
<g id="glyph-2-5">
</g>
<g id="glyph-2-6">
<path d="M 0.90625 -3.4375 C 0.90625 -3.957031 0.957031 -4.460938 1.0625 -4.953125 C 1.164062 -5.453125 1.304688 -5.910156 1.484375 -6.328125 C 1.671875 -6.753906 1.882812 -7.140625 2.125 -7.484375 C 2.363281 -7.828125 2.625 -8.117188 2.90625 -8.359375 L 3.734375 -8.359375 C 3.429688 -8.078125 3.15625 -7.757812 2.90625 -7.40625 C 2.664062 -7.0625 2.457031 -6.691406 2.28125 -6.296875 C 2.113281 -5.898438 1.976562 -5.492188 1.875 -5.078125 C 1.78125 -4.671875 1.734375 -4.273438 1.734375 -3.890625 L 1.734375 -2.953125 C 1.734375 -2.554688 1.78125 -2.15625 1.875 -1.75 C 1.976562 -1.34375 2.113281 -0.9375 2.28125 -0.53125 C 2.457031 -0.132812 2.664062 0.234375 2.90625 0.578125 C 3.15625 0.929688 3.429688 1.238281 3.734375 1.5 L 2.90625 1.5 C 2.632812 1.28125 2.375 0.992188 2.125 0.640625 C 1.882812 0.296875 1.675781 -0.0820312 1.5 -0.5 C 1.320312 -0.925781 1.175781 -1.382812 1.0625 -1.875 C 0.957031 -2.375 0.90625 -2.894531 0.90625 -3.4375 Z M 0.90625 -3.4375 "/>
</g>
<g id="glyph-2-7">
<path d="M 2.015625 0 L 7.34375 -7.671875 L 8.1875 -7.671875 L 2.859375 0 Z M 2.453125 -3.453125 C 1.890625 -3.453125 1.457031 -3.632812 1.15625 -4 C 0.863281 -4.375 0.71875 -4.914062 0.71875 -5.625 C 0.71875 -6.34375 0.863281 -6.882812 1.15625 -7.25 C 1.457031 -7.625 1.890625 -7.8125 2.453125 -7.8125 C 3.003906 -7.8125 3.429688 -7.625 3.734375 -7.25 C 4.035156 -6.882812 4.1875 -6.34375 4.1875 -5.625 C 4.1875 -4.914062 4.035156 -4.375 3.734375 -4 C 3.429688 -3.632812 3.003906 -3.453125 2.453125 -3.453125 Z M 2.453125 -4.03125 C 3.085938 -4.03125 3.40625 -4.453125 3.40625 -5.296875 L 3.40625 -5.96875 C 3.40625 -6.8125 3.085938 -7.234375 2.453125 -7.234375 C 1.816406 -7.234375 1.5 -6.8125 1.5 -5.96875 L 1.5 -5.296875 C 1.5 -4.453125 1.816406 -4.03125 2.453125 -4.03125 Z M 7.75 0.125 C 7.1875 0.125 6.753906 -0.0546875 6.453125 -0.421875 C 6.148438 -0.796875 6 -1.335938 6 -2.046875 C 6 -2.753906 6.148438 -3.289062 6.453125 -3.65625 C 6.753906 -4.03125 7.1875 -4.21875 7.75 -4.21875 C 8.300781 -4.21875 8.726562 -4.03125 9.03125 -3.65625 C 9.332031 -3.289062 9.484375 -2.753906 9.484375 -2.046875 C 9.484375 -1.335938 9.332031 -0.796875 9.03125 -0.421875 C 8.726562 -0.0546875 8.300781 0.125 7.75 0.125 Z M 7.75 -0.4375 C 8.375 -0.4375 8.6875 -0.863281 8.6875 -1.71875 L 8.6875 -2.375 C 8.6875 -3.226562 8.375 -3.65625 7.75 -3.65625 C 7.113281 -3.65625 6.796875 -3.226562 6.796875 -2.375 L 6.796875 -1.71875 C 6.796875 -0.863281 7.113281 -0.4375 7.75 -0.4375 Z M 7.75 -0.4375 "/>
</g>
<g id="glyph-2-8">
<path d="M 2.765625 -3.4375 C 2.765625 -2.894531 2.710938 -2.375 2.609375 -1.875 C 2.503906 -1.382812 2.359375 -0.925781 2.171875 -0.5 C 1.992188 -0.0820312 1.785156 0.296875 1.546875 0.640625 C 1.304688 0.992188 1.050781 1.28125 0.78125 1.5 L -0.0625 1.5 C 0.238281 1.238281 0.515625 0.929688 0.765625 0.578125 C 1.015625 0.234375 1.222656 -0.132812 1.390625 -0.53125 C 1.566406 -0.9375 1.703125 -1.34375 1.796875 -1.75 C 1.898438 -2.15625 1.953125 -2.554688 1.953125 -2.953125 L 1.953125 -3.890625 C 1.953125 -4.273438 1.898438 -4.671875 1.796875 -5.078125 C 1.703125 -5.492188 1.566406 -5.898438 1.390625 -6.296875 C 1.222656 -6.691406 1.015625 -7.0625 0.765625 -7.40625 C 0.523438 -7.757812 0.25 -8.078125 -0.0625 -8.359375 L 0.78125 -8.359375 C 1.0625 -8.117188 1.320312 -7.828125 1.5625 -7.484375 C 1.800781 -7.140625 2.007812 -6.753906 2.1875 -6.328125 C 2.375 -5.910156 2.515625 -5.453125 2.609375 -4.953125 C 2.710938 -4.460938 2.765625 -3.957031 2.765625 -3.4375 Z M 2.765625 -3.4375 "/>
</g>
<g id="glyph-2-9">
<path d="M 0.9375 0 L 0.9375 -5.671875 L 1.8125 -5.671875 L 1.8125 -4.75 L 1.859375 -4.75 C 1.992188 -5.070312 2.1875 -5.328125 2.4375 -5.515625 C 2.695312 -5.710938 3.039062 -5.8125 3.46875 -5.8125 C 4.050781 -5.8125 4.515625 -5.617188 4.859375 -5.234375 C 5.203125 -4.859375 5.375 -4.328125 5.375 -3.640625 L 5.375 0 L 4.484375 0 L 4.484375 -3.484375 C 4.484375 -4.503906 4.054688 -5.015625 3.203125 -5.015625 C 3.023438 -5.015625 2.851562 -4.992188 2.6875 -4.953125 C 2.519531 -4.910156 2.367188 -4.84375 2.234375 -4.75 C 2.109375 -4.664062 2.003906 -4.554688 1.921875 -4.421875 C 1.847656 -4.285156 1.8125 -4.125 1.8125 -3.9375 L 1.8125 0 Z M 0.9375 0 "/>
</g>
<g id="glyph-2-10">
<path d="M 0.734375 -4.09375 L 0.734375 -4.84375 L 5.859375 -4.84375 L 5.859375 -4.09375 Z M 0.734375 -1.890625 L 0.734375 -2.640625 L 5.859375 -2.640625 L 5.859375 -1.890625 Z M 0.734375 -1.890625 "/>
</g>
<g id="glyph-2-11">
<path d="M 2.875 -4.421875 C 3.394531 -4.421875 3.785156 -4.539062 4.046875 -4.78125 C 4.304688 -5.019531 4.4375 -5.328125 4.4375 -5.703125 L 4.4375 -5.78125 C 4.4375 -6.175781 4.304688 -6.472656 4.046875 -6.671875 C 3.796875 -6.878906 3.46875 -6.984375 3.0625 -6.984375 C 2.664062 -6.984375 2.34375 -6.894531 2.09375 -6.71875 C 1.84375 -6.550781 1.632812 -6.320312 1.46875 -6.03125 L 0.796875 -6.5625 C 0.890625 -6.707031 1.003906 -6.851562 1.140625 -7 C 1.273438 -7.15625 1.429688 -7.289062 1.609375 -7.40625 C 1.796875 -7.53125 2.007812 -7.628906 2.25 -7.703125 C 2.5 -7.773438 2.773438 -7.8125 3.078125 -7.8125 C 3.398438 -7.8125 3.703125 -7.769531 3.984375 -7.6875 C 4.273438 -7.601562 4.523438 -7.476562 4.734375 -7.3125 C 4.941406 -7.144531 5.101562 -6.941406 5.21875 -6.703125 C 5.34375 -6.460938 5.40625 -6.1875 5.40625 -5.875 C 5.40625 -5.625 5.367188 -5.398438 5.296875 -5.203125 C 5.222656 -5.003906 5.117188 -4.832031 4.984375 -4.6875 C 4.847656 -4.539062 4.691406 -4.414062 4.515625 -4.3125 C 4.335938 -4.207031 4.144531 -4.128906 3.9375 -4.078125 L 3.9375 -4.03125 C 4.144531 -3.988281 4.34375 -3.914062 4.53125 -3.8125 C 4.726562 -3.71875 4.898438 -3.59375 5.046875 -3.4375 C 5.203125 -3.28125 5.328125 -3.085938 5.421875 -2.859375 C 5.515625 -2.640625 5.5625 -2.382812 5.5625 -2.09375 C 5.5625 -1.769531 5.5 -1.46875 5.375 -1.1875 C 5.25 -0.914062 5.070312 -0.679688 4.84375 -0.484375 C 4.613281 -0.296875 4.335938 -0.144531 4.015625 -0.03125 C 3.691406 0.0703125 3.335938 0.125 2.953125 0.125 C 2.617188 0.125 2.320312 0.0859375 2.0625 0.015625 C 1.8125 -0.0546875 1.585938 -0.15625 1.390625 -0.28125 C 1.191406 -0.40625 1.015625 -0.539062 0.859375 -0.6875 C 0.710938 -0.84375 0.582031 -1.003906 0.46875 -1.171875 L 1.15625 -1.703125 C 1.25 -1.546875 1.351562 -1.40625 1.46875 -1.28125 C 1.582031 -1.15625 1.707031 -1.050781 1.84375 -0.96875 C 1.988281 -0.882812 2.144531 -0.816406 2.3125 -0.765625 C 2.488281 -0.710938 2.695312 -0.6875 2.9375 -0.6875 C 3.476562 -0.6875 3.890625 -0.8125 4.171875 -1.0625 C 4.453125 -1.3125 4.59375 -1.660156 4.59375 -2.109375 L 4.59375 -2.203125 C 4.59375 -2.648438 4.453125 -3 4.171875 -3.25 C 3.890625 -3.5 3.476562 -3.625 2.9375 -3.625 L 2.03125 -3.625 L 2.03125 -4.421875 Z M 2.875 -4.421875 "/>
</g>
<g id="glyph-2-12">
<path d="M 5.859375 -4.859375 C 5.859375 -4.285156 5.773438 -3.75 5.609375 -3.25 C 5.441406 -2.75 5.222656 -2.289062 4.953125 -1.875 C 4.679688 -1.457031 4.382812 -1.085938 4.0625 -0.765625 C 3.75 -0.453125 3.4375 -0.195312 3.125 0 L 1.9375 0 C 2.34375 -0.300781 2.707031 -0.59375 3.03125 -0.875 C 3.351562 -1.164062 3.632812 -1.46875 3.875 -1.78125 C 4.125 -2.09375 4.332031 -2.425781 4.5 -2.78125 C 4.664062 -3.132812 4.800781 -3.535156 4.90625 -3.984375 L 4.84375 -4 C 4.664062 -3.6875 4.429688 -3.425781 4.140625 -3.21875 C 3.847656 -3.007812 3.46875 -2.90625 3 -2.90625 C 2.675781 -2.90625 2.375 -2.957031 2.09375 -3.0625 C 1.8125 -3.175781 1.570312 -3.332031 1.375 -3.53125 C 1.175781 -3.738281 1.019531 -3.988281 0.90625 -4.28125 C 0.789062 -4.570312 0.734375 -4.898438 0.734375 -5.265625 C 0.734375 -5.640625 0.789062 -5.984375 0.90625 -6.296875 C 1.03125 -6.609375 1.203125 -6.875 1.421875 -7.09375 C 1.648438 -7.320312 1.921875 -7.5 2.234375 -7.625 C 2.546875 -7.75 2.894531 -7.8125 3.28125 -7.8125 C 3.6875 -7.8125 4.046875 -7.742188 4.359375 -7.609375 C 4.679688 -7.472656 4.953125 -7.273438 5.171875 -7.015625 C 5.398438 -6.765625 5.570312 -6.457031 5.6875 -6.09375 C 5.800781 -5.726562 5.859375 -5.316406 5.859375 -4.859375 Z M 3.296875 -3.6875 C 3.804688 -3.6875 4.203125 -3.820312 4.484375 -4.09375 C 4.765625 -4.375 4.90625 -4.773438 4.90625 -5.296875 L 4.90625 -5.390625 C 4.90625 -5.910156 4.765625 -6.304688 4.484375 -6.578125 C 4.203125 -6.859375 3.804688 -7 3.296875 -7 C 2.796875 -7 2.398438 -6.859375 2.109375 -6.578125 C 1.828125 -6.304688 1.6875 -5.910156 1.6875 -5.390625 L 1.6875 -5.296875 C 1.6875 -4.773438 1.828125 -4.375 2.109375 -4.09375 C 2.398438 -3.820312 2.796875 -3.6875 3.296875 -3.6875 Z M 3.296875 -3.6875 "/>
</g>
<g id="glyph-2-13">
<path d="M 1.5 -1.28125 C 1.726562 -1.28125 1.894531 -1.21875 2 -1.09375 C 2.113281 -0.976562 2.171875 -0.828125 2.171875 -0.640625 L 2.171875 -0.484375 C 2.171875 -0.179688 2.082031 0.148438 1.90625 0.515625 C 1.726562 0.878906 1.484375 1.195312 1.171875 1.46875 L 0.421875 1.46875 C 0.648438 1.226562 0.832031 1.003906 0.96875 0.796875 C 1.101562 0.585938 1.195312 0.351562 1.25 0.09375 C 1.101562 0.0625 0.992188 -0.00390625 0.921875 -0.109375 C 0.859375 -0.210938 0.828125 -0.335938 0.828125 -0.484375 L 0.828125 -0.640625 C 0.828125 -0.828125 0.878906 -0.976562 0.984375 -1.09375 C 1.085938 -1.21875 1.257812 -1.28125 1.5 -1.28125 Z M 1.5 -1.28125 "/>
</g>
<g id="glyph-2-14">
<path d="M 0.9375 0 L 0.9375 -5.671875 L 1.8125 -5.671875 L 1.8125 -4.75 L 1.859375 -4.75 C 1.921875 -4.894531 1.992188 -5.03125 2.078125 -5.15625 C 2.171875 -5.289062 2.273438 -5.40625 2.390625 -5.5 C 2.515625 -5.59375 2.65625 -5.664062 2.8125 -5.71875 C 2.976562 -5.78125 3.171875 -5.8125 3.390625 -5.8125 C 3.765625 -5.8125 4.109375 -5.71875 4.421875 -5.53125 C 4.734375 -5.351562 4.96875 -5.0625 5.125 -4.65625 L 5.140625 -4.65625 C 5.242188 -4.957031 5.4375 -5.222656 5.71875 -5.453125 C 6.007812 -5.691406 6.394531 -5.8125 6.875 -5.8125 C 7.457031 -5.8125 7.910156 -5.617188 8.234375 -5.234375 C 8.554688 -4.859375 8.71875 -4.328125 8.71875 -3.640625 L 8.71875 0 L 7.84375 0 L 7.84375 -3.484375 C 7.84375 -3.992188 7.742188 -4.375 7.546875 -4.625 C 7.347656 -4.882812 7.03125 -5.015625 6.59375 -5.015625 C 6.425781 -5.015625 6.257812 -4.992188 6.09375 -4.953125 C 5.9375 -4.910156 5.796875 -4.84375 5.671875 -4.75 C 5.546875 -4.664062 5.445312 -4.554688 5.375 -4.421875 C 5.300781 -4.285156 5.265625 -4.125 5.265625 -3.9375 L 5.265625 0 L 4.390625 0 L 4.390625 -3.484375 C 4.390625 -3.992188 4.289062 -4.375 4.09375 -4.625 C 3.894531 -4.882812 3.585938 -5.015625 3.171875 -5.015625 C 2.992188 -5.015625 2.820312 -4.992188 2.65625 -4.953125 C 2.5 -4.910156 2.359375 -4.84375 2.234375 -4.75 C 2.109375 -4.664062 2.003906 -4.554688 1.921875 -4.421875 C 1.847656 -4.285156 1.8125 -4.125 1.8125 -3.9375 L 1.8125 0 Z M 0.9375 0 "/>
</g>
<g id="glyph-2-15">
<path d="M 3.0625 0.125 C 2.675781 0.125 2.328125 0.0546875 2.015625 -0.078125 C 1.703125 -0.210938 1.429688 -0.410156 1.203125 -0.671875 C 0.984375 -0.929688 0.8125 -1.242188 0.6875 -1.609375 C 0.570312 -1.972656 0.515625 -2.382812 0.515625 -2.84375 C 0.515625 -3.289062 0.570312 -3.695312 0.6875 -4.0625 C 0.8125 -4.425781 0.984375 -4.738281 1.203125 -5 C 1.429688 -5.257812 1.703125 -5.457031 2.015625 -5.59375 C 2.328125 -5.738281 2.675781 -5.8125 3.0625 -5.8125 C 3.445312 -5.8125 3.789062 -5.738281 4.09375 -5.59375 C 4.394531 -5.457031 4.648438 -5.265625 4.859375 -5.015625 C 5.078125 -4.773438 5.238281 -4.484375 5.34375 -4.140625 C 5.457031 -3.804688 5.515625 -3.4375 5.515625 -3.03125 L 5.515625 -2.625 L 1.4375 -2.625 L 1.4375 -2.359375 C 1.4375 -2.109375 1.472656 -1.878906 1.546875 -1.671875 C 1.628906 -1.460938 1.738281 -1.28125 1.875 -1.125 C 2.019531 -0.976562 2.195312 -0.859375 2.40625 -0.765625 C 2.625 -0.679688 2.863281 -0.640625 3.125 -0.640625 C 3.476562 -0.640625 3.789062 -0.722656 4.0625 -0.890625 C 4.332031 -1.054688 4.539062 -1.296875 4.6875 -1.609375 L 5.3125 -1.171875 C 5.125 -0.773438 4.835938 -0.457031 4.453125 -0.21875 C 4.066406 0.0078125 3.601562 0.125 3.0625 0.125 Z M 3.0625 -5.078125 C 2.820312 -5.078125 2.601562 -5.03125 2.40625 -4.9375 C 2.207031 -4.851562 2.035156 -4.734375 1.890625 -4.578125 C 1.753906 -4.429688 1.644531 -4.253906 1.5625 -4.046875 C 1.476562 -3.835938 1.4375 -3.609375 1.4375 -3.359375 L 1.4375 -3.28125 L 4.578125 -3.28125 L 4.578125 -3.40625 C 4.578125 -3.90625 4.4375 -4.304688 4.15625 -4.609375 C 3.882812 -4.921875 3.519531 -5.078125 3.0625 -5.078125 Z M 3.0625 -5.078125 "/>
</g>
<g id="glyph-2-16">
<path d="M 4.5625 -0.921875 L 4.515625 -0.921875 C 4.171875 -0.222656 3.617188 0.125 2.859375 0.125 C 2.503906 0.125 2.179688 0.0546875 1.890625 -0.078125 C 1.609375 -0.210938 1.367188 -0.410156 1.171875 -0.671875 C 0.972656 -0.929688 0.816406 -1.242188 0.703125 -1.609375 C 0.597656 -1.972656 0.546875 -2.382812 0.546875 -2.84375 C 0.546875 -3.289062 0.597656 -3.695312 0.703125 -4.0625 C 0.816406 -4.4375 0.972656 -4.75 1.171875 -5 C 1.367188 -5.257812 1.609375 -5.457031 1.890625 -5.59375 C 2.179688 -5.738281 2.503906 -5.8125 2.859375 -5.8125 C 3.253906 -5.8125 3.59375 -5.722656 3.875 -5.546875 C 4.15625 -5.378906 4.367188 -5.113281 4.515625 -4.75 L 4.5625 -4.75 L 4.5625 -8.140625 L 5.4375 -8.140625 L 5.4375 0 L 4.5625 0 Z M 3.109375 -0.65625 C 3.304688 -0.65625 3.492188 -0.679688 3.671875 -0.734375 C 3.847656 -0.785156 4 -0.859375 4.125 -0.953125 C 4.257812 -1.054688 4.363281 -1.179688 4.4375 -1.328125 C 4.519531 -1.472656 4.5625 -1.632812 4.5625 -1.8125 L 4.5625 -3.921875 C 4.5625 -4.078125 4.519531 -4.222656 4.4375 -4.359375 C 4.363281 -4.492188 4.257812 -4.609375 4.125 -4.703125 C 4 -4.796875 3.847656 -4.867188 3.671875 -4.921875 C 3.492188 -4.984375 3.304688 -5.015625 3.109375 -5.015625 C 2.609375 -5.015625 2.210938 -4.859375 1.921875 -4.546875 C 1.640625 -4.234375 1.5 -3.828125 1.5 -3.328125 L 1.5 -2.359375 C 1.5 -1.847656 1.640625 -1.4375 1.921875 -1.125 C 2.210938 -0.8125 2.609375 -0.65625 3.109375 -0.65625 Z M 3.109375 -0.65625 "/>
</g>
<g id="glyph-2-17">
<path d="M 4.4375 -5.671875 L 5.296875 -5.671875 L 2.765625 1.3125 C 2.691406 1.488281 2.625 1.628906 2.5625 1.734375 C 2.5 1.847656 2.414062 1.9375 2.3125 2 C 2.21875 2.070312 2.097656 2.125 1.953125 2.15625 C 1.816406 2.1875 1.644531 2.203125 1.4375 2.203125 L 0.984375 2.203125 L 0.984375 1.4375 L 1.875 1.4375 L 2.3125 0.21875 L 0.1875 -5.671875 L 1.0625 -5.671875 L 2.4375 -1.8125 L 2.6875 -0.890625 L 2.75 -0.890625 L 3.0625 -1.8125 Z M 4.4375 -5.671875 "/>
</g>
<g id="glyph-2-18">
<path d="M 5.0625 0 C 4.726562 0 4.488281 -0.0859375 4.34375 -0.265625 C 4.207031 -0.441406 4.117188 -0.660156 4.078125 -0.921875 L 4.03125 -0.921875 C 3.90625 -0.566406 3.695312 -0.300781 3.40625 -0.125 C 3.125 0.0390625 2.785156 0.125 2.390625 0.125 C 1.785156 0.125 1.316406 -0.0234375 0.984375 -0.328125 C 0.648438 -0.640625 0.484375 -1.054688 0.484375 -1.578125 C 0.484375 -2.117188 0.675781 -2.53125 1.0625 -2.8125 C 1.457031 -3.101562 2.070312 -3.25 2.90625 -3.25 L 4.03125 -3.25 L 4.03125 -3.8125 C 4.03125 -4.207031 3.914062 -4.507812 3.6875 -4.71875 C 3.46875 -4.9375 3.132812 -5.046875 2.6875 -5.046875 C 2.34375 -5.046875 2.050781 -4.96875 1.8125 -4.8125 C 1.582031 -4.664062 1.394531 -4.460938 1.25 -4.203125 L 0.71875 -4.703125 C 0.875 -5.003906 1.117188 -5.265625 1.453125 -5.484375 C 1.785156 -5.703125 2.210938 -5.8125 2.734375 -5.8125 C 3.421875 -5.8125 3.953125 -5.640625 4.328125 -5.296875 C 4.710938 -4.960938 4.90625 -4.492188 4.90625 -3.890625 L 4.90625 -0.765625 L 5.5625 -0.765625 L 5.5625 0 Z M 2.53125 -0.609375 C 2.75 -0.609375 2.945312 -0.632812 3.125 -0.6875 C 3.3125 -0.738281 3.472656 -0.8125 3.609375 -0.90625 C 3.742188 -1.007812 3.847656 -1.125 3.921875 -1.25 C 3.992188 -1.375 4.03125 -1.507812 4.03125 -1.65625 L 4.03125 -2.578125 L 2.859375 -2.578125 C 2.347656 -2.578125 1.976562 -2.503906 1.75 -2.359375 C 1.519531 -2.210938 1.40625 -2.003906 1.40625 -1.734375 L 1.40625 -1.5 C 1.40625 -1.21875 1.503906 -1 1.703125 -0.84375 C 1.910156 -0.6875 2.1875 -0.609375 2.53125 -0.609375 Z M 2.53125 -0.609375 "/>
</g>
<g id="glyph-2-19">
<path d="M 1.5 0.125 C 1.257812 0.125 1.085938 0.0664062 0.984375 -0.046875 C 0.878906 -0.160156 0.828125 -0.3125 0.828125 -0.5 L 0.828125 -0.65625 C 0.828125 -0.84375 0.878906 -0.992188 0.984375 -1.109375 C 1.085938 -1.222656 1.257812 -1.28125 1.5 -1.28125 C 1.726562 -1.28125 1.894531 -1.222656 2 -1.109375 C 2.113281 -0.992188 2.171875 -0.84375 2.171875 -0.65625 L 2.171875 -0.5 C 2.171875 -0.3125 2.113281 -0.160156 2 -0.046875 C 1.894531 0.0664062 1.726562 0.125 1.5 0.125 Z M 1.5 0.125 "/>
</g>
<g id="glyph-2-20">
<path d="M 3.296875 0.125 C 2.378906 0.125 1.707031 -0.21875 1.28125 -0.90625 C 0.863281 -1.601562 0.65625 -2.582031 0.65625 -3.84375 C 0.65625 -5.09375 0.863281 -6.066406 1.28125 -6.765625 C 1.707031 -7.460938 2.378906 -7.8125 3.296875 -7.8125 C 4.210938 -7.8125 4.878906 -7.460938 5.296875 -6.765625 C 5.722656 -6.066406 5.9375 -5.09375 5.9375 -3.84375 C 5.9375 -2.582031 5.722656 -1.601562 5.296875 -0.90625 C 4.878906 -0.21875 4.210938 0.125 3.296875 0.125 Z M 3.296875 -0.671875 C 3.597656 -0.671875 3.851562 -0.734375 4.0625 -0.859375 C 4.28125 -0.984375 4.453125 -1.160156 4.578125 -1.390625 C 4.710938 -1.617188 4.8125 -1.882812 4.875 -2.1875 C 4.9375 -2.5 4.96875 -2.84375 4.96875 -3.21875 L 4.96875 -4.46875 C 4.96875 -4.84375 4.9375 -5.179688 4.875 -5.484375 C 4.8125 -5.796875 4.710938 -6.066406 4.578125 -6.296875 C 4.453125 -6.523438 4.28125 -6.695312 4.0625 -6.8125 C 3.851562 -6.9375 3.597656 -7 3.296875 -7 C 2.992188 -7 2.738281 -6.9375 2.53125 -6.8125 C 2.320312 -6.695312 2.148438 -6.523438 2.015625 -6.296875 C 1.878906 -6.066406 1.78125 -5.796875 1.71875 -5.484375 C 1.65625 -5.179688 1.625 -4.84375 1.625 -4.46875 L 1.625 -3.21875 C 1.625 -2.84375 1.65625 -2.5 1.71875 -2.1875 C 1.78125 -1.882812 1.878906 -1.617188 2.015625 -1.390625 C 2.148438 -1.160156 2.320312 -0.984375 2.53125 -0.859375 C 2.738281 -0.734375 2.992188 -0.671875 3.296875 -0.671875 Z M 3.296875 -0.671875 "/>
</g>
<g id="glyph-2-21">
<path d="M 0.65625 0 L 0.65625 -0.765625 L 1.734375 -0.765625 L 1.734375 -6.90625 L 0.65625 -6.90625 L 0.65625 -7.671875 L 3.734375 -7.671875 L 3.734375 -6.90625 L 2.65625 -6.90625 L 2.65625 -0.765625 L 3.734375 -0.765625 L 3.734375 0 Z M 0.65625 0 "/>
</g>
<g id="glyph-2-22">
<path d="M 5.59375 1.796875 L 4.453125 1.796875 C 4.148438 1.796875 3.921875 1.707031 3.765625 1.53125 C 3.609375 1.363281 3.53125 1.15625 3.53125 0.90625 L 3.53125 0.125 C 3.09375 0.0820312 2.691406 -0.03125 2.328125 -0.21875 C 1.972656 -0.414062 1.671875 -0.679688 1.421875 -1.015625 C 1.171875 -1.347656 0.976562 -1.75 0.84375 -2.21875 C 0.707031 -2.695312 0.640625 -3.238281 0.640625 -3.84375 C 0.640625 -4.488281 0.710938 -5.054688 0.859375 -5.546875 C 1.015625 -6.035156 1.234375 -6.445312 1.515625 -6.78125 C 1.804688 -7.125 2.148438 -7.378906 2.546875 -7.546875 C 2.941406 -7.722656 3.390625 -7.8125 3.890625 -7.8125 C 4.378906 -7.8125 4.828125 -7.722656 5.234375 -7.546875 C 5.640625 -7.378906 5.984375 -7.125 6.265625 -6.78125 C 6.546875 -6.445312 6.765625 -6.035156 6.921875 -5.546875 C 7.078125 -5.054688 7.15625 -4.488281 7.15625 -3.84375 C 7.15625 -2.65625 6.90625 -1.726562 6.40625 -1.0625 C 5.914062 -0.40625 5.25 -0.0195312 4.40625 0.09375 L 4.40625 1.03125 L 5.59375 1.03125 Z M 3.890625 -0.6875 C 4.222656 -0.6875 4.523438 -0.742188 4.796875 -0.859375 C 5.078125 -0.984375 5.316406 -1.15625 5.515625 -1.375 C 5.722656 -1.59375 5.878906 -1.851562 5.984375 -2.15625 C 6.097656 -2.46875 6.15625 -2.816406 6.15625 -3.203125 L 6.15625 -4.484375 C 6.15625 -4.859375 6.097656 -5.195312 5.984375 -5.5 C 5.878906 -5.8125 5.722656 -6.078125 5.515625 -6.296875 C 5.316406 -6.523438 5.078125 -6.695312 4.796875 -6.8125 C 4.523438 -6.925781 4.222656 -6.984375 3.890625 -6.984375 C 3.566406 -6.984375 3.265625 -6.925781 2.984375 -6.8125 C 2.703125 -6.695312 2.457031 -6.523438 2.25 -6.296875 C 2.050781 -6.078125 1.894531 -5.8125 1.78125 -5.5 C 1.675781 -5.195312 1.625 -4.859375 1.625 -4.484375 L 1.625 -3.203125 C 1.625 -2.816406 1.675781 -2.46875 1.78125 -2.15625 C 1.894531 -1.851562 2.050781 -1.59375 2.25 -1.375 C 2.457031 -1.15625 2.703125 -0.984375 2.984375 -0.859375 C 3.265625 -0.742188 3.566406 -0.6875 3.890625 -0.6875 Z M 3.890625 -0.6875 "/>
</g>
<g id="glyph-2-23">
<path d="M 1.953125 0 L 1.015625 0 L 1.015625 -7.671875 L 4.078125 -7.671875 C 4.753906 -7.671875 5.28125 -7.484375 5.65625 -7.109375 C 6.03125 -6.742188 6.21875 -6.207031 6.21875 -5.5 C 6.21875 -4.9375 6.085938 -4.472656 5.828125 -4.109375 C 5.566406 -3.742188 5.1875 -3.503906 4.6875 -3.390625 L 6.453125 0 L 5.40625 0 L 3.734375 -3.296875 L 1.953125 -3.296875 Z M 4.078125 -4.09375 C 4.441406 -4.09375 4.722656 -4.1875 4.921875 -4.375 C 5.128906 -4.5625 5.234375 -4.832031 5.234375 -5.1875 L 5.234375 -5.765625 C 5.234375 -6.117188 5.128906 -6.390625 4.921875 -6.578125 C 4.722656 -6.765625 4.441406 -6.859375 4.078125 -6.859375 L 1.953125 -6.859375 L 1.953125 -4.09375 Z M 4.078125 -4.09375 "/>
</g>
<g id="glyph-2-24">
<path d="M 1.015625 1.515625 L 1.015625 -8.359375 L 2.828125 -8.359375 L 2.828125 -7.671875 L 1.78125 -7.671875 L 1.78125 0.828125 L 2.828125 0.828125 L 2.828125 1.515625 Z M 1.015625 1.515625 "/>
</g>
<g id="glyph-2-25">
<path d="M 1.921875 0 L 4.859375 -6.890625 L 1.578125 -6.890625 L 1.578125 -5.453125 L 0.765625 -5.453125 L 0.765625 -7.671875 L 5.796875 -7.671875 L 5.796875 -6.859375 L 2.921875 0 Z M 1.921875 0 "/>
</g>
<g id="glyph-2-26">
<path d="M 5.859375 0 L 0.828125 0 L 0.828125 -0.953125 L 3.328125 -3.25 C 3.691406 -3.582031 3.992188 -3.929688 4.234375 -4.296875 C 4.472656 -4.671875 4.59375 -5.046875 4.59375 -5.421875 L 4.59375 -5.5625 C 4.59375 -5.976562 4.472656 -6.316406 4.234375 -6.578125 C 4.003906 -6.847656 3.648438 -6.984375 3.171875 -6.984375 C 2.941406 -6.984375 2.738281 -6.945312 2.5625 -6.875 C 2.382812 -6.8125 2.226562 -6.722656 2.09375 -6.609375 C 1.96875 -6.492188 1.863281 -6.359375 1.78125 -6.203125 C 1.695312 -6.046875 1.628906 -5.875 1.578125 -5.6875 L 0.765625 -6 C 0.835938 -6.226562 0.9375 -6.453125 1.0625 -6.671875 C 1.1875 -6.890625 1.347656 -7.082031 1.546875 -7.25 C 1.742188 -7.414062 1.976562 -7.550781 2.25 -7.65625 C 2.519531 -7.757812 2.84375 -7.8125 3.21875 -7.8125 C 3.59375 -7.8125 3.925781 -7.753906 4.21875 -7.640625 C 4.507812 -7.535156 4.753906 -7.382812 4.953125 -7.1875 C 5.160156 -6.988281 5.316406 -6.753906 5.421875 -6.484375 C 5.523438 -6.210938 5.578125 -5.910156 5.578125 -5.578125 C 5.578125 -5.273438 5.535156 -4.992188 5.453125 -4.734375 C 5.367188 -4.484375 5.253906 -4.238281 5.109375 -4 C 4.960938 -3.769531 4.78125 -3.546875 4.5625 -3.328125 C 4.351562 -3.109375 4.128906 -2.890625 3.890625 -2.671875 L 1.828125 -0.8125 L 5.859375 -0.8125 Z M 5.859375 0 "/>
</g>
<g id="glyph-2-27">
<path d="M 3.3125 0.125 C 2.914062 0.125 2.554688 0.0546875 2.234375 -0.078125 C 1.921875 -0.210938 1.648438 -0.40625 1.421875 -0.65625 C 1.203125 -0.90625 1.03125 -1.210938 0.90625 -1.578125 C 0.789062 -1.953125 0.734375 -2.363281 0.734375 -2.8125 C 0.734375 -3.382812 0.816406 -3.921875 0.984375 -4.421875 C 1.160156 -4.929688 1.378906 -5.390625 1.640625 -5.796875 C 1.910156 -6.210938 2.207031 -6.578125 2.53125 -6.890625 C 2.851562 -7.210938 3.164062 -7.472656 3.46875 -7.671875 L 4.65625 -7.671875 C 4.25 -7.378906 3.882812 -7.085938 3.5625 -6.796875 C 3.238281 -6.515625 2.957031 -6.21875 2.71875 -5.90625 C 2.476562 -5.59375 2.269531 -5.253906 2.09375 -4.890625 C 1.925781 -4.535156 1.789062 -4.140625 1.6875 -3.703125 L 1.75 -3.671875 C 1.9375 -3.984375 2.171875 -4.242188 2.453125 -4.453125 C 2.742188 -4.671875 3.125 -4.78125 3.59375 -4.78125 C 3.925781 -4.78125 4.226562 -4.722656 4.5 -4.609375 C 4.78125 -4.492188 5.019531 -4.332031 5.21875 -4.125 C 5.414062 -3.925781 5.570312 -3.679688 5.6875 -3.390625 C 5.800781 -3.097656 5.859375 -2.769531 5.859375 -2.40625 C 5.859375 -2.03125 5.796875 -1.6875 5.671875 -1.375 C 5.554688 -1.0625 5.382812 -0.789062 5.15625 -0.5625 C 4.9375 -0.34375 4.671875 -0.171875 4.359375 -0.046875 C 4.046875 0.0664062 3.695312 0.125 3.3125 0.125 Z M 3.296875 -0.671875 C 3.804688 -0.671875 4.203125 -0.804688 4.484375 -1.078125 C 4.765625 -1.359375 4.90625 -1.757812 4.90625 -2.28125 L 4.90625 -2.375 C 4.90625 -2.894531 4.765625 -3.296875 4.484375 -3.578125 C 4.203125 -3.859375 3.804688 -4 3.296875 -4 C 2.796875 -4 2.398438 -3.859375 2.109375 -3.578125 C 1.828125 -3.296875 1.6875 -2.894531 1.6875 -2.375 L 1.6875 -2.28125 C 1.6875 -1.757812 1.828125 -1.359375 2.109375 -1.078125 C 2.398438 -0.804688 2.796875 -0.671875 3.296875 -0.671875 Z M 3.296875 -0.671875 "/>
</g>
<g id="glyph-2-28">
<path d="M 2.46875 -8.359375 L 2.46875 1.515625 L 0.65625 1.515625 L 0.65625 0.828125 L 1.703125 0.828125 L 1.703125 -7.671875 L 0.65625 -7.671875 L 0.65625 -8.359375 Z M 2.46875 -8.359375 "/>
</g>
<g id="glyph-3-0">
<path d="M 0 -5.828125 L -2.265625 -5.0625 L -2.265625 -1.953125 L 0 -1.1875 L 0 -0.25 L -7.671875 -2.9375 L -7.671875 -4.109375 L 0 -6.796875 Z M -6.8125 -3.53125 L -6.8125 -3.46875 L -3.078125 -2.171875 L -3.078125 -4.828125 Z M -6.8125 -3.53125 "/>
</g>
<g id="glyph-3-1">
<path d="M -7 -1.375 C -7 -1.1875 -7.046875 -1.050781 -7.140625 -0.96875 C -7.234375 -0.882812 -7.351562 -0.84375 -7.5 -0.84375 L -7.640625 -0.84375 C -7.785156 -0.84375 -7.90625 -0.882812 -8 -0.96875 C -8.09375 -1.050781 -8.140625 -1.1875 -8.140625 -1.375 C -8.140625 -1.5625 -8.09375 -1.695312 -8 -1.78125 C -7.90625 -1.863281 -7.785156 -1.90625 -7.640625 -1.90625 L -7.5 -1.90625 C -7.351562 -1.90625 -7.234375 -1.863281 -7.140625 -1.78125 C -7.046875 -1.695312 -7 -1.5625 -7 -1.375 Z M -5.671875 -0.9375 L -5.671875 -1.8125 L 0 -1.8125 L 0 -0.9375 Z M -5.671875 -0.9375 "/>
</g>
<g id="glyph-3-2">
<path d="M 0 -1.875 C 0 -1.5625 -0.0820312 -1.328125 -0.25 -1.171875 C -0.425781 -1.015625 -0.644531 -0.9375 -0.90625 -0.9375 L -8.140625 -0.9375 L -8.140625 -1.8125 L -0.765625 -1.8125 L -0.765625 -2.65625 L 0 -2.65625 Z M 0 -1.875 "/>
</g>
<g id="glyph-3-3">
<path d="M 0.125 -3.0625 C 0.125 -2.675781 0.0546875 -2.328125 -0.078125 -2.015625 C -0.210938 -1.703125 -0.410156 -1.429688 -0.671875 -1.203125 C -0.929688 -0.984375 -1.242188 -0.8125 -1.609375 -0.6875 C -1.972656 -0.570312 -2.382812 -0.515625 -2.84375 -0.515625 C -3.289062 -0.515625 -3.695312 -0.570312 -4.0625 -0.6875 C -4.425781 -0.8125 -4.738281 -0.984375 -5 -1.203125 C -5.257812 -1.429688 -5.457031 -1.703125 -5.59375 -2.015625 C -5.738281 -2.328125 -5.8125 -2.675781 -5.8125 -3.0625 C -5.8125 -3.445312 -5.738281 -3.789062 -5.59375 -4.09375 C -5.457031 -4.394531 -5.265625 -4.648438 -5.015625 -4.859375 C -4.773438 -5.078125 -4.484375 -5.238281 -4.140625 -5.34375 C -3.804688 -5.457031 -3.4375 -5.515625 -3.03125 -5.515625 L -2.625 -5.515625 L -2.625 -1.4375 L -2.359375 -1.4375 C -2.109375 -1.4375 -1.878906 -1.472656 -1.671875 -1.546875 C -1.460938 -1.628906 -1.28125 -1.738281 -1.125 -1.875 C -0.976562 -2.019531 -0.859375 -2.195312 -0.765625 -2.40625 C -0.679688 -2.625 -0.640625 -2.863281 -0.640625 -3.125 C -0.640625 -3.476562 -0.722656 -3.789062 -0.890625 -4.0625 C -1.054688 -4.332031 -1.296875 -4.539062 -1.609375 -4.6875 L -1.171875 -5.3125 C -0.773438 -5.125 -0.457031 -4.835938 -0.21875 -4.453125 C 0.0078125 -4.066406 0.125 -3.601562 0.125 -3.0625 Z M -5.078125 -3.0625 C -5.078125 -2.820312 -5.03125 -2.601562 -4.9375 -2.40625 C -4.851562 -2.207031 -4.734375 -2.035156 -4.578125 -1.890625 C -4.429688 -1.753906 -4.253906 -1.644531 -4.046875 -1.5625 C -3.835938 -1.476562 -3.609375 -1.4375 -3.359375 -1.4375 L -3.28125 -1.4375 L -3.28125 -4.578125 L -3.40625 -4.578125 C -3.90625 -4.578125 -4.304688 -4.4375 -4.609375 -4.15625 C -4.921875 -3.882812 -5.078125 -3.519531 -5.078125 -3.0625 Z M -5.078125 -3.0625 "/>
</g>
<g id="glyph-3-4">
</g>
<g id="glyph-3-5">
<path d="M 0.125 -2.640625 C 0.125 -2.109375 0.0234375 -1.664062 -0.171875 -1.3125 C -0.367188 -0.957031 -0.640625 -0.648438 -0.984375 -0.390625 L -1.484375 -1.015625 C -1.203125 -1.242188 -0.984375 -1.492188 -0.828125 -1.765625 C -0.679688 -2.035156 -0.609375 -2.347656 -0.609375 -2.703125 C -0.609375 -3.078125 -0.6875 -3.367188 -0.84375 -3.578125 C -1.007812 -3.785156 -1.242188 -3.890625 -1.546875 -3.890625 C -1.765625 -3.890625 -1.953125 -3.816406 -2.109375 -3.671875 C -2.265625 -3.535156 -2.375 -3.28125 -2.4375 -2.90625 L -2.5 -2.453125 C -2.53125 -2.191406 -2.582031 -1.945312 -2.65625 -1.71875 C -2.738281 -1.5 -2.84375 -1.304688 -2.96875 -1.140625 C -3.101562 -0.984375 -3.265625 -0.859375 -3.453125 -0.765625 C -3.640625 -0.671875 -3.867188 -0.625 -4.140625 -0.625 C -4.410156 -0.625 -4.648438 -0.675781 -4.859375 -0.78125 C -5.078125 -0.882812 -5.253906 -1.023438 -5.390625 -1.203125 C -5.523438 -1.378906 -5.628906 -1.59375 -5.703125 -1.84375 C -5.773438 -2.09375 -5.8125 -2.363281 -5.8125 -2.65625 C -5.8125 -3.113281 -5.726562 -3.5 -5.5625 -3.8125 C -5.40625 -4.125 -5.179688 -4.394531 -4.890625 -4.625 L -4.359375 -4.046875 C -4.535156 -3.921875 -4.695312 -3.738281 -4.84375 -3.5 C -4.988281 -3.257812 -5.0625 -2.953125 -5.0625 -2.578125 C -5.0625 -2.210938 -4.984375 -1.9375 -4.828125 -1.75 C -4.671875 -1.5625 -4.457031 -1.46875 -4.1875 -1.46875 C -3.90625 -1.46875 -3.703125 -1.5625 -3.578125 -1.75 C -3.453125 -1.9375 -3.359375 -2.207031 -3.296875 -2.5625 L -3.234375 -3 C -3.140625 -3.632812 -2.957031 -4.082031 -2.6875 -4.34375 C -2.414062 -4.601562 -2.066406 -4.734375 -1.640625 -4.734375 C -1.085938 -4.734375 -0.65625 -4.546875 -0.34375 -4.171875 C -0.03125 -3.804688 0.125 -3.296875 0.125 -2.640625 Z M 0.125 -2.640625 "/>
</g>
<g id="glyph-3-6">
<path d="M 0 -5.0625 C 0 -4.726562 -0.0859375 -4.488281 -0.265625 -4.34375 C -0.441406 -4.207031 -0.660156 -4.117188 -0.921875 -4.078125 L -0.921875 -4.03125 C -0.566406 -3.90625 -0.300781 -3.695312 -0.125 -3.40625 C 0.0390625 -3.125 0.125 -2.785156 0.125 -2.390625 C 0.125 -1.785156 -0.0234375 -1.316406 -0.328125 -0.984375 C -0.640625 -0.648438 -1.054688 -0.484375 -1.578125 -0.484375 C -2.117188 -0.484375 -2.53125 -0.675781 -2.8125 -1.0625 C -3.101562 -1.457031 -3.25 -2.070312 -3.25 -2.90625 L -3.25 -4.03125 L -3.8125 -4.03125 C -4.207031 -4.03125 -4.507812 -3.914062 -4.71875 -3.6875 C -4.9375 -3.46875 -5.046875 -3.132812 -5.046875 -2.6875 C -5.046875 -2.34375 -4.96875 -2.050781 -4.8125 -1.8125 C -4.664062 -1.582031 -4.460938 -1.394531 -4.203125 -1.25 L -4.703125 -0.71875 C -5.003906 -0.875 -5.265625 -1.117188 -5.484375 -1.453125 C -5.703125 -1.785156 -5.8125 -2.210938 -5.8125 -2.734375 C -5.8125 -3.421875 -5.640625 -3.953125 -5.296875 -4.328125 C -4.960938 -4.710938 -4.492188 -4.90625 -3.890625 -4.90625 L -0.765625 -4.90625 L -0.765625 -5.5625 L 0 -5.5625 Z M -0.609375 -2.53125 C -0.609375 -2.75 -0.632812 -2.945312 -0.6875 -3.125 C -0.738281 -3.3125 -0.8125 -3.472656 -0.90625 -3.609375 C -1.007812 -3.742188 -1.125 -3.847656 -1.25 -3.921875 C -1.375 -3.992188 -1.507812 -4.03125 -1.65625 -4.03125 L -2.578125 -4.03125 L -2.578125 -2.859375 C -2.578125 -2.347656 -2.503906 -1.976562 -2.359375 -1.75 C -2.210938 -1.519531 -2.003906 -1.40625 -1.734375 -1.40625 L -1.5 -1.40625 C -1.21875 -1.40625 -1 -1.503906 -0.84375 -1.703125 C -0.6875 -1.910156 -0.609375 -2.1875 -0.609375 -2.53125 Z M -0.609375 -2.53125 "/>
</g>
<g id="glyph-3-7">
<path d="M -5.671875 -4.4375 L -5.671875 -5.296875 L 1.3125 -2.765625 C 1.488281 -2.691406 1.628906 -2.625 1.734375 -2.5625 C 1.847656 -2.5 1.9375 -2.414062 2 -2.3125 C 2.070312 -2.21875 2.125 -2.097656 2.15625 -1.953125 C 2.1875 -1.816406 2.203125 -1.644531 2.203125 -1.4375 L 2.203125 -0.984375 L 1.4375 -0.984375 L 1.4375 -1.875 L 0.21875 -2.3125 L -5.671875 -0.1875 L -5.671875 -1.0625 L -1.8125 -2.4375 L -0.890625 -2.6875 L -0.890625 -2.75 L -1.8125 -3.0625 Z M -5.671875 -4.4375 "/>
</g>
<g id="glyph-3-8">
<path d="M 0 -0.9375 L -5.671875 -0.9375 L -5.671875 -1.8125 L 0 -1.8125 Z M 0 -0.9375 "/>
</g>
<g id="glyph-4-0">
<path d="M 1.015625 -9.21875 L 4.484375 -9.21875 C 5.097656 -9.21875 5.65625 -9.117188 6.15625 -8.921875 C 6.65625 -8.734375 7.082031 -8.445312 7.4375 -8.0625 C 7.789062 -7.675781 8.0625 -7.191406 8.25 -6.609375 C 8.445312 -6.035156 8.546875 -5.367188 8.546875 -4.609375 C 8.546875 -3.835938 8.445312 -3.164062 8.25 -2.59375 C 8.0625 -2.019531 7.789062 -1.539062 7.4375 -1.15625 C 7.082031 -0.769531 6.65625 -0.476562 6.15625 -0.28125 C 5.65625 -0.09375 5.097656 0 4.484375 0 L 1.015625 0 Z M 4.484375 -1.78125 C 5.085938 -1.78125 5.5625 -1.945312 5.90625 -2.28125 C 6.25 -2.613281 6.421875 -3.148438 6.421875 -3.890625 L 6.421875 -5.328125 C 6.421875 -6.066406 6.25 -6.601562 5.90625 -6.9375 C 5.5625 -7.269531 5.085938 -7.4375 4.484375 -7.4375 L 3.03125 -7.4375 L 3.03125 -1.78125 Z M 4.484375 -1.78125 "/>
</g>
<g id="glyph-4-1">
<path d="M 7.90625 -6.046875 L 7.875 -6.046875 L 7.203125 -4.703125 L 5.40625 -1.4375 L 3.640625 -4.6875 L 2.9375 -6.140625 L 2.90625 -6.140625 L 2.90625 0 L 1.015625 0 L 1.015625 -9.21875 L 3.140625 -9.21875 L 5.40625 -4.890625 L 5.421875 -4.890625 L 7.65625 -9.21875 L 9.796875 -9.21875 L 9.796875 0 L 7.90625 0 Z M 7.90625 -6.046875 "/>
</g>
<g id="glyph-4-2">
</g>
<g id="glyph-4-3">
<path d="M 7.328125 0.5 C 7.328125 0.875 7.257812 1.203125 7.125 1.484375 C 7 1.765625 6.789062 2.003906 6.5 2.203125 C 6.21875 2.398438 5.835938 2.546875 5.359375 2.640625 C 4.878906 2.742188 4.285156 2.796875 3.578125 2.796875 C 2.984375 2.796875 2.472656 2.757812 2.046875 2.6875 C 1.628906 2.613281 1.289062 2.507812 1.03125 2.375 C 0.769531 2.238281 0.582031 2.070312 0.46875 1.875 C 0.351562 1.675781 0.296875 1.445312 0.296875 1.1875 C 0.296875 0.800781 0.410156 0.5 0.640625 0.28125 C 0.867188 0.0625 1.179688 -0.0703125 1.578125 -0.125 L 1.578125 -0.28125 C 1.242188 -0.34375 0.992188 -0.484375 0.828125 -0.703125 C 0.660156 -0.929688 0.578125 -1.191406 0.578125 -1.484375 C 0.578125 -1.671875 0.613281 -1.832031 0.6875 -1.96875 C 0.769531 -2.101562 0.867188 -2.222656 0.984375 -2.328125 C 1.097656 -2.429688 1.234375 -2.515625 1.390625 -2.578125 C 1.554688 -2.640625 1.71875 -2.6875 1.875 -2.71875 L 1.875 -2.765625 C 1.445312 -2.960938 1.132812 -3.226562 0.9375 -3.5625 C 0.738281 -3.90625 0.640625 -4.300781 0.640625 -4.75 C 0.640625 -5.457031 0.878906 -6.023438 1.359375 -6.453125 C 1.847656 -6.878906 2.597656 -7.09375 3.609375 -7.09375 C 4.066406 -7.09375 4.457031 -7.046875 4.78125 -6.953125 L 4.78125 -7.21875 C 4.78125 -7.59375 4.867188 -7.859375 5.046875 -8.015625 C 5.234375 -8.179688 5.492188 -8.265625 5.828125 -8.265625 L 6.921875 -8.265625 L 6.921875 -6.8125 L 5.390625 -6.8125 L 5.390625 -6.734375 C 5.796875 -6.535156 6.09375 -6.265625 6.28125 -5.921875 C 6.476562 -5.585938 6.578125 -5.195312 6.578125 -4.75 C 6.578125 -4.050781 6.332031 -3.492188 5.84375 -3.078125 C 5.351562 -2.660156 4.609375 -2.453125 3.609375 -2.453125 C 3.160156 -2.453125 2.75 -2.5 2.375 -2.59375 C 2.175781 -2.46875 2.078125 -2.285156 2.078125 -2.046875 C 2.078125 -1.878906 2.140625 -1.75 2.265625 -1.65625 C 2.390625 -1.5625 2.601562 -1.515625 2.90625 -1.515625 L 4.90625 -1.515625 C 5.75 -1.515625 6.363281 -1.335938 6.75 -0.984375 C 7.132812 -0.640625 7.328125 -0.144531 7.328125 0.5 Z M 5.5 0.765625 C 5.5 0.566406 5.414062 0.410156 5.25 0.296875 C 5.09375 0.191406 4.816406 0.140625 4.421875 0.140625 L 2.046875 0.140625 C 1.960938 0.234375 1.898438 0.332031 1.859375 0.4375 C 1.816406 0.550781 1.796875 0.660156 1.796875 0.765625 C 1.796875 1.023438 1.90625 1.210938 2.125 1.328125 C 2.34375 1.441406 2.71875 1.5 3.25 1.5 L 4.046875 1.5 C 4.566406 1.5 4.9375 1.441406 5.15625 1.328125 C 5.382812 1.210938 5.5 1.023438 5.5 0.765625 Z M 3.609375 -3.734375 C 3.992188 -3.734375 4.28125 -3.8125 4.46875 -3.96875 C 4.65625 -4.132812 4.75 -4.375 4.75 -4.6875 L 4.75 -4.84375 C 4.75 -5.15625 4.65625 -5.390625 4.46875 -5.546875 C 4.28125 -5.710938 3.992188 -5.796875 3.609375 -5.796875 C 3.222656 -5.796875 2.929688 -5.710938 2.734375 -5.546875 C 2.546875 -5.390625 2.453125 -5.15625 2.453125 -4.84375 L 2.453125 -4.6875 C 2.453125 -4.375 2.546875 -4.132812 2.734375 -3.96875 C 2.929688 -3.8125 3.222656 -3.734375 3.609375 -3.734375 Z M 3.609375 -3.734375 "/>
</g>
<g id="glyph-4-4">
<path d="M 0.90625 0 L 0.90625 -6.9375 L 2.859375 -6.9375 L 2.859375 -5.421875 L 2.9375 -5.421875 C 2.96875 -5.617188 3.023438 -5.804688 3.109375 -5.984375 C 3.203125 -6.171875 3.320312 -6.332031 3.46875 -6.46875 C 3.613281 -6.613281 3.785156 -6.726562 3.984375 -6.8125 C 4.191406 -6.894531 4.429688 -6.9375 4.703125 -6.9375 L 5.046875 -6.9375 L 5.046875 -5.109375 L 4.5625 -5.109375 C 3.988281 -5.109375 3.5625 -5.03125 3.28125 -4.875 C 3 -4.726562 2.859375 -4.453125 2.859375 -4.046875 L 2.859375 0 Z M 0.90625 0 "/>
</g>
<g id="glyph-4-5">
<path d="M 5 -1.15625 L 4.9375 -1.15625 C 4.875 -0.976562 4.789062 -0.8125 4.6875 -0.65625 C 4.59375 -0.5 4.460938 -0.359375 4.296875 -0.234375 C 4.140625 -0.109375 3.953125 -0.015625 3.734375 0.046875 C 3.523438 0.117188 3.28125 0.15625 3 0.15625 C 2.28125 0.15625 1.738281 -0.078125 1.375 -0.546875 C 1.007812 -1.015625 0.828125 -1.691406 0.828125 -2.578125 L 0.828125 -6.9375 L 2.78125 -6.9375 L 2.78125 -2.75 C 2.78125 -2.320312 2.851562 -1.992188 3 -1.765625 C 3.15625 -1.535156 3.414062 -1.421875 3.78125 -1.421875 C 3.925781 -1.421875 4.070312 -1.441406 4.21875 -1.484375 C 4.375 -1.535156 4.507812 -1.601562 4.625 -1.6875 C 4.738281 -1.769531 4.828125 -1.867188 4.890625 -1.984375 C 4.960938 -2.109375 5 -2.253906 5 -2.421875 L 5 -6.9375 L 6.953125 -6.9375 L 6.953125 0 L 5 0 Z M 5 -1.15625 "/>
</g>
<g id="glyph-4-6">
<path d="M 0.90625 -9.765625 L 2.859375 -9.765625 L 2.859375 -5.765625 L 2.9375 -5.765625 C 3.03125 -6.148438 3.25 -6.46875 3.59375 -6.71875 C 3.945312 -6.96875 4.347656 -7.09375 4.796875 -7.09375 C 5.671875 -7.09375 6.332031 -6.78125 6.78125 -6.15625 C 7.226562 -5.539062 7.453125 -4.644531 7.453125 -3.46875 C 7.453125 -2.289062 7.226562 -1.390625 6.78125 -0.765625 C 6.332031 -0.148438 5.671875 0.15625 4.796875 0.15625 C 4.566406 0.15625 4.347656 0.117188 4.140625 0.046875 C 3.941406 -0.015625 3.757812 -0.101562 3.59375 -0.21875 C 3.4375 -0.332031 3.300781 -0.472656 3.1875 -0.640625 C 3.070312 -0.804688 2.988281 -0.976562 2.9375 -1.15625 L 2.859375 -1.15625 L 2.859375 0 L 0.90625 0 Z M 4.140625 -1.421875 C 4.515625 -1.421875 4.820312 -1.550781 5.0625 -1.8125 C 5.300781 -2.070312 5.421875 -2.421875 5.421875 -2.859375 L 5.421875 -4.0625 C 5.421875 -4.507812 5.300781 -4.859375 5.0625 -5.109375 C 4.820312 -5.367188 4.515625 -5.5 4.140625 -5.5 C 3.773438 -5.5 3.46875 -5.410156 3.21875 -5.234375 C 2.976562 -5.054688 2.859375 -4.804688 2.859375 -4.484375 L 2.859375 -2.4375 C 2.859375 -2.125 2.976562 -1.875 3.21875 -1.6875 C 3.46875 -1.507812 3.773438 -1.421875 4.140625 -1.421875 Z M 4.140625 -1.421875 "/>
</g>
<g id="glyph-4-7">
<path d="M 6.53125 -3.78125 L 3.03125 -3.78125 L 3.03125 0 L 1.015625 0 L 1.015625 -9.21875 L 3.03125 -9.21875 L 3.03125 -5.546875 L 6.53125 -5.546875 L 6.53125 -9.21875 L 8.546875 -9.21875 L 8.546875 0 L 6.53125 0 Z M 6.53125 -3.78125 "/>
</g>
<g id="glyph-4-8">
<path d="M 6.6875 0 L 6.03125 -2.1875 L 2.953125 -2.1875 L 2.296875 0 L 0.265625 0 L 3.296875 -9.21875 L 5.78125 -9.21875 L 8.78125 0 Z M 4.515625 -7.390625 L 4.453125 -7.390625 L 3.4375 -3.890625 L 5.546875 -3.890625 Z M 4.515625 -7.390625 "/>
</g>
<g id="glyph-4-9">
<path d="M 1.234375 0 L 1.234375 -1.59375 L 3.71875 -1.59375 L 3.71875 -7.78125 L 3.609375 -7.78125 L 1.734375 -5.328125 L 0.46875 -6.3125 L 2.671875 -9.21875 L 5.703125 -9.21875 L 5.703125 -1.59375 L 7.65625 -1.59375 L 7.65625 0 Z M 1.234375 0 "/>
</g>
<g id="glyph-4-10">
<path d="M 3.703125 0.15625 C 3.191406 0.15625 2.734375 0.0703125 2.328125 -0.09375 C 1.921875 -0.269531 1.578125 -0.515625 1.296875 -0.828125 C 1.023438 -1.140625 0.816406 -1.519531 0.671875 -1.96875 C 0.535156 -2.414062 0.46875 -2.914062 0.46875 -3.46875 C 0.46875 -4.019531 0.535156 -4.519531 0.671875 -4.96875 C 0.816406 -5.414062 1.023438 -5.796875 1.296875 -6.109375 C 1.578125 -6.429688 1.921875 -6.675781 2.328125 -6.84375 C 2.734375 -7.007812 3.191406 -7.09375 3.703125 -7.09375 C 4.410156 -7.09375 5 -6.929688 5.46875 -6.609375 C 5.9375 -6.296875 6.273438 -5.851562 6.484375 -5.28125 L 4.890625 -4.59375 C 4.835938 -4.851562 4.710938 -5.078125 4.515625 -5.265625 C 4.316406 -5.453125 4.046875 -5.546875 3.703125 -5.546875 C 3.304688 -5.546875 3.007812 -5.414062 2.8125 -5.15625 C 2.613281 -4.894531 2.515625 -4.546875 2.515625 -4.109375 L 2.515625 -2.8125 C 2.515625 -2.375 2.613281 -2.023438 2.8125 -1.765625 C 3.007812 -1.515625 3.304688 -1.390625 3.703125 -1.390625 C 4.054688 -1.390625 4.335938 -1.484375 4.546875 -1.671875 C 4.753906 -1.859375 4.90625 -2.109375 5 -2.421875 L 6.515625 -1.75 C 6.285156 -1.09375 5.929688 -0.609375 5.453125 -0.296875 C 4.972656 0.00390625 4.390625 0.15625 3.703125 0.15625 Z M 3.703125 0.15625 "/>
</g>
<g id="glyph-4-11">
<path d="M 5.15625 -1.15625 L 5.09375 -1.15625 C 5.039062 -0.976562 4.957031 -0.804688 4.84375 -0.640625 C 4.726562 -0.472656 4.585938 -0.332031 4.421875 -0.21875 C 4.265625 -0.101562 4.082031 -0.015625 3.875 0.046875 C 3.664062 0.117188 3.453125 0.15625 3.234375 0.15625 C 2.359375 0.15625 1.691406 -0.148438 1.234375 -0.765625 C 0.785156 -1.390625 0.5625 -2.289062 0.5625 -3.46875 C 0.5625 -4.644531 0.785156 -5.539062 1.234375 -6.15625 C 1.691406 -6.78125 2.359375 -7.09375 3.234375 -7.09375 C 3.679688 -7.09375 4.078125 -6.96875 4.421875 -6.71875 C 4.773438 -6.46875 5 -6.148438 5.09375 -5.765625 L 5.15625 -5.765625 L 5.15625 -9.765625 L 7.109375 -9.765625 L 7.109375 0 L 5.15625 0 Z M 3.875 -1.421875 C 4.25 -1.421875 4.554688 -1.507812 4.796875 -1.6875 C 5.035156 -1.875 5.15625 -2.125 5.15625 -2.4375 L 5.15625 -4.484375 C 5.15625 -4.804688 5.035156 -5.054688 4.796875 -5.234375 C 4.554688 -5.410156 4.25 -5.5 3.875 -5.5 C 3.507812 -5.5 3.203125 -5.367188 2.953125 -5.109375 C 2.710938 -4.859375 2.59375 -4.507812 2.59375 -4.0625 L 2.59375 -2.859375 C 2.59375 -2.421875 2.710938 -2.070312 2.953125 -1.8125 C 3.203125 -1.550781 3.507812 -1.421875 3.875 -1.421875 Z M 3.875 -1.421875 "/>
</g>
<g id="glyph-4-12">
<path d="M 6.03125 0 C 5.675781 0 5.382812 -0.109375 5.15625 -0.328125 C 4.925781 -0.546875 4.78125 -0.84375 4.71875 -1.21875 L 4.640625 -1.21875 C 4.523438 -0.769531 4.285156 -0.425781 3.921875 -0.1875 C 3.566406 0.0390625 3.125 0.15625 2.59375 0.15625 C 1.90625 0.15625 1.375 -0.0234375 1 -0.390625 C 0.632812 -0.765625 0.453125 -1.253906 0.453125 -1.859375 C 0.453125 -2.585938 0.71875 -3.128906 1.25 -3.484375 C 1.78125 -3.847656 2.503906 -4.03125 3.421875 -4.03125 L 4.515625 -4.03125 L 4.515625 -4.46875 C 4.515625 -4.800781 4.425781 -5.066406 4.25 -5.265625 C 4.070312 -5.460938 3.773438 -5.5625 3.359375 -5.5625 C 2.972656 -5.5625 2.664062 -5.476562 2.4375 -5.3125 C 2.207031 -5.144531 2.019531 -4.953125 1.875 -4.734375 L 0.71875 -5.765625 C 1 -6.179688 1.351562 -6.503906 1.78125 -6.734375 C 2.207031 -6.972656 2.785156 -7.09375 3.515625 -7.09375 C 4.492188 -7.09375 5.226562 -6.875 5.71875 -6.4375 C 6.21875 -6.007812 6.46875 -5.382812 6.46875 -4.5625 L 6.46875 -1.515625 L 7.109375 -1.515625 L 7.109375 0 Z M 3.328125 -1.203125 C 3.648438 -1.203125 3.925781 -1.269531 4.15625 -1.40625 C 4.394531 -1.550781 4.515625 -1.78125 4.515625 -2.09375 L 4.515625 -2.921875 L 3.5625 -2.921875 C 2.800781 -2.921875 2.421875 -2.660156 2.421875 -2.140625 L 2.421875 -1.9375 C 2.421875 -1.6875 2.5 -1.5 2.65625 -1.375 C 2.8125 -1.257812 3.035156 -1.203125 3.328125 -1.203125 Z M 3.328125 -1.203125 "/>
</g>
<g id="glyph-4-13">
<path d="M 7.328125 0.5 C 7.328125 0.875 7.257812 1.203125 7.125 1.484375 C 7 1.765625 6.789062 2.003906 6.5 2.203125 C 6.21875 2.398438 5.835938 2.546875 5.359375 2.640625 C 4.878906 2.742188 4.285156 2.796875 3.578125 2.796875 C 2.984375 2.796875 2.472656 2.757812 2.046875 2.6875 C 1.628906 2.613281 1.289062 2.507812 1.03125 2.375 C 0.769531 2.238281 0.582031 2.070312 0.46875 1.875 C 0.351562 1.675781 0.296875 1.445312 0.296875 1.1875 C 0.296875 0.800781 0.410156 0.5 0.640625 0.28125 C 0.867188 0.0625 1.179688 -0.0703125 1.578125 -0.125 L 1.578125 -0.28125 C 1.242188 -0.34375 0.992188 -0.484375 0.828125 -0.703125 C 0.660156 -0.929688 0.578125 -1.191406 0.578125 -1.484375 C 0.578125 -1.671875 0.613281 -1.832031 0.6875 -1.96875 C 0.769531 -2.101562 0.867188 -2.222656 0.984375 -2.328125 C 1.097656 -2.429688 1.234375 -2.515625 1.390625 -2.578125 C 1.554688 -2.640625 1.71875 -2.6875 1.875 -2.71875 L 1.875 -2.765625 C 1.445312 -2.960938 1.132812 -3.226562 0.9375 -3.5625 C 0.738281 -3.90625 0.640625 -4.300781 0.640625 -4.75 C 0.640625 -5.457031 0.878906 -6.023438 1.359375 -6.453125 C 1.847656 -6.878906 2.597656 -7.09375 3.609375 -7.09375 C 3.828125 -7.09375 4.046875 -7.082031 4.265625 -7.0625 C 4.492188 -7.039062 4.707031 -7 4.90625 -6.9375 L 7.203125 -6.9375 L 7.203125 -5.625 L 6.359375 -5.625 C 6.503906 -5.375 6.578125 -5.082031 6.578125 -4.75 C 6.578125 -4.050781 6.332031 -3.492188 5.84375 -3.078125 C 5.351562 -2.660156 4.609375 -2.453125 3.609375 -2.453125 C 3.160156 -2.453125 2.75 -2.5 2.375 -2.59375 C 2.175781 -2.46875 2.078125 -2.285156 2.078125 -2.046875 C 2.078125 -1.878906 2.140625 -1.75 2.265625 -1.65625 C 2.390625 -1.5625 2.601562 -1.515625 2.90625 -1.515625 L 4.90625 -1.515625 C 5.75 -1.515625 6.363281 -1.335938 6.75 -0.984375 C 7.132812 -0.640625 7.328125 -0.144531 7.328125 0.5 Z M 3.609375 -3.734375 C 3.992188 -3.734375 4.28125 -3.8125 4.46875 -3.96875 C 4.65625 -4.132812 4.75 -4.375 4.75 -4.6875 L 4.75 -4.84375 C 4.75 -5.15625 4.65625 -5.390625 4.46875 -5.546875 C 4.28125 -5.710938 3.992188 -5.796875 3.609375 -5.796875 C 3.222656 -5.796875 2.929688 -5.710938 2.734375 -5.546875 C 2.546875 -5.390625 2.453125 -5.15625 2.453125 -4.84375 L 2.453125 -4.6875 C 2.453125 -4.375 2.546875 -4.132812 2.734375 -3.96875 C 2.929688 -3.8125 3.222656 -3.734375 3.609375 -3.734375 Z M 5.5 0.765625 C 5.5 0.566406 5.414062 0.410156 5.25 0.296875 C 5.09375 0.191406 4.816406 0.140625 4.421875 0.140625 L 2.046875 0.140625 C 1.960938 0.234375 1.898438 0.332031 1.859375 0.4375 C 1.816406 0.550781 1.796875 0.660156 1.796875 0.765625 C 1.796875 1.023438 1.90625 1.210938 2.125 1.328125 C 2.34375 1.441406 2.71875 1.5 3.25 1.5 L 4.046875 1.5 C 4.566406 1.5 4.9375 1.441406 5.15625 1.328125 C 5.382812 1.210938 5.5 1.023438 5.5 0.765625 Z M 3.640625 -7.640625 C 3.242188 -7.640625 2.90625 -7.710938 2.625 -7.859375 C 2.34375 -8.003906 2.101562 -8.1875 1.90625 -8.40625 C 1.71875 -8.625 1.5625 -8.863281 1.4375 -9.125 C 1.3125 -9.394531 1.207031 -9.648438 1.125 -9.890625 L 2.1875 -10.4375 L 2.453125 -10.015625 C 2.648438 -9.691406 2.835938 -9.441406 3.015625 -9.265625 C 3.203125 -9.085938 3.410156 -9 3.640625 -9 C 3.859375 -9 4.0625 -9.085938 4.25 -9.265625 C 4.4375 -9.441406 4.628906 -9.691406 4.828125 -10.015625 L 5.078125 -10.4375 L 6.140625 -9.890625 C 6.054688 -9.648438 5.945312 -9.394531 5.8125 -9.125 C 5.6875 -8.863281 5.519531 -8.625 5.3125 -8.40625 C 5.113281 -8.1875 4.875 -8.003906 4.59375 -7.859375 C 4.320312 -7.710938 4.003906 -7.640625 3.640625 -7.640625 Z M 3.640625 -7.640625 "/>
</g>
<g id="glyph-4-14">
<path d="M 0.90625 0 L 0.90625 -6.9375 L 2.859375 -6.9375 L 2.859375 0 Z M 0.90625 0 "/>
</g>
<g id="glyph-4-15">
<path d="M 2.859375 0 C 2.179688 0 1.6875 -0.160156 1.375 -0.484375 C 1.0625 -0.816406 0.90625 -1.289062 0.90625 -1.90625 L 0.90625 -9.765625 L 2.859375 -9.765625 L 2.859375 -1.515625 L 3.734375 -1.515625 L 3.734375 0 Z M 2.859375 0 "/>
</g>
<g id="glyph-4-16">
<path d="M 0.90625 0 L 0.90625 -6.9375 L 2.859375 -6.9375 L 2.859375 -5.75 L 2.9375 -5.75 C 3.0625 -6.125 3.273438 -6.441406 3.578125 -6.703125 C 3.878906 -6.960938 4.289062 -7.09375 4.8125 -7.09375 C 5.28125 -7.09375 5.679688 -6.972656 6.015625 -6.734375 C 6.347656 -6.492188 6.59375 -6.144531 6.75 -5.6875 L 6.78125 -5.6875 C 6.84375 -5.882812 6.9375 -6.066406 7.0625 -6.234375 C 7.195312 -6.410156 7.351562 -6.554688 7.53125 -6.671875 C 7.71875 -6.796875 7.925781 -6.894531 8.15625 -6.96875 C 8.382812 -7.050781 8.632812 -7.09375 8.90625 -7.09375 C 9.570312 -7.09375 10.082031 -6.851562 10.4375 -6.375 C 10.789062 -5.90625 10.96875 -5.226562 10.96875 -4.34375 L 10.96875 0 L 9.015625 0 L 9.015625 -4.1875 C 9.015625 -5.0625 8.695312 -5.5 8.0625 -5.5 C 7.769531 -5.5 7.503906 -5.414062 7.265625 -5.25 C 7.035156 -5.082031 6.921875 -4.828125 6.921875 -4.484375 L 6.921875 0 L 4.96875 0 L 4.96875 -4.1875 C 4.96875 -5.0625 4.648438 -5.5 4.015625 -5.5 C 3.867188 -5.5 3.726562 -5.476562 3.59375 -5.4375 C 3.457031 -5.40625 3.332031 -5.34375 3.21875 -5.25 C 3.113281 -5.164062 3.023438 -5.054688 2.953125 -4.921875 C 2.890625 -4.796875 2.859375 -4.648438 2.859375 -4.484375 L 2.859375 0 Z M 0.90625 0 "/>
</g>
</g>
<clipPath id="clip-0">
<path clip-rule="nonzero" d="M 29.152344 244 L 570.523438 244 L 570.523438 246 L 29.152344 246 Z M 29.152344 244 "/>
</clipPath>
<clipPath id="clip-1">
<path clip-rule="nonzero" d="M 29.152344 195 L 570.523438 195 L 570.523438 197 L 29.152344 197 Z M 29.152344 195 "/>
</clipPath>
<clipPath id="clip-2">
<path clip-rule="nonzero" d="M 29.152344 147 L 570.523438 147 L 570.523438 149 L 29.152344 149 Z M 29.152344 147 "/>
</clipPath>
<clipPath id="clip-3">
<path clip-rule="nonzero" d="M 29.152344 98 L 570.523438 98 L 570.523438 100 L 29.152344 100 Z M 29.152344 98 "/>
</clipPath>
<clipPath id="clip-4">
<path clip-rule="nonzero" d="M 29.152344 49 L 570.523438 49 L 570.523438 51 L 29.152344 51 Z M 29.152344 49 "/>
</clipPath>
<clipPath id="clip-5">
<path clip-rule="nonzero" d="M 143 40.4375 L 145 40.4375 L 145 254.847656 L 143 254.847656 Z M 143 40.4375 "/>
</clipPath>
<clipPath id="clip-6">
<path clip-rule="nonzero" d="M 273 40.4375 L 275 40.4375 L 275 254.847656 L 273 254.847656 Z M 273 40.4375 "/>
</clipPath>
<clipPath id="clip-7">
<path clip-rule="nonzero" d="M 402 40.4375 L 404 40.4375 L 404 254.847656 L 402 254.847656 Z M 402 40.4375 "/>
</clipPath>
<clipPath id="clip-8">
<path clip-rule="nonzero" d="M 532 40.4375 L 534 40.4375 L 534 254.847656 L 532 254.847656 Z M 532 40.4375 "/>
</clipPath>
<clipPath id="clip-9">
<path clip-rule="nonzero" d="M 117 40.4375 L 120 40.4375 L 120 254.847656 L 117 254.847656 Z M 117 40.4375 "/>
</clipPath>
<clipPath id="clip-10">
<path clip-rule="nonzero" d="M 143 40.4375 L 145 40.4375 L 145 254.847656 L 143 254.847656 Z M 143 40.4375 "/>
</clipPath>
<clipPath id="clip-11">
<path clip-rule="nonzero" d="M 221 40.4375 L 223 40.4375 L 223 254.847656 L 221 254.847656 Z M 221 40.4375 "/>
</clipPath>
<clipPath id="clip-12">
<path clip-rule="nonzero" d="M 81 40.4375 L 104 40.4375 L 104 41 L 81 41 Z M 81 40.4375 "/>
</clipPath>
<clipPath id="clip-13">
<path clip-rule="nonzero" d="M 123 40.4375 L 140 40.4375 L 140 41 L 123 41 Z M 123 40.4375 "/>
</clipPath>
<clipPath id="clip-14">
<path clip-rule="nonzero" d="M 247 40.4375 L 261 40.4375 L 261 41 L 247 41 Z M 247 40.4375 "/>
</clipPath>
</defs>
<rect x="-57.6" y="-28.8" width="691.2" height="345.6" fill="rgb(100%, 100%, 100%)" fill-opacity="1"/>
<rect x="-57.6" y="-28.8" width="691.2" height="345.6" fill="rgb(100%, 100%, 100%)" fill-opacity="1"/>
<g clip-path="url(#clip-0)">
<path fill="none" stroke-width="1.066978" stroke-linecap="butt" stroke-linejoin="round" stroke="rgb(87.843137%, 87.843137%, 87.843137%)" stroke-opacity="1" stroke-miterlimit="10" d="M 29.152344 245.101562 L 570.519531 245.101562 "/>
</g>
<g clip-path="url(#clip-1)">
<path fill="none" stroke-width="1.066978" stroke-linecap="butt" stroke-linejoin="round" stroke="rgb(87.843137%, 87.843137%, 87.843137%)" stroke-opacity="1" stroke-miterlimit="10" d="M 29.152344 196.375 L 570.519531 196.375 "/>
</g>
<g clip-path="url(#clip-2)">
<path fill="none" stroke-width="1.066978" stroke-linecap="butt" stroke-linejoin="round" stroke="rgb(87.843137%, 87.843137%, 87.843137%)" stroke-opacity="1" stroke-miterlimit="10" d="M 29.152344 147.644531 L 570.519531 147.644531 "/>
</g>
<g clip-path="url(#clip-3)">
<path fill="none" stroke-width="1.066978" stroke-linecap="butt" stroke-linejoin="round" stroke="rgb(87.843137%, 87.843137%, 87.843137%)" stroke-opacity="1" stroke-miterlimit="10" d="M 29.152344 98.914062 L 570.519531 98.914062 "/>
</g>
<g clip-path="url(#clip-4)">
<path fill="none" stroke-width="1.066978" stroke-linecap="butt" stroke-linejoin="round" stroke="rgb(87.843137%, 87.843137%, 87.843137%)" stroke-opacity="1" stroke-miterlimit="10" d="M 29.152344 50.183594 L 570.519531 50.183594 "/>
</g>
<g clip-path="url(#clip-5)">
<path fill="none" stroke-width="1.066978" stroke-linecap="butt" stroke-linejoin="round" stroke="rgb(87.843137%, 87.843137%, 87.843137%)" stroke-opacity="1" stroke-miterlimit="10" d="M 144.417969 254.847656 L 144.417969 40.4375 "/>
</g>
<g clip-path="url(#clip-6)">
<path fill="none" stroke-width="1.066978" stroke-linecap="butt" stroke-linejoin="round" stroke="rgb(87.843137%, 87.843137%, 87.843137%)" stroke-opacity="1" stroke-miterlimit="10" d="M 273.933594 254.847656 L 273.933594 40.4375 "/>
</g>
<g clip-path="url(#clip-7)">
<path fill="none" stroke-width="1.066978" stroke-linecap="butt" stroke-linejoin="round" stroke="rgb(87.843137%, 87.843137%, 87.843137%)" stroke-opacity="1" stroke-miterlimit="10" d="M 403.445312 254.847656 L 403.445312 40.4375 "/>
</g>
<g clip-path="url(#clip-8)">
<path fill="none" stroke-width="1.066978" stroke-linecap="butt" stroke-linejoin="round" stroke="rgb(87.843137%, 87.843137%, 87.843137%)" stroke-opacity="1" stroke-miterlimit="10" d="M 532.960938 254.847656 L 532.960938 40.4375 "/>
</g>
<path fill-rule="nonzero" fill="rgb(98.039216%, 30.196078%, 33.72549%)" fill-opacity="0.85098" stroke-width="0.640187" stroke-linecap="butt" stroke-linejoin="miter" stroke="rgb(100%, 100%, 100%)" stroke-opacity="1" stroke-miterlimit="10" d="M 53.757812 245.101562 L 79.660156 245.101562 L 79.660156 147.640625 L 53.757812 147.640625 Z M 53.757812 245.101562 "/>
<path fill-rule="nonzero" fill="rgb(98.039216%, 30.196078%, 33.72549%)" fill-opacity="0.85098" stroke-width="0.640187" stroke-linecap="butt" stroke-linejoin="miter" stroke="rgb(100%, 100%, 100%)" stroke-opacity="1" stroke-miterlimit="10" d="M 79.660156 245.101562 L 105.5625 245.101562 L 105.5625 147.640625 L 79.660156 147.640625 Z M 79.660156 245.101562 "/>
<path fill-rule="nonzero" fill="rgb(98.039216%, 30.196078%, 33.72549%)" fill-opacity="0.85098" stroke-width="0.640187" stroke-linecap="butt" stroke-linejoin="miter" stroke="rgb(100%, 100%, 100%)" stroke-opacity="1" stroke-miterlimit="10" d="M 105.5625 245.101562 L 131.464844 245.101562 L 131.464844 196.371094 L 105.5625 196.371094 Z M 105.5625 245.101562 "/>
<path fill-rule="nonzero" fill="rgb(98.039216%, 30.196078%, 33.72549%)" fill-opacity="0.85098" stroke-width="0.640187" stroke-linecap="butt" stroke-linejoin="miter" stroke="rgb(100%, 100%, 100%)" stroke-opacity="1" stroke-miterlimit="10" d="M 131.46875 245.101562 L 157.371094 245.101562 L 157.371094 220.738281 L 131.46875 220.738281 Z M 131.46875 245.101562 "/>
<path fill-rule="nonzero" fill="rgb(98.039216%, 30.196078%, 33.72549%)" fill-opacity="0.85098" stroke-width="0.640187" stroke-linecap="butt" stroke-linejoin="miter" stroke="rgb(100%, 100%, 100%)" stroke-opacity="1" stroke-miterlimit="10" d="M 157.371094 245.101562 L 183.273438 245.101562 L 183.273438 172.007812 L 157.371094 172.007812 Z M 157.371094 245.101562 "/>
<path fill-rule="nonzero" fill="rgb(98.039216%, 30.196078%, 33.72549%)" fill-opacity="0.85098" stroke-width="0.640187" stroke-linecap="butt" stroke-linejoin="miter" stroke="rgb(100%, 100%, 100%)" stroke-opacity="1" stroke-miterlimit="10" d="M 183.273438 245.101562 L 209.175781 245.101562 L 209.175781 147.640625 L 183.273438 147.640625 Z M 183.273438 245.101562 "/>
<path fill-rule="nonzero" fill="rgb(98.039216%, 30.196078%, 33.72549%)" fill-opacity="0.85098" stroke-width="0.640187" stroke-linecap="butt" stroke-linejoin="miter" stroke="rgb(100%, 100%, 100%)" stroke-opacity="1" stroke-miterlimit="10" d="M 209.175781 245.101562 L 235.078125 245.101562 L 235.078125 123.277344 L 209.175781 123.277344 Z M 209.175781 245.101562 "/>
<path fill-rule="nonzero" fill="rgb(98.039216%, 30.196078%, 33.72549%)" fill-opacity="0.85098" stroke-width="0.640187" stroke-linecap="butt" stroke-linejoin="miter" stroke="rgb(100%, 100%, 100%)" stroke-opacity="1" stroke-miterlimit="10" d="M 235.078125 245.101562 L 260.980469 245.101562 L 260.980469 74.546875 L 235.078125 74.546875 Z M 235.078125 245.101562 "/>
<path fill="none" stroke-width="0.640187" stroke-linecap="butt" stroke-linejoin="miter" stroke="rgb(100%, 100%, 100%)" stroke-opacity="1" stroke-miterlimit="10" d="M 260.980469 245.101562 L 286.882812 245.101562 Z M 260.980469 245.101562 "/>
<path fill-rule="nonzero" fill="rgb(98.039216%, 30.196078%, 33.72549%)" fill-opacity="0.85098" stroke-width="0.640187" stroke-linecap="butt" stroke-linejoin="miter" stroke="rgb(100%, 100%, 100%)" stroke-opacity="1" stroke-miterlimit="10" d="M 286.882812 245.101562 L 312.785156 245.101562 L 312.785156 220.738281 L 286.882812 220.738281 Z M 286.882812 245.101562 "/>
<path fill-rule="nonzero" fill="rgb(98.039216%, 30.196078%, 33.72549%)" fill-opacity="0.85098" stroke-width="0.640187" stroke-linecap="butt" stroke-linejoin="miter" stroke="rgb(100%, 100%, 100%)" stroke-opacity="1" stroke-miterlimit="10" d="M 312.785156 245.101562 L 338.6875 245.101562 L 338.6875 220.738281 L 312.785156 220.738281 Z M 312.785156 245.101562 "/>
<path fill-rule="nonzero" fill="rgb(98.039216%, 30.196078%, 33.72549%)" fill-opacity="0.85098" stroke-width="0.640187" stroke-linecap="butt" stroke-linejoin="miter" stroke="rgb(100%, 100%, 100%)" stroke-opacity="1" stroke-miterlimit="10" d="M 338.691406 245.101562 L 364.59375 245.101562 L 364.59375 196.371094 L 338.691406 196.371094 Z M 338.691406 245.101562 "/>
<path fill-rule="nonzero" fill="rgb(98.039216%, 30.196078%, 33.72549%)" fill-opacity="0.85098" stroke-width="0.640187" stroke-linecap="butt" stroke-linejoin="miter" stroke="rgb(100%, 100%, 100%)" stroke-opacity="1" stroke-miterlimit="10" d="M 364.59375 245.101562 L 390.496094 245.101562 L 390.496094 196.371094 L 364.59375 196.371094 Z M 364.59375 245.101562 "/>
<path fill-rule="nonzero" fill="rgb(98.039216%, 30.196078%, 33.72549%)" fill-opacity="0.85098" stroke-width="0.640187" stroke-linecap="butt" stroke-linejoin="miter" stroke="rgb(100%, 100%, 100%)" stroke-opacity="1" stroke-miterlimit="10" d="M 390.496094 245.101562 L 416.398438 245.101562 L 416.398438 220.738281 L 390.496094 220.738281 Z M 390.496094 245.101562 "/>
<path fill="none" stroke-width="0.640187" stroke-linecap="butt" stroke-linejoin="miter" stroke="rgb(100%, 100%, 100%)" stroke-opacity="1" stroke-miterlimit="10" d="M 416.398438 245.101562 L 442.300781 245.101562 Z M 416.398438 245.101562 "/>
<path fill-rule="nonzero" fill="rgb(98.039216%, 30.196078%, 33.72549%)" fill-opacity="0.85098" stroke-width="0.640187" stroke-linecap="butt" stroke-linejoin="miter" stroke="rgb(100%, 100%, 100%)" stroke-opacity="1" stroke-miterlimit="10" d="M 442.300781 245.101562 L 468.203125 245.101562 L 468.203125 220.738281 L 442.300781 220.738281 Z M 442.300781 245.101562 "/>
<path fill="none" stroke-width="0.640187" stroke-linecap="butt" stroke-linejoin="miter" stroke="rgb(100%, 100%, 100%)" stroke-opacity="1" stroke-miterlimit="10" d="M 468.203125 245.101562 L 494.105469 245.101562 Z M 468.203125 245.101562 "/>
<path fill="none" stroke-width="0.640187" stroke-linecap="butt" stroke-linejoin="miter" stroke="rgb(100%, 100%, 100%)" stroke-opacity="1" stroke-miterlimit="10" d="M 494.105469 245.101562 L 520.007812 245.101562 Z M 494.105469 245.101562 "/>
<path fill-rule="nonzero" fill="rgb(98.039216%, 30.196078%, 33.72549%)" fill-opacity="0.85098" stroke-width="0.640187" stroke-linecap="butt" stroke-linejoin="miter" stroke="rgb(100%, 100%, 100%)" stroke-opacity="1" stroke-miterlimit="10" d="M 520.011719 245.101562 L 545.914062 245.101562 L 545.914062 220.738281 L 520.011719 220.738281 Z M 520.011719 245.101562 "/>
<g clip-path="url(#clip-9)">
<path fill="none" stroke-width="1.066978" stroke-linecap="butt" stroke-linejoin="round" stroke="rgb(22.352941%, 22.352941%, 22.352941%)" stroke-opacity="1" stroke-dasharray="4.267913 4.267913" stroke-miterlimit="10" d="M 118.515625 254.847656 L 118.515625 40.4375 "/>
</g>
<g clip-path="url(#clip-10)">
<path fill="none" stroke-width="1.066978" stroke-linecap="butt" stroke-linejoin="round" stroke="rgb(22.352941%, 22.352941%, 22.352941%)" stroke-opacity="1" stroke-dasharray="4.267913 4.267913" stroke-miterlimit="10" d="M 144.417969 254.847656 L 144.417969 40.4375 "/>
</g>
<g clip-path="url(#clip-11)">
<path fill="none" stroke-width="1.066978" stroke-linecap="butt" stroke-linejoin="round" stroke="rgb(22.352941%, 22.352941%, 22.352941%)" stroke-opacity="1" stroke-dasharray="4.267913 4.267913" stroke-miterlimit="10" d="M 222.128906 254.847656 L 222.128906 40.4375 "/>
</g>
<g clip-path="url(#clip-12)">
<g fill="rgb(22.352941%, 22.352941%, 22.352941%)" fill-opacity="1">
<use xlink:href="#glyph-0-0" x="81.113281" y="40.788086"/>
<use xlink:href="#glyph-0-1" x="86.113281" y="40.788086"/>
<use xlink:href="#glyph-0-2" x="91.113281" y="40.788086"/>
<use xlink:href="#glyph-0-1" x="96.113281" y="40.788086"/>
<use xlink:href="#glyph-0-3" x="101.113281" y="40.788086"/>
</g>
</g>
<g clip-path="url(#clip-13)">
<g fill="rgb(22.352941%, 22.352941%, 22.352941%)" fill-opacity="1">
<use xlink:href="#glyph-0-4" x="122.96875" y="40.788086"/>
<use xlink:href="#glyph-0-5" x="127.96875" y="40.788086"/>
<use xlink:href="#glyph-0-6" x="131.96875" y="40.788086"/>
<use xlink:href="#glyph-0-4" x="134.96875" y="40.788086"/>
</g>
</g>
<g clip-path="url(#clip-14)">
<g fill="rgb(22.352941%, 22.352941%, 22.352941%)" fill-opacity="1">
<use xlink:href="#glyph-0-7" x="246.710938" y="40.788086"/>
<use xlink:href="#glyph-0-8" x="249.710938" y="40.788086"/>
<use xlink:href="#glyph-0-5" x="251.710938" y="40.788086"/>
<use xlink:href="#glyph-0-9" x="255.710938" y="40.788086"/>
</g>
</g>
<g fill="rgb(32.156863%, 32.156863%, 32.156863%)" fill-opacity="1">
<use xlink:href="#glyph-1-0" x="19.21875" y="247.621094"/>
</g>
<g fill="rgb(32.156863%, 32.156863%, 32.156863%)" fill-opacity="1">
<use xlink:href="#glyph-1-1" x="19.21875" y="198.894531"/>
</g>
<g fill="rgb(32.156863%, 32.156863%, 32.156863%)" fill-opacity="1">
<use xlink:href="#glyph-1-2" x="19.21875" y="150.164062"/>
</g>
<g fill="rgb(32.156863%, 32.156863%, 32.156863%)" fill-opacity="1">
<use xlink:href="#glyph-1-3" x="19.21875" y="101.433594"/>
</g>
<g fill="rgb(32.156863%, 32.156863%, 32.156863%)" fill-opacity="1">
<use xlink:href="#glyph-1-4" x="19.21875" y="52.703125"/>
</g>
<g fill="rgb(32.156863%, 32.156863%, 32.156863%)" fill-opacity="1">
<use xlink:href="#glyph-1-5" x="138.417969" y="265.800781"/>
<use xlink:href="#glyph-1-6" x="143.417969" y="265.800781"/>
<use xlink:href="#glyph-1-7" x="145.417969" y="265.800781"/>
</g>
<g fill="rgb(32.156863%, 32.156863%, 32.156863%)" fill-opacity="1">
<use xlink:href="#glyph-1-8" x="265.433594" y="265.800781"/>
<use xlink:href="#glyph-1-0" x="270.433594" y="265.800781"/>
<use xlink:href="#glyph-1-6" x="275.433594" y="265.800781"/>
<use xlink:href="#glyph-1-0" x="277.433594" y="265.800781"/>
</g>
<g fill="rgb(32.156863%, 32.156863%, 32.156863%)" fill-opacity="1">
<use xlink:href="#glyph-1-8" x="394.945312" y="265.800781"/>
<use xlink:href="#glyph-1-1" x="399.945312" y="265.800781"/>
<use xlink:href="#glyph-1-6" x="404.945312" y="265.800781"/>
<use xlink:href="#glyph-1-7" x="406.945312" y="265.800781"/>
</g>
<g fill="rgb(32.156863%, 32.156863%, 32.156863%)" fill-opacity="1">
<use xlink:href="#glyph-1-8" x="524.460938" y="265.800781"/>
<use xlink:href="#glyph-1-7" x="529.460938" y="265.800781"/>
<use xlink:href="#glyph-1-6" x="534.460938" y="265.800781"/>
<use xlink:href="#glyph-1-0" x="536.460938" y="265.800781"/>
</g>
<g fill="rgb(0%, 0%, 0%)" fill-opacity="1">
<use xlink:href="#glyph-2-0" x="272.335938" y="278.794922"/>
<use xlink:href="#glyph-2-1" x="280.335938" y="278.794922"/>
<use xlink:href="#glyph-2-2" x="286.335938" y="278.794922"/>
<use xlink:href="#glyph-2-3" x="293.335938" y="278.794922"/>
<use xlink:href="#glyph-2-4" x="300.335938" y="278.794922"/>
<use xlink:href="#glyph-2-5" x="306.335938" y="278.794922"/>
<use xlink:href="#glyph-2-6" x="309.335938" y="278.794922"/>
<use xlink:href="#glyph-2-7" x="313.335938" y="278.794922"/>
<use xlink:href="#glyph-2-8" x="323.335938" y="278.794922"/>
</g>
<g fill="rgb(0%, 0%, 0%)" fill-opacity="1">
<use xlink:href="#glyph-3-0" x="12.755859" y="172.144531"/>
<use xlink:href="#glyph-3-1" x="12.755859" y="165.144531"/>
<use xlink:href="#glyph-3-2" x="12.755859" y="162.144531"/>
<use xlink:href="#glyph-3-3" x="12.755859" y="159.144531"/>
<use xlink:href="#glyph-3-4" x="12.755859" y="153.144531"/>
<use xlink:href="#glyph-3-5" x="12.755859" y="150.144531"/>
<use xlink:href="#glyph-3-6" x="12.755859" y="145.144531"/>
<use xlink:href="#glyph-3-7" x="12.755859" y="139.144531"/>
<use xlink:href="#glyph-3-8" x="12.755859" y="134.144531"/>
<use xlink:href="#glyph-3-5" x="12.755859" y="131.144531"/>
<use xlink:href="#glyph-3-8" x="12.755859" y="126.144531"/>
</g>
<g fill="rgb(0%, 0%, 0%)" fill-opacity="1">
<use xlink:href="#glyph-2-9" x="29.152344" y="31.232422"/>
<use xlink:href="#glyph-2-5" x="35.152344" y="31.232422"/>
<use xlink:href="#glyph-2-10" x="38.152344" y="31.232422"/>
<use xlink:href="#glyph-2-5" x="45.152344" y="31.232422"/>
<use xlink:href="#glyph-2-11" x="48.152344" y="31.232422"/>
<use xlink:href="#glyph-2-12" x="55.152344" y="31.232422"/>
<use xlink:href="#glyph-2-13" x="62.152344" y="31.232422"/>
<use xlink:href="#glyph-2-5" x="65.152344" y="31.232422"/>
<use xlink:href="#glyph-2-14" x="68.152344" y="31.232422"/>
<use xlink:href="#glyph-2-15" x="78.152344" y="31.232422"/>
<use xlink:href="#glyph-2-16" x="84.152344" y="31.232422"/>
<use xlink:href="#glyph-2-17" x="90.152344" y="31.232422"/>
<use xlink:href="#glyph-2-18" x="95.152344" y="31.232422"/>
<use xlink:href="#glyph-2-9" x="101.152344" y="31.232422"/>
<use xlink:href="#glyph-2-5" x="107.152344" y="31.232422"/>
<use xlink:href="#glyph-2-10" x="110.152344" y="31.232422"/>
<use xlink:href="#glyph-2-5" x="117.152344" y="31.232422"/>
<use xlink:href="#glyph-2-12" x="120.152344" y="31.232422"/>
<use xlink:href="#glyph-2-19" x="127.152344" y="31.232422"/>
<use xlink:href="#glyph-2-20" x="130.152344" y="31.232422"/>
<use xlink:href="#glyph-2-7" x="137.152344" y="31.232422"/>
<use xlink:href="#glyph-2-13" x="147.152344" y="31.232422"/>
<use xlink:href="#glyph-2-5" x="150.152344" y="31.232422"/>
<use xlink:href="#glyph-2-21" x="153.152344" y="31.232422"/>
<use xlink:href="#glyph-2-22" x="157.152344" y="31.232422"/>
<use xlink:href="#glyph-2-23" x="165.152344" y="31.232422"/>
<use xlink:href="#glyph-2-5" x="172.152344" y="31.232422"/>
<use xlink:href="#glyph-2-24" x="175.152344" y="31.232422"/>
<use xlink:href="#glyph-2-25" x="178.152344" y="31.232422"/>
<use xlink:href="#glyph-2-19" x="185.152344" y="31.232422"/>
<use xlink:href="#glyph-2-26" x="188.152344" y="31.232422"/>
<use xlink:href="#glyph-2-13" x="195.152344" y="31.232422"/>
<use xlink:href="#glyph-2-5" x="198.152344" y="31.232422"/>
<use xlink:href="#glyph-2-12" x="201.152344" y="31.232422"/>
<use xlink:href="#glyph-2-19" x="208.152344" y="31.232422"/>
<use xlink:href="#glyph-2-27" x="211.152344" y="31.232422"/>
<use xlink:href="#glyph-2-28" x="218.152344" y="31.232422"/>
</g>
<g fill="rgb(0%, 0%, 0%)" fill-opacity="1">
<use xlink:href="#glyph-4-0" x="29.152344" y="15.009766"/>
<use xlink:href="#glyph-4-1" x="38.152344" y="15.009766"/>
<use xlink:href="#glyph-4-2" x="49.152344" y="15.009766"/>
<use xlink:href="#glyph-4-3" x="52.152344" y="15.009766"/>
<use xlink:href="#glyph-4-4" x="59.152344" y="15.009766"/>
<use xlink:href="#glyph-4-5" x="64.152344" y="15.009766"/>
<use xlink:href="#glyph-4-6" x="72.152344" y="15.009766"/>
<use xlink:href="#glyph-4-5" x="80.152344" y="15.009766"/>
<use xlink:href="#glyph-4-2" x="88.152344" y="15.009766"/>
<use xlink:href="#glyph-4-7" x="91.152344" y="15.009766"/>
<use xlink:href="#glyph-4-6" x="101.152344" y="15.009766"/>
<use xlink:href="#glyph-4-8" x="109.152344" y="15.009766"/>
<use xlink:href="#glyph-4-9" x="118.152344" y="15.009766"/>
<use xlink:href="#glyph-4-10" x="126.152344" y="15.009766"/>
<use xlink:href="#glyph-4-2" x="133.152344" y="15.009766"/>
<use xlink:href="#glyph-4-11" x="136.152344" y="15.009766"/>
<use xlink:href="#glyph-4-12" x="144.152344" y="15.009766"/>
<use xlink:href="#glyph-4-13" x="152.152344" y="15.009766"/>
<use xlink:href="#glyph-4-14" x="159.152344" y="15.009766"/>
<use xlink:href="#glyph-4-15" x="163.152344" y="15.009766"/>
<use xlink:href="#glyph-4-14" x="167.152344" y="15.009766"/>
<use xlink:href="#glyph-4-16" x="171.152344" y="15.009766"/>
<use xlink:href="#glyph-4-14" x="183.152344" y="15.009766"/>
</g>
</svg>
